<mxfile host="app.diagrams.net" agent="Mozilla/5.0 (Macintosh; Intel Mac OS X 10_15_7) AppleWebKit/537.36 (KHTML, like Gecko) Chrome/129.0.0.0 Safari/537.36" version="24.8.0">
  <diagram name="Strona-1" id="_rSk1iF8kNJKG2kgfH_q">
    <mxGraphModel dx="2563" dy="609" grid="1" gridSize="10" guides="1" tooltips="1" connect="1" arrows="1" fold="1" page="1" pageScale="1" pageWidth="1654" pageHeight="1169" math="1" shadow="0">
      <root>
        <mxCell id="0" />
        <mxCell id="1" parent="0" />
        <mxCell id="iv-ONhpST4pGWa4uh-DX-12" value="" style="shape=image;verticalLabelPosition=bottom;labelBackgroundColor=default;verticalAlign=top;aspect=fixed;imageAspect=0;image=data:image/png,iVBORw0KGgoAAAANSUhEUgAABDIAAAQeCAYAAAAqxxptAAAMP2lDQ1BJQ0MgUHJvZmlsZQAASImVVwdYU8kWnluSkEBoAQSkhN4EASkBpITQQu8INkISIJQYE4KKHV1UcO1iARu6KqJgBcSO2FkEe18sKCjrYsGuvEkBXfeV7833zZ3//nPmP2fOnbn3DgAaJzkiUR6qCUC+sEAcHxpIH5OaRid1AxIgAgogAyqHKxExY2MjASyD7d/LuxsAkbVXHWVa/+z/r0WLx5dwAUBiIc7gSbj5EB8EAK/kisQFABBlvMWUApEMwwp0xDBAiBfKcJYCV8pwhgLvldskxrMgbgFARY3DEWcBoN4OeXohNwtqqPdB7CzkCYQAaNAh9svPn8SDOB1iW2gjglimz8j4QSfrb5oZQ5ocTtYQVsxFXlSCBBJRHmfa/5mO/13y86SDPqxhVcsWh8XL5gzzdit3UoQMq0HcK8yIjoFYG+IPAp7cHmKUki0NS1LYo0ZcCQvmDOhB7MzjBEVAbARxiDAvOlLJZ2QKQtgQwxWCThUUsBMh1od4IV8SnKC02SyeFK/0hdZnillMJX+eI5b7lfl6IM1NYir1X2fz2Up9TL0oOzEFYgrEloWC5GiI1SF2kuQmRChtRhdls6IHbcTSeFn8lhDH84WhgQp9rDBTHBKvtC/NlwzOF9ucLWBHK/H+guzEMEV+sBYuRx4/nAvWzhcykwZ1+JIxkYNz4fGDghVzx7r5wqQEpc4HUUFgvGIsThHlxSrtcXN+XqiMN4fYTVKYoByLJxfABanQxzNFBbGJijjxohxOeKwiHnwZiAQsEAToQAprBpgEcoCgrbehF94pekIAB4hBFuADRyUzOCJF3iOE1wRQBP6EiA8kQ+MC5b18UAj5r0Os4uoIMuW9hfIRueApxPkgAuTBe6l8lHDIWzJ4AhnBP7xzYOXCePNglfX/e36Q/c4wIROpZKSDHukag5bEYGIQMYwYQrTDDXE/3AePhNcAWF1xBu41OI/v9oSnhA7CI8J1Qifh9kRBsfinKKNAJ9QPUeYi48dc4NZQ0x0PxH2hOlTG9XBD4Ii7QT9M3B96docsSxm3LCv0n7T/NoMfnobSjuxMRsnDyAFk259Hqturuw+pyHL9Y34UsWYM5Zs11POzf9YP2efBNuJnS2whdgA7h53CLmBHsQZAx05gjVgrdkyGh1bXE/nqGvQWL48nF+oI/uFv8MnKMilxrnHucf6i6CvgT5W9owFrkmiaWJCVXUBnwi8Cn84Wcp1G0F2dXd0AkH1fFK+vN3Hy7wai1/qdm/cHAL4nBgYGjnznwk8AsM8Tbv/D3zlbBvx0qAJw/jBXKi5UcLjsQoBvCQ240wyACbAAtnA+rsAD+IAAEAzCQQxIBKlgAow+G65zMZgCZoC5oASUgWVgNVgPNoGtYCfYA/aDBnAUnAJnwSXQDq6Du3D1dIEXoA+8A58RBCEhVISGGCCmiBXigLgiDMQPCUYikXgkFUlHshAhIkVmIPOQMmQFsh7ZglQj+5DDyCnkAtKB3EYeIj3Ia+QTiqFqqA5qjFqjI1EGykQj0ER0PJqFTkaL0PnoEnQtWoXuRuvRU+gl9Draib5A+zGAqWJ6mBnmiDEwFhaDpWGZmBibhZVi5VgVVos1wed8FevEerGPOBGn4XTcEa7gMDwJ5+KT8Vn4Ynw9vhOvx1vwq/hDvA//RqASjAgOBG8CmzCGkEWYQighlBO2Ew4RzsC91EV4RyQS9Yg2RE+4F1OJOcTpxMXEDcQ64kliB/ExsZ9EIhmQHEi+pBgSh1RAKiGtI+0mnSBdIXWRPqioqpiquKqEqKSpCFWKVcpVdqkcV7mi8kzlM1mTbEX2JseQeeRp5KXkbeQm8mVyF/kzRYtiQ/GlJFJyKHMpaym1lDOUe5Q3qqqq5qpeqnGqAtU5qmtV96qeV32o+lFNW81ejaU2Tk2qtkRth9pJtdtqb6hUqjU1gJpGLaAuoVZTT1MfUD+o09Sd1NnqPPXZ6hXq9epX1F9qkDWsNJgaEzSKNMo1Dmhc1ujVJGtaa7I0OZqzNCs0D2ve1OzXomm5aMVo5Wst1tqldUGrW5ukba0drM3Tnq+9Vfu09mMaRrOgsWhc2jzaNtoZWpcOUcdGh62To1Oms0enTadPV1vXTTdZd6puhe4x3U49TM9aj62Xp7dUb7/eDb1Pw4yHMYfxhy0aVjvsyrD3+sP1A/T5+qX6dfrX9T8Z0A2CDXINlhs0GNw3xA3tDeMMpxhuNDxj2DtcZ7jPcO7w0uH7h98xQo3sjeKNphttNWo16jc2MQ41FhmvMz5t3GuiZxJgkmOyyuS4SY8pzdTPVGC6yvSE6XO6Lp1Jz6OvpbfQ+8yMzMLMpGZbzNrMPpvbmCeZF5vXmd+3oFgwLDItVlk0W/RZmlpGWc6wrLG8Y0W2YlhlW62xOmf13trGOsV6gXWDdbeNvg3bpsimxuaeLdXW33aybZXtNTuiHcMu126DXbs9au9un21fYX/ZAXXwcBA4bHDoGEEY4TVCOKJqxE1HNUemY6FjjeNDJz2nSKdipwanlyMtR6aNXD7y3Mhvzu7Oec7bnO+6aLuEuxS7NLm8drV35bpWuF4bRR0VMmr2qMZRr9wc3PhuG91uudPco9wXuDe7f/Xw9BB71Hr0eFp6pntWet5k6DBiGYsZ570IXoFes72Oen309vAu8N7v/ZePo0+uzy6f7tE2o/mjt41+7Gvuy/Hd4tvpR/dL99vs1+lv5s/xr/J/FGARwAvYHvCMacfMYe5mvgx0DhQHHgp8z/JmzWSdDMKCQoNKg9qCtYOTgtcHPwgxD8kKqQnpC3UPnR56MowQFhG2POwm25jNZVez+8I9w2eGt0SoRSRErI94FGkfKY5sikKjwqNWRt2LtooWRjfEgBh2zMqY+7E2sZNjj8QR42LjKuKexrvEz4g/l0BLmJiwK+FdYmDi0sS7SbZJ0qTmZI3kccnVye9TglJWpHSOGTlm5phLqYapgtTGNFJactr2tP6xwWNXj+0a5z6uZNyN8Tbjp46/MMFwQt6EYxM1JnImHkgnpKek70r/wonhVHH6M9gZlRl9XBZ3DfcFL4C3itfD9+Wv4D/L9M1ckdmd5Zu1Mqsn2z+7PLtXwBKsF7zKCcvZlPM+NyZ3R+5AXkpeXb5Kfnr+YaG2MFfYMslk0tRJHSIHUYmoc7L35NWT+8QR4u0SRDJe0ligA3/kW6W20l+kDwv9CisKP0xJnnJgqtZU4dTWafbTFk17VhRS9Nt0fDp3evMMsxlzZzycyZy5ZRYyK2NW82yL2fNnd80JnbNzLmVu7tzfi52LVxS/nZcyr2m+8fw58x//EvpLTYl6ibjk5gKfBZsW4gsFC9sWjVq0btG3Ul7pxTLnsvKyL4u5iy/+6vLr2l8HlmQuaVvqsXTjMuIy4bIby/2X71yhtaJoxeOVUSvrV9FXla56u3ri6gvlbuWb1lDWSNd0ro1c27jOct2ydV/WZ6+/XhFYUVdpVLmo8v0G3oYrGwM21m4y3lS26dNmweZbW0K31FdZV5VvJW4t3Pp0W/K2c78xfqvebri9bPvXHcIdnTvjd7ZUe1ZX7zLatbQGrZHW9Owet7t9T9CexlrH2i11enVle8Fe6d7n+9L33dgfsb/5AONA7UGrg5WHaIdK65H6afV9DdkNnY2pjR2Hww83N/k0HTridGTHUbOjFcd0jy09Tjk+//jAiaIT/SdFJ3tPZZ163Dyx+e7pMaevtcS1tJ2JOHP+bMjZ0+eY506c9z1/9IL3hcMXGRcbLnlcqm91bz30u/vvh9o82uove15ubPdqb+oY3XH8iv+VU1eDrp69xr526Xr09Y4bSTdu3Rx3s/MW71b37bzbr+4U3vl8d849wr3S+5r3yx8YPaj6w+6Puk6PzmMPgx62Pkp4dPcx9/GLJ5InX7rmP6U+LX9m+qy627X7aE9IT/vzsc+7XohefO4t+VPrz8qXti8P/hXwV2vfmL6uV+JXA68XvzF4s+Ot29vm/tj+B+/y331+X/rB4MPOj4yP5z6lfHr2ecoX0pe1X+2+Nn2L+HZvIH9gQMQRc+S/AhisaGYmAK93AEBNBYAGz2eUsYrzn7wgijOrHIH/hBVnRHnxAKAW/r/H9cK/m5sA7N0Gj19QX2McALFUABK9ADpq1FAdPKvJz5WyQoTngM1hXzPyM8C/KYoz5w9x/9wCmaob+Ln9F0l4fDEWl9mmAAAAlmVYSWZNTQAqAAAACAAFARIAAwAAAAEAAQAAARoABQAAAAEAAABKARsABQAAAAEAAABSASgAAwAAAAEAAgAAh2kABAAAAAEAAABaAAAAAAAAAJAAAAABAAAAkAAAAAEAA5KGAAcAAAASAAAAhKACAAQAAAABAAAEMqADAAQAAAABAAAEHgAAAABBU0NJSQAAAFNjcmVlbnNob3RCTZQmAAAACXBIWXMAABYlAAAWJQFJUiTwAAAC3WlUWHRYTUw6Y29tLmFkb2JlLnhtcAAAAAAAPHg6eG1wbWV0YSB4bWxuczp4PSJhZG9iZTpuczptZXRhLyIgeDp4bXB0az0iWE1QIENvcmUgNi4wLjAiPgogICA8cmRmOlJERiB4bWxuczpyZGY9Imh0dHA6Ly93d3cudzMub3JnLzE5OTkvMDIvMjItcmRmLXN5bnRheC1ucyMiPgogICAgICA8cmRmOkRlc2NyaXB0aW9uIHJkZjphYm91dD0iIgogICAgICAgICAgICB4bWxuczpleGlmPSJodHRwOi8vbnMuYWRvYmUuY29tL2V4aWYvMS4wLyIKICAgICAgICAgICAgeG1sbnM6dGlmZj0iaHR0cDovL25zLmFkb2JlLmNvbS90aWZmLzEuMC8iPgogICAgICAgICA8ZXhpZjpVc2VyQ29tbWVudD5TY3JlZW5zaG90PC9leGlmOlVzZXJDb21tZW50PgogICAgICAgICA8ZXhpZjpQaXhlbFhEaW1lbnNpb24+MTA3NDwvZXhpZjpQaXhlbFhEaW1lbnNpb24+CiAgICAgICAgIDxleGlmOlBpeGVsWURpbWVuc2lvbj4xMDU0PC9leGlmOlBpeGVsWURpbWVuc2lvbj4KICAgICAgICAgPHRpZmY6UmVzb2x1dGlvblVuaXQ+MjwvdGlmZjpSZXNvbHV0aW9uVW5pdD4KICAgICAgICAgPHRpZmY6WFJlc29sdXRpb24+MTQ0LzE8L3RpZmY6WFJlc29sdXRpb24+CiAgICAgICAgIDx0aWZmOllSZXNvbHV0aW9uPjE0NC8xPC90aWZmOllSZXNvbHV0aW9uPgogICAgICAgICA8dGlmZjpPcmllbnRhdGlvbj4xPC90aWZmOk9yaWVudGF0aW9uPgogICAgICA8L3JkZjpEZXNjcmlwdGlvbj4KICAgPC9yZGY6UkRGPgo8L3g6eG1wbWV0YT4KeW67ggAAQABJREFUeAHsvQe8VNXVuL0oAhcu5dJBXqRZUQRFIgZBKSYYNBhUJMYCUnyNCmqUEBOjYKIEkeKHXTQaCMXYDVERBGwvLeAfFekg7SrSe5vvrK17nDt35t6ZOWfmTHn27zeetvdeaz97z8WzZq21y2zfvj0gFAhAAAIQgAAEIAABCEAAAhCAAAQgkAEEymaAjqgIAQhAAAIQgAAEIAABCEAAAhCAAAQMgfLXv7IDFBCAAAQgAAEIQAACEIAABCAAAQhAICMI4JGREdOEkhCAAAQgAAEIQAACEIAABCAAAQgogTLkyGAhQAACEIAABCAAAQhAAAIQgAAEIJApBPDIyJSZQk8IQAACEIAABCAAAQhAAAIQgAAEpLxlUFBQYE/T8pj3ixVpqRdKuSNw4O1T3HVAawhAAAIQgAAEIAABCEAAAhDIKQJ4ZOTUdDNYCEAAAhCAAAQgAAEIQAACEIBAZhPAkJHZ84f2EIAABCAAAQhAAAIQgAAEIACBnCKAISOnppvBQgACEIAABCAAAQhAAAIQgAAEMpsAhozMnj+0hwAEIAABCEAAAhCAAAQgAAEI5BQBDBk5Nd0MFgIQgAAEIAABCEAAAhCAAAQgkNkEMGRk9vyhPQQgAAEIQAACEIAABCAAAQhAIKcIYMjIqelmsBCAAAQgAAEIQAACEIAABCAAgcwmUD5T1W9Up7wM+VVN+VnbytKo9gly9FhAVm46LNPn7pEn39wpBw4Higyt3WmVZM7oxkXuhV7Uv3qV7Np3PPRWUs6fGFxPbrykusxesl8uvXdjUmRE6jRdxh9JN+5BAAIQgAAEIAABCEAAAhCAAARiJZCRhozzT8+TV+9vKDXyy4WMs4y0aVHJfK65qJr8/A8bZceeYyHPOYUABCAAAQhAAAIQgAAEIAABCEAg0wlknCGjSqWyMuXeBsaIoR4UD076Tj758oDkVSgjl7bLl9uvKJBWzSrK47fVkz5/3Rycn6WrD8mZA9YGr/Xkpy3z5Kkh9Yvcy9aLXB9/ts4r44IABCAAAQhAAAIQgAAEIJBrBDLOkNH7oqpSr6C8BJzIkcvv2yjzlx8MztmHyw7It7uOyl/71ZGeP82XJvVOkHWFR8zzQ0cCsnrz9+e2QfMGFexp1h9zffxZP8EMEAIQgAAEIAABCEAAAhCAQI4QyLhkn+3PyDNTs2jlwSJGDDtfT7+9yxg59PoCx+MiXUvRDB7pqiV6QQACEIAABCAAAQhAAAIQgAAE0otAzB4ZBw8elEqVKsWlfSJtShNQq9r3eTHCvStsu30Hj8uTb+2UqpXLyjc7j9rbnh9PPrGC3NGrQDq3riwNapUX9Xj46uvDMm3OHnn67Z3muiShx44HpGwZkQGX1pABv6guzRzvkD37j8vMxftkxD++C3qSROujRcMKJoxG5Wvi02NOntI1Ww7LG5/slfGv7kh64tLLzs+Xgb+oIeecXNGE+aiHzMZvj8h/Vx2Sv03b7hx/9JSJNgbuQwACEIAABCAAAQhAAAIQgAAE4iUQkyFj2bJlsm3bNqlfv76cdtppMclYtWqVbNy4UfLz86Vt27YxtYmlUvkf8nsecXYpiVbufPKbaI88ud/9vCoy6Q8NTV4O22GF8mWk7SmVzKd3p6pmR5LdjmEiWjnm5CEdfmNtuevKmsEqeRXKya87O4lKnf673P21LHcMI5FKrwurynN31ZeKJziWkJByZpOKoh9Ndtr1nq9ly/bkGHJ+d1VNGeHoXqQ4qpzkhPLo5/IL8qXPXzYbo0qROlxAAAIQgAAEIAABCEAAAhCAAARcEogptESNGFq2bt0qy5cvL1Wk1lEjhpa9e/eKemZkS6lbo5z8fWgDY8Qo3HFUbn2sUNrfvl5+PmyjPOV4YjiOFnKuY9AY8791SxxyXsUyctPPq8u9z2+TDndskJ/9fqPx5FDPhppVy8njt9eL2L5x3RPk2Tu/N2J8sf6w3DR6q/zk1vVy0V0bZLjjybH/UMDx7jghavuIncZxs8DR7Y/X1jItFq44KD3/vElaD1onrQauk8v/tEk+/vyA8TR5xtGxkpOAlQIBCEAAAhCAAAQgAAEIQAACEPCSQEweGeqFYQ0YaszQEs0zQw0Yto7WUy+OeENStF26lr4/qy5V88rK4aMBucQxPqzY+KPXxJzP9stuZyeVu6+uKddcXE1+/9y38u3OyFvAaq6P3zy8Rd50QkFsmfv/9sueA8eNl4Y+b97whGIJSjWJqYalbP7umFz8uw0S6vXxf07i02+dcJrHbq0nP2tbReo4Rpdo8q3MeI9tT64U9ATpO2qrrNr84/hXbjosCxzjxt8G1JEy6qHhGF2+CuETryzqQwACEIAABCAAAQhAAAIQgAAEwgnEZMhQY4SW0owZasDQkBJb4glFsW0SOdavWV6qVCr+6/+2Xcc8zxXxk9O/TyD6/n/3FzFiWL3VK0MNGZr/4jzHM+Pf8/fZR0WOqluoEcM+fOLNncFwk7OaVixmyND8F/qJVt5dtN88UkOC5tH4dueBaFUTun9CyIrZvqe4kWbn3mMycMz3xq6EBNAIAhCAAAQgAAEIQAACEIAABCBQAoGQ19ISajmPSjNmhIedpMqIoVo/fUc96XZOlWID+NML2+SR6duL3Xdzo/YPyUbXbi26lavtc/N3R423hubMqF39h4Qe9mHIcc2W6O01cajmv6heJXr7kK6KnGqyU1vykhDasWzdjx4YowfVkWETt8nWJOXisOPgCAEIQAACEIAABCAAAQhAAAIQsARiNmRoAzVOaL6LdevWmfY2hKRGjRpBbw1bL1roiWmYwf8JJht1jA2Riua4OOKEnagho5y6ZUQpWidS0fZHnUSmasiI1rxVs4pyj+P1ceFZlY2xJFq9SP27vbfhmyPyj/d3y2+6VDPhMxpCo0adz9cfks/WHJJ5/++A89lvdlFxK4v2EIAABCAAAQhAAAIQgAAEIACBcAJxGTK0cZMmTYwxwxox9GjP9XkqPTFUnhZNMhlavnq+qWhSzGwsl5xbRabf19AYSvwa381jt5qtZn97eQ3RsJ6m9U8wnx4/yRfpIybk5oa/bZElqw/5pSJyIQABCEAAAhCAAAQgAAEIQCBLCcRtyFAO1tsi1ICh9/0wYqjcXCnlnD1mdDcT9fbY+O1R+eML38pSx1gQuhVtjfxy8uGYxklFcsyJXtGQnUdf3i5nnFRR1EOk5UkVjIfIeadWklMaVZA3RzSSMwes9TxHSVIHRucQgAAEIAABCEAAAhCAAAQgkPYEEjJk6KjCjRmpMmIc/SG/pIZeRCv2mYZoeF2s/BOiyNckm+XLfa9bSfJPcIwRkUpoe93KNbS0blFJTqz9/ZT1f3Sr6C4p4aVWtR9zZIQ/8/pa9Vu27pD52L6v7FhVXnK2p9X8ID3Oz5dJThgKBQIQgAAEIAABCEAAAhCAAAQg4BUB5zf+xIsaM/TTokWLoGEj8d5ia/nd7u8tGc0bRA4dqVKprNSt8f3L/rfOziAlFc1HEW/Z9oN8DaeIVBrWKh/cnlR3JolWmkXRP7T9rn1F29cNSR6qBoRIpcDxyIi1JDL+0vp+ee4eWV/4fSJT3X6VAgEIQAACEIAABCAAAQhAAAIQ8JKAK0OGKqKeGI0aNfJSpxL7+uSL77cTbeN4J7Q/4/utUEMbDPxFdVGvBi2fflny1qM7nK1CbfmfOrG9dFv5XdpUNiEUtr09DvpFDXOq4Rfzvzpobxc7NnByS1zW3skpEVZse729bO2PO4To9TchhpGLzq6st4qVwb8qKHYv2o1Exq9byy56vIm8ev+JQc6h/efnlZVaP+zsEm6ICa3HOQQgAAEIQAACEIAABCAAAQhAIBECCYeWJCLMizbT5uyR+6+rLXVqlDMv03+Z/J187Bg3NJxEk03efsX3L/JvfrpXVm+OvMWp1eP/rT0kOx1jhuaVGH1zHbnX2Uo09OVe621xtlPdf+hH140X3t0lv7uqplSrXFbeeaiRPDjpO1m48qBUr1xOruiQLwN/MGRoSIX1HrHyQo+6w8ezd9aXkVO3ywdL90vlimXkVx2qyqAe3xtC/m/5QVm1uaghY8mqg7Jp21ETXjLhtnrSpN4JMtfZIUS3a9W8FGoEUb1iLYmMf8mqQzL8hgpObowK8s8/NJTH39gpuuWs5u9o4nipKBs1Zqi3x6wlxUNfYtWNehCAAAQgAAEIQAACEIAABCAAgUgEymzfvt28pRcUxP5LfqSOkn0v7xcrgiJ+2jJP/vXnE6V6lcgv7fqC3v0PG0s0JNjObvp5dfn/HKNAtNLrgU3y7/n7ijzWnUP+eW9DY3wo8uCHiwWOJ8Yv7t0oew4Uz1fxxOB6cuMl1WW285K/yjG0DLi0erEu1LjS5Z6v5Yv1RQ0ZWrGkXUsOO1u69n5wszHwaF3VoTRjQiLjf9IZww3OGEoq417ZIb9/7tuSqphnB94+pdQ6VIAABCAAAQhAAAIQgAAEIAABCFgCGeeRoYp/9PkBaXfrehnihFHoi32jOuVFQzlWbjwsL8/b43gJ7CjiRWEHG+n43H92yfa9x+V3VxZIyyYVg/ktItW1995dtE9+4si/02nTuXVlaeDkxTjseEUs//qwTP1gjzzz753GS8LWj3a866lvZJ2TT+L6btVE80ns2X9c3v/vPhnheHms2RLZm0RlX3jHBrnHCfG48KzKUpBfVgp3HDNhNKOmbZcVm4obP6LJ1/uJjP/mcYWOJ8gB6ecYgc5qWtF4gWjiz91OTg/dcnWiw3S6kyuDAgEIQAACEIAABCAAAQhAAAIQ8JpARnpkeA2B/vwjgEeGf+yRDAEIQAACEIAABCAAAQhAIBMJRI7NyMSRoDMEIAABCEAAAhCAAAQgAAEIQAACWU8AQ0bWTzEDhAAEIAABCEAAAhCAAAQgAAEIZA8BDBnZM5eMBAIQgAAEIAABCEAAAhCAAAQgkPUEMGRk/RQzQAhAAAIQgAAEIAABCEAAAhCAQPYQwJCRPXPJSCAAAQhAAAIQgAAEIAABCEAAAllPAENG1k8xA4QABCAAAQhAAAIQgAAEIAABCGQPAQwZ2TOXjAQCEIAABCAAAQhAAAIQgAAEIJD1BMps3749oKMsKCjI+sEyQAhAAAIQgAAEIAABCEAAAhCAAAQymwAeGZk9f2gPAQhAAAIQgAAEIAABCEAAAhDIKQIYMnJquhksBCAAAQhAAAIQgAAEIAABCEAgswlgyMjs+UN7CEAAAhCAAAQgAAEIQAACEIBAThHAkJFT081gIQABCEAAAhCAAAQgAAEIQAACmU2gfGarj/aZSKCwsFD27t0rderUkWrVqmXiENA5CoGNGzfK0aNHpXbt2pKfnx+lFrchAAEIQAACEIAABCAAAQgkTgCPjMTZ0TIOAnv27JE777zTvODWr19fWrRoIdOmTYujB6pmAoGePXtK06ZNjYGqdevWMmXKlExQGx0hAAEIQAACEIAABCAAgQwigEdGBk1Wpqp65MgR6dy5syxcuDBTh4DecRIIBAKydOlS6dOnj2zdulWGDBkSZw9UhwAEIAABCEAAAhCAAAQgEJkAHhmRuXDXQwJTp04NGjGGDh0qmzdvFn3R7d+/f1QpK1eulEGDBkmzZs2kYsWKUr16dWnfvr2MHz9eDh06FLWdVw/8lq/jWLVqlZx++ulSpkwZ8znzzDO9Gl5M/SQiX41VOj8LFiyQNm3aGDn33XefHD58OCaZVIIABCAAAQhAAAIQgAAEIFAagTLbt28PaKWCgoLS6mbUc83BsG7dumAoQ0Ypn2XK6q/x48aNM+EkaiAorbz11lvSu3dv2b9/f8Sq7dq1k3fffdcYNyJWcHnTb/mq/nvvvWcY7NixIziali1byrJly4LXyTzxQv77778vXbt2NWp+8cUXxiiTTJ3pGwIQgAAEIAABCEAAAhDIDQJZ65GhRoxt27bJ8uXLzSc3pjM9R3n8+HGjWN26dUtVcMOGDSYcQY0YjRs3lokTJ5qX948//lgGDx5sPBPmz58vAwcOLLWvRCr4LV91Vq+T7t27ixoxGjZsaM4TGUuibbySHzrf6oFDgQAEIAABCEAAAhCAAAQg4AWBrDVkhO6YoDH6atCg+ENAw0K07Nq1q1QF9CVavWmqVKkic+fOlb59+4p6ImhYydixY2XEiBGmj+nTp5vQi1I7jLOC3/KHDx9uDDbHjh2TTp06yeLFi+Wcc86JcxSJV/dS/u7du4OK2DUQvMEJBCAAAQhAAAIQgAAEIACBBAlkrSGjSZMmortj2IIxw5JI/bFGjRpG6M6dO0sVPmvWLFOnX79+ctJJJxWrf/fdd5sdMfQX/tmzZxd77vaG3/I1BEOL7vAyc+ZMqVevntshxdXeS/mh840hI65poDIEIAABCEAAAhCAAAQgUAKBrDVk6JhPO+20lBozNCyhWrVqJvyhV69eEbEXFhaafCSawFG3qsyFEo8hQw1OWlq1ahURTYUKFYK5FrZs2RKxjpubfsuvWrWq2ZZ29OjRUr586jcV8lK+9cApV66chHpIuZkf2kIAAhCAAAQgAAEIQAACEMhqQ4ZObyqNGZrTYeTIkWZVvfLKK/Kf//yn2Aq76667RH+p1l+oH3/88WLP3d5o27ZtcJcLu9tFtOOzzz7rVlxM7TVMRMuBAwdKrW93tyjpxdc+s3VL7TSOCrZPKyNSU/vM1o1UJ9F7jz32mFx11VWJNnfdzkv5dr7z8vJc60UHEIAABCAAAQhAAAIQgAAELIGsN2ToQNWY0ahRIztmSWaYyc033ywdO3Y0sm699VY5ePBgUK6GQkyaNMlc6y/umsgxF4omXdVSq1atXBiuqzFWqlTJVXu3jb2Ub+dbE7dao4Zb/WgPAQhAAAIQgAAEIAABCEAgJwwZOs0tWrQwBg075WrMWLVqlb307KjeD88995zor9CrV68Oemjor/e33HKLkdOlSxe56aabPJMZ2tFrr70musVpLJ+rr746tKnn50eOHJElS5bIhAkTTN99+vSJW8bkyZNFQ1PatGkj3333Xdzt3TbwW75b/f1s361bN6lZs6borjX33nuvaFgVu5f4OSPIhgAEIAABCEAAAhCAQHYQyBlDhk6XJv+0+Rr0OjQZoV57VdRoors/aHn44YdlzZo18sgjj5idUypXrizPPPOMV6KK9aOeJyo/lo/m8/C6hIa2aD4LNUDo+G+44YagUScemS+++KLZ7UQNIvPmzYunqSd1/ZbvySB86kRDimbMmGF2nRkzZoz5/pUtWzYY+pSq0Cafho9YCEAAAhCAAAQgAAEIQCBJBHLKkKFbsIYaL0LDTbzme8cdd0i7du1MaInuQPHQQw8ZEX/5y1+kadOmXotL6/7q1KljthBNJGxBt1/VfCK6BaluR5rq4rf8VI/Xa3m6e9DZZ58tmvCTAgEIQAACEIAABCAAAQhAwAsCqd8WwQutE+hDjRh2RwptHp4ENIEuS2yiL24TJ040L+Cvv/66qXv++efL7bffXmK7TH+ooS02L4iG0yxdulSGDBkigwcPNrtw2PCaWMfZu3dv0Y9fxW/5fo3bC7kaRtK9e3dZvHix9OjRQ3TrXPWKUq8MLXXr1vVCDH1AAAIQgAAEIAABCEAAAjlGIOsNGUePHjV5Gvbu3Ruc2mQbMaygM844Q/SjYRFaNEeEfYmzdbw+bty4MWhIKK1vfZH0Orwk3MtFx7927VqTI2HcuHHBPCGl6cbzzCfw4YcfGiOGjkTzxmC4yPw5ZQQQgAAEIAABCEAAAhBIBwJZbcjw04ihk6vbq6oR44QTThBNfPnAAw8Y74J69eolbe579uwpixYtiql/zdXRv3//mOq6qWRDadatW+emG9pmGAE1YGnRvDAYMTJs8lAXAhCAAAQgAAEIQAACaUwga3Nk+G3E0Jf23//+92bqR4wYYRIebt++PSc9EnQutOjuFaUVTRCqJdSDJryNfZZIzo3wvsKv/ZYfrk8mXx87dsyob4+ZPBZ0hwAEIAABCEAAAhCAAATSh0DWemTo1qr2hVdxpyqcxE7tgAEDjPxTTz3V5Iho1aqVXHrppfLKK6/I9OnT5aqrrrJVPT0uXLjQ0/686GzXrl2mG03aWVrRHApbtmyRzz77LGJVzbvx5ZdfmmcnnnhixDqhN6dMmWJ2i9F7Z511lvTq1Sv0cbFzv+UXU8jljXjH71JckeY2bOnQoUOi82aNREUqcQEBCEAAAhCAAAQgAAEIQCBOAlnrkRHKIdVGDA3ZmDlzptlm8qmnnpKKFSuapIc2aeWtt94q27ZtC1Uxq8/jMWR07tzZsNBEqevXry/GZdSoUbJ7927DtkuXLsWeh98YNmyYCenRsB59oS6t+C2/NP3ifR7v+OPtv6T6oYYrnTMKBCAAAQhAAAIQgAAEIAABLwhkrUdGixYtJD8/X2rUqGGOXsCKpQ9Ntvm73/3OVO3Xr1+RLUM12eU777wj33zzjdm9ZPLkybF0mfF14jFk3HbbbfLkk0/Kvn37pGPHjsYIcd5558mePXtEvQvGjx9veGji1MaNG5fI5uuvvxabl6NWrVqlemNoZ37LV+PNjh07ioyrsLDQXOtuMDZxrK2gnj7REsgmMn4v5VuPDNVVDRm1a9e2anOEAAQgAAEIQAACEIAABCCQMIGsNWSUL19ewnfQSJhSHA0HDhxoXto0oad6D4QWvTdy5EgZNGiQ/POf/5RrrrlGLr/88tAqWXmuRgkteXl5pY7vpJNOMgYL9V7ZsGGD9O3bt1ib9u3byxNPPFHsfviNOXPmBG9df/31xjMmeCPKid/yhw4dKlOnTo2o3erVq6VNmzZFnqmBRw12kUoi4/dSfuh82zUQSU/uQQACEIAABCAAAQhAAAIQiIdAToSWxAPETd0XXnhBZsyYYboYO3asFBQUFOtOc2d06NDB3L/55puL/fperEEW3FCvGC1r1qwxuRJKG1KPHj2M54GyatKkicmtULNmTbngggtkwoQJMnfu3Ji2jQ19kde+Yi1+y49Vz9LqJTr+0vqN9flXX30VrFq1atXgOScQgAAEIAABCEAAAhCAAATcECjj7KQR0A4ivXS76Zi2ELAE9IX6oosuMpdXXHGFSX7asGFDsyVnaPiBre/VUROtrlixwhiO5s2b51W3MfeTi/I1tErDSDQE5p577pFNmzZJ8+bNRZPvUiAAAQhAAAIQgAAEIAABCHhBAI8MLyjSR4kEOnXqFAwRefXVV03ekJNPPlmmTZtWYjs3D7du3WqMGNqHhvukuuSq/J49e5qthq+99lpjxNBEt5rzhAIBCEAAAhCAAAQgAAEIQMArAhgyvCJJPyUS0F1I9KPhIdFyOpTYQZwPNfxEi4a1XHnllXG2dl89l+WXK1dOGjRoYHLAzJ8/X7p27eoeKD1AAAIQgAAEIAABCEAAAhD4gUDWJvtkhtOPgCbujJS8Mxma2vwQ1113XUxJRr3WIVflL1y40GuU9AcBCEAAAhCAAAQgAAEIQKAIAXJkFMHBBQQgAAEIQAACEIAABCAAAQhAAALpTIDQknSeHXSDAAQgAAEIQAACEIAABCAAAQhAoAgBDBlFcHABAQhAAAIQgAAEIAABCEAAAhCAQDoTwJCRzrODbhCAAAQgAAEIQAACEIAABCAAAQgUIYAhowgOLiAAAQhAAAIQgAAEIAABCEAAAhBIZwIYMtJ5dtANAhCAAAQgAAEIQAACEIAABCAAgSIEMGQUwcEFBCAAAQhAAAIQgAAEIAABCEAAAulMAENGOs8OukEAAhCAAAQgAAEIQAACEIAABCBQhACGjCI4uIAABCAAAQhAAAIQgAAEIAABCEAgnQmUT2fl0C07CRQWFsrevXulTp06Uq1atewcJKPyhcDGjRvl6NGjUrt2bcnPz/dFB4RCAAIQgAAEIAABCEAAAsklgEdGcvnS+w8E9uzZI3feead5waxfv760aNFCpk2bBh8IeEqgZ8+e0rRpU2Mga926tUyZMsXT/ukMAhCAAAQgAAEIQAACEPCfAB4Z/s9B1mtw5MgR6dy5syxcuDDrx8oA04NAIBCQpUuXSp8+fWTr1q0yZMiQ9FAMLSAAAQhAAAIQgAAEIAAB1wTwyHCNkA5KIzB16tSgEWPo0KGyefNm0RfN/v37l9bU1fNVq1bJ6aefLmXKlDGfM88801V/qW7sp/4rV66UQYMGSbNmzaRixYpSvXp1ad++vYwfP14OHTqUdBSJyldjmeq3YMECadOmjdHzvvvuk8OHDyddZwRAAAIQgAAEIAABCEAAAqkhUGb79u0BFVVQUJAaiSmSojkY1q1bFwxlSJFYxEQgoL+Gjxs3zoST6AtqKsp7770nvXv3lh07dgTFtWzZUpYtWxa8TucTP/V/6623DLv9+/dHRNSuXTt59913jXEjYgWXN72S//7770vXrl2NNl988YUxarlUjeYQgAAEIAABCEAAAhCAQBoQyFqPDDVibNu2TZYvX24+acA6Z1U4fvy4GXvdunVTwkC9Brp3726MGA0bNjTnKRHskRA/9d+wYYMJx1AjRuPGjWXixInG+PPxxx/L4MGDjWfL/PnzZeDAgR6Ntmg3XsoPXW/qAUSBAAQgAAEIQAACEIAABLKDQNYaMkJ3LNAYeTVoUPwhoGEJWnbt2pV0BYYPH25euI8dOyadOnWSxYsXyznnnJN0uV4J8Ft/NaKoN1OVKlVk7ty50rdvX1FPFg0rGTt2rIwYMcIMdfr06aKhL14XL+Xv3r07qJ5dg8EbnEAAAhCAAAQgAAEIQAACGUsgaw0ZTZo0Ed0dwxaMGZZE6o81atQwQnfu3Jl04RpCoEV3SJk5c6bUq1cv6TK9FOC3/rNmzTLD6devn5x00knFhnb33XebHUHUw2H27NnFnru94aX80PWGIcPtzNAeAhCAAAQgAAEIQAAC6UMgaw0Zivi0005LqTHj+eefDyaWLGmHjmHDhpl6VatWlWh5CNJnibjXJJWGDGWq27qOHj1aypfPvE15/NZfDX5aWrVqFXHiK1SoEMw1sWXLloh13Nz0Ur71ACpXrpyEemi50Y+2EIAABCAAAQhAAAIQgID/BLLakKF4U2nMuOqqq4xLvsqdNGmSHiKWf/3rX+b+L3/5S6lcuXLEOonebNu2bdCYYnfriHZ89tlnExUTVzsNU9By4MCBuNolUvmxxx4TnYdMLX7rb3f3KOnF3z6zdb1kbfu0MiL1bZ/ZupHq6D273vLy8qJV4T4EIAABCEAAAhCAAAQgkIEEst6QoXOixoxGjRoFpydZYSb6gtWrVy8jZ8qUKaJ5GsLLkiVLxO7c8etf/zr8cVZea9JVLbVq1Ur6+CpVqpR0GckUkOn6J5NNvH3b9aZeT9aoEW8f1IcABCAAAQhAAAIQgAAE0o9AThgyFHuLFi2MQcNOgRozkpGs8IYbbjAitH8b729l6lGTJGqpXbu2XHLJJebcy/+89tprxlCixpLSPldffbWXoov1deTIEVHDzYQJE8yzPn36FKvDjfQmMHnyZNHQoDZt2sh3332XcmXdyO/WrZvUrFlTdNece++9VwoLC4XdS1I+hQiEAAQgAAEIQAACEICA5wQyL4mACwSa/FMNDDYJoD266LJY04svvtgkSVy/fr3oS5i+TIWWl19+2VyqESEZORxCPU9C5abqXENbFi1aVESc5lVQA8/IkSOL3I92obtm6DxFK2XLlpVmzZpFe+z7/UzXPxTgiy++aHabUYPUvHnzpGfPnqGPk37uRr6GNM2YMUM0cemYMWPMJ1ThZ555Rvr37x96i3MIQAACEIAABCAAAQhAIAMI5JQhQ7dgDTVeJOOlX/NRXHfddfLggw/KK6+8Ik888YTYcIHPPvtMVqxYYZZFroSV6GDr1KljtkC1HEr7XqhXiTKMVvQFVY0F6VoyXf9Qrrr96qeffirNmzc329mGPkvFuVv5unvR2WefbbZfjhTqlYoxIAMCEIAABCAAAQhAAAIQ8JZAzoSWqBEj9Ff+8CSgXmK98cYbTXe7d++WN998M9i1DSvRbS0vuOCC4P1sOgkNbfn888+NV4qGmAwePFgef/zxbBpqToyld+/exvinXjYFBQUpH7Mb+RpG0r17d7MG9Thnzhz56quvgiFXyQ6tSjksBEIAAhCAAAQgAAEIQCBHCGS9R8bRo0dNnobQX/CTacTQdaO/Xnfo0EE+/PBDs3uJ3UXDhpVorgj13EhG2bhxoxw8eDCmruvWrSvVqlWLqW6slcK9XM444wxZu3atyVEwbtw4ueWWW0rt6je/+Y3oJ1NLpuufqdzD9dbv3+LFi83t5557TnS9UyAAAQhAAAIQgAAEIACBzCeQ1YYMP4wYdkloTgh9kdIY/R07dogaGNQrREsyw0o0h0F4jgqrU/gxVTkCmjZtakSvW7cuXAWuIZA0AmpA06JbHGPESBpmOoYABCAAAQhAAAIQgEDKCWRtaImfRgydRXVbz8vLk8OHD5tcGa+++qqZ3LPOOkv0k0tF50KL7h5BSW8CmphVS6gHU7jG9lmsOU/C25d07aV8mxPDHkuSyzMIQAACEIAABCAAAQhAIHMIZK1Hhm6tal+4dDqSHU4SPuUasnHFFVeY+HzNk/HNN9+YKsn0xlABCxcuDFfF9+tdu3YZHapXr+67LvEqMGXKlKAnjRqgevXqFW8XvtaPV3/d2WfLli2iiWkjFTXMffnll+bRiSeeGKlKkXt+yrdhU4cOHTIGRWskKaIgFxCAAAQgAAEIQAACEIBAxhHIWkNG6Eyk2ohhZWvST92CVZMM7tu3z+TF0PwYuVYy2ZAxbNgwsSExkyZNyripi1f/zp07y3//+1+ZOHGi3HXXXWYr4dBBjxo1SjSJreZ46dKlS+ijiOd+yg81nKnOtWvXjqgjNyEAAQhAAAIQgAAEIACBzCKQtYaMFi1aSH5+vtSoUcMc/ZgWfdHT5JeaH0PLT3/602Ivhn7olWqZqTRkrF+/3uQkCR1jYWGhudQkqEuWLAl9JK1atZKyZSNHWH399ddBI0atWrVS4o3ht/633XabPPnkk8bw1rFjR3nggQfkvPPOkz179oh6V4wfP97wU4Nc48aNi7AMv0iEn5fyrUeG6oUhI3x2uIYABCAAAQhAAAIQgEDmEshaQ0b58uWNEcHPqdEX5Ouuu04eeugho0ayw0r8HGtJstUbRYvmDEl2GTp0qEydOjWimNWrV0ubNm2KPNMXdDV4RSrqSWPL9ddfLxUrVrSXSTv6rb9uDawGC932dMOGDdK3b99iY23fvr088cQTxe6H30iEn5fyQ9ebXYPhOnINAQhAAAIQgAAEIAABCGQegcg/RWfeONJW42bNmhnd1LCiCUBzsahXjJY1a9aYXAWZwiD0RXzAgAGZonZQz0T179Gjh/Fc0TE3adJENLdEzZo15YILLpAJEybI3LlzY9q212/5X331VZBF1apVg+ecQAACEIAABCAAAQhAAAKZTaDM9u3bAzqEgoKCzB5JmmqvOQdmz54tl156qbz99ttpqmVy1dIX2osuusgI0QSoQ4YMkYYNG5otMUPd/5OrRfy9n3rqqbJixQrp0KGDzJs3L/4OfG7ht/5+yNcwLg0j0RCie+65RzZt2iTNmzcXTf5LgQAEIAABCEAAAhCAAASygwAeGUmcR80RYH+VztWwEsXbqVOnYIiCbkOr1yeffLJMmzYtifTddb1161ZjxNBeBg4c6K4zH1r7rb9f8nv27CktW7aUa6+91hgxNBxIc35QIAABCEAAAhCAAAQgAIHsIYAhI4lzqbtcHD9+XCpXriz6gpXLRXfB0I+GJ0TLSZFOfDR8QouGxVx55ZXppFpMuvitv5/yy5UrJw0aNJBrrrlG5s+fL127do2JGZUgAAEIQAACEIAABCAAgcwgkLXJPtMB/z/+8Q+jxuWXXy5VqlRJB5V81UETR0ZKHumrUlGEW08aTdYamjQySvW0u+23/n7JX7hwYdrNBQpBAAIQgAAEIAABCEAAAt4SIEeGtzyDvS1evFjOPfdcc/3GG2/IZZddFnzGCQQgAAEIQAACEIAABCAAAQhAAAKJEcCQkRg3WkEAAhCAAAQgAAEIQAACEIAABCDgAwFyZPgAHZEQgAAEIAABCEAAAhCAAAQgAAEIJEYAQ0Zi3GgFAQhAAAIQgAAEIAABCEAAAhCAgA8EMGT4AB2REIAABCAAAQhAAAIQgAAEIAABCCRGAENGYtxoBQEIQAACEIAABCAAAQhAAAIQgIAPBDBk+AAdkRCAAAQgAAEIQAACEIAABCAAAQgkRgBDRmLcaAUBCEAAAhCAAAQgAAEIQAACEICADwQwZPgAHZEQgAAEIAABCEAAAhCAAAQgAAEIJEagfGLNaAUBCCRKoLCwUPbu3St16tSRatWqJdoN7dKQwMaNG+Xo0aNSu3Ztyc/PT0MNUQkCEIAABCAAAQhAAAKZTwCPjMyfQ0aQAQT27Nkjd955p3nBrV+/vrRo0UKmTZuWAZqjYjwEevbsKU2bNjUGqtatW8uUKVPiaU5dCEAAAhCAAAQgAAEIQCAGAnhkxACJKhBwQ+DIkSPSuXNnWbhwoZtuaJtBBAKBgCxdulT69OkjW7dulSFDhmSQ9qgKAQhAAAIQgAAEIACB9CaAR0Z6z4/n2q1bt07KlCljPrG8WH/88cfSrFkz4yY/dOhQz/XJhQ6nTp0aNGIow82bN4u+6Pbv3z/q8FeuXCmDBg0y7CtWrCjVq1eX9u3by/jx4+XQoUNR23n1wG/5Oo5Vq1bJ6aefHlyvZ555plfDi6mfROTrd0rnZ8GCBdKmTRsj57777pPDhw/HJJNKEIAABCAAAQhAAAIQgEDpBLLWkKE5CJYtW2Z+DS0dAzWiEXjppZdk7dq1sm/fPhk9erQcP348WlXuRyFgDUYaTvLwww9LgwYNotT8/vZbb70lGpbw9NNPG/b6Erx792759NNPZfDgwdKxY0fZtWtXiX24eei3fNX9vffek3bt2sny5cvdDCXhtm7kV6hQQdq2bSujRo0y8jWsaPXq1QnrQkMIQAACEIAABCAAAQhAoCiBrDVkqOfBtm3bzIuQXy9DRVFn5tW1114rJ510klSpUsW4x5ctm7VLJmkTZI0/devWLVXGhg0bTDjC/v37pXHjxjJx4kRjkFPPGDViqDfN/PnzZeDAgaX2lUgFv+Wrzup10r17d9mxY4c0bNjQnCcylkTbeCU/dL7VA4cCAQhAAAIQgAAEIAABCHhDIGvfSkN3DNAYdYwZiS2YDh06iBqF1MPlkUceSayTHG+lYSFaYvGi0JdoZa2Go7lz50rfvn2lZcuWJqxk7NixMmLECNPX9OnTTeiFufDwP37LHz58uDHYHDt2TDp16iSLFy+Wc845x8MRltyVl/LVi8YWuwbsNUcIQAACEIAABCAAAQhAIHECWWvIaNKkiejuELZgzPiehP6iT0ktgRo1ahiBO3fuLFXwrFmzTJ1+/foZT5jwBnfffbfZEUN/4Z89e3b4Y9fXfsv/4osvzBh0h5eZM2dKvXr1XI8png68lB863xgy4pkF6kIAAhCAAAQgAAEIQKBkAllryNBhn3baaSk1ZqhbfrVq1Yz7f69evSKSLywslIKCAlNHt2pMVtFf7C+44AKTpLNOnTrSo0cPs4tCaaEhmuDQJgMNP954442lqrtx48Zge81R8tFHH5kdO/RlvmrVqnLhhReK6pZLJR5DhhrctLRq1SoiIs2/oAkwtWzZsiViHTc3/Zava0S3pdV8LOXLp35TJS/lWw+ccuXKme+hm3mhLQQgAAEIQAACEIAABCDwI4GsNmToMFNpzNCcBiNHjjR0X3nlFfnPf/7zI+kfzu666y7RX2r1F9rHH3+82HMvbqh7/NVXXy2ffPKJSdKpuULefvttY0RIZYiNbj/ZrVs34zmgL3UaMvHhhx8a3XQnh2QUTbIYboCJdv3ss88mQ4VifWqYiJYDBw4UexZ+w+5uERoaFV7HPrN1w5+7ubZ9WhmR+rLPbN1IdRK999hjj8lVV12VaHPX7byUb+c7Ly/PtV50AAEIQAACEIAABCAAAQj8SCDrDRk6VDVmNGrUKDjqZIaZ3HzzzWZXCRV26623ysGDB4NyNRRg0qRJ5lp/cdZEhl4XNR7cf//9plsNrdGdLzTPwDvvvCNdu3aVRx99tESRmthTt94M/agXRSJFd20499xz5Y033pAlS5bI5MmTpXnz5qarBx980BhaEuk309qoIUlLrVq1Mk31lOtbqVKllMsMFeilfDvfmrjVGjVCZXEOAQhAAAIQgAAEIAABCCRGIPW+24np6bqVbn2pvyRbjwQ1Zqjrut73suiv/88995wJDdAtF9VD489//rPor9e33HKLEdWlSxe56aabvBQb7OvFF18UzZ+gIQhz5syRU045JfjskksukV/96lfB60gnJ5xwQjEmlStXjlQ1pnsffPCBqGu9lrPPPtuEmZx88smiW1KqR0T79u1j6ifWSq+99loR41FJ7UJ3lSipXqLPjhw5Ip9//rlMmDDBdNGnT5+4u1Ljj66bpk2bmpwR9uU47o4SbOC3/ATVTotm6o1Us2ZN2b59u9x7770ydOhQ0TWnfyMoEIAABCAAAQhAAAIQgEDiBHLCI8PiUQ8Fm69A74Um47N1vDiqcUTDO7Q8/PDDsmbNGrPjhxpR1CjwzDPPeCEmYh/qkaFFX6JCjRi28oABA+xp0o+//e1vg0YMK0yTN9r8IYsWLbK3PTuq543yj+Wj+Uy8LqGhLWpMatOmjZn/G264IRh2FI9MNUxpWI56tMybNy+epp7U9Vu+J4PwqRMNKZoxY4bZdWbMmDEmX4/mqLGhTqkKbfJp+IiFAAQgAAEIQAACEIBA0gjklCFDDQmhxovQcBOvCd9xxx3Srl074x2gOzA89NBDRsRf/vIX8+u61/Jsf3bLRxvCYe/bY7T79rmXR/W8iFSsDjt27Ij0OOvuabJV3UI0kbAF3X5V86loe92ONNXFb/mpHq/X8nT3JPVEsl5JXvdPfxCAAAQgAAEIQAACEMhFAjkTWqJGDLsjg050eBJQrydfX1wmTpxoXkBff/110/35558vt99+u9eiivR3/Phxc60hIpGKegmkqkR7cVePDH3Bs0kwU6VPKuSEhrZoOJF6yAwZMkQGDx5sQplseFGsuvTu3Vv041fxW75f4/ZCroZ4de/e3eSo0V2DdOtc9QqzOwclO7TJizHQBwQgAAEIQAACEIAABNKRQNYbMo4ePWrc8nXHDFuSbcSwcs444wzRj4YFaNEcCfYlxtbJxaNuH2q3EPV6/Lr9a2iC1ZL61xdJr8NLwr18dP7Xrl1rciSMGzcumCelJL14lh0EdIceTbSrRfPmYLjIjnllFBCAAAQgAAEIQAAC/hPIakOGn0YMnVrdXlWNGOodoYkfH3jgAfPruuaJoCSHQM+ePSXW3Buaq6R///7JUSSkV03UqWXdunXmyH9yg4AasLRoXhyMGLkx54wSAhCAAAQgAAEIQCA1BLI2R4bfRgx9af39739vZnHEiBEm4Z/uXhBvaEG8y8B6fKjhJFLRcAdKagnoWtRiw35Kkm5Df0I9iMLr22fRQnfC68dz7bf8eHRN97rHjh0zKtpjuuuLfhCAAAQgAAEIQAACEMgUAlnrkbFq1SqxL3w6GakKJ7ETr7uDqPxTTz3V5Eho1aqVXHrppfLKK6/I9OnT5aqrrrJVPT1qYkgtuvVrpBLtfqS6mXhv4cKFaae27jqixc5NSQpqDoUtW7bIZ599FrGaGqK+/PJL8+zEE0+MWCf05pQpU4JbDp911lnBHWNC64Se+y0/VBcvzuMdvxcybR82bOnQoUNm+2VrJLLPOUIAAhCAAAQgAAEIQAACiRHIWo+MUBypNmJoyMLMmTPNNotPPfWUVKxY0ST9s0kbb731Vtm2bVuoip6d6w4JWlT+ypUri/Wr4S6U1BKIx5DRuXNno5wmil2/fn0xRUeNGiW6M41u4dmlS5diz8NvDBs2zIQ0aViTvlCXVvyWX5p+8T6Pd/zx9l9S/VDDld1NqKT6PIMABCAAAQhAAAIQgAAEYiOQtR4ZLVq0kPz8fKlRo4Y5xobDfS1NNvm73/3OdNSvX78iW2Zqssd33nlHvvnmG7N7yeTJk90LDOvh+uuvl0cffdS8tF588cXmJVa37lTDyRNPPCHffvttWIuil5GSZe7fv99U2rNnj6inS2jRrUVDX9hCn3H+PYF4DBm33XabPPnkk7Jv3z7p2LGjmb/zzjtPlL16F4wfP950qoljGzduXCLir7/+OpiXo1atWqV6Y2hnfstX4034tryFhYVmnJrE1SbOtQNXTycbTmXv2WMi4/dSvvXIUH3UkFG7dm2rGkcIQAACEIAABCAAAQhAwA0BJ29DQD8Ubwg42y0GnPkIOAk9I3J1PDTMc63jbMvqjdCwXoYPHx6UoXLsx8mpEJg6dWrwesGCBWEtA4Fzzz03+Ny2K+k4ZsyYIn04L4/B9p988kmRZ7l64eRFMUwuuOCCmBC8+eabASdBZJBjOP/27dsHHONIqX299NJLwT7uuOOOUuvbCn7Kd7yWgjqHjzvStWPgsWoXOyYyfi/lO+FBwbHoOQUCEIAABCAAAQhAAAIQ8IZAToSWOC9AKSkvvPCCzJgxw8gaO3asFBQUFJOruTM6dOhg7t98883Ffn0u1iCBG3/6059k2rRp4rzwmh0TatasKd26dZNZs2ZJu3btEuiRJm4IqFeQljVr1phcCaX11aNHD+N5oGulSZMmorkVdA4dQ4hMmDBB5s6dG9O2sXPmzAmK0r5iLX7Lj1XP0uolOv7S+o31+VdffRWsWrVq1eA5JxCAAAQgAAEIQAACEICAOwJl1BtDu4j00u2ua1rHS0BDEEoL/Qjvs3nz5iZfQvh9rtOHgL5QX3TRRUahK664wiR/bdiwodmSMzT8wGuNNdHsihUrjOFs3rx5Xndfan+5KF9DszSMRENg7rnnHtm0aZPodzQ8JKtUeFSAAAQgAAEIQAACEIAABKISyNocGVFHnMYPnn/+eXFCAOLSUHMnaC4QSvoS6NSpk/Tt21d0fl999VXzUW01KWz//v2TovjWrVuNEUM7HzhwYFJklNRprsrv2bOnLFq0KIhGE/1qzhMKBCAAAQhAAAIQgAAEIOAdAUJLvGNJTxCISkB3IdGPhoekwvCk4SdaNKzlyiuvjKpXsh7ksvxy5cpJgwYN5JprrpH58+dL165dk4WZfiEAAQhAAAIQgAAEIJCTBPDISKNpHzJkiAk7SCOVUMVDAuqVoZ9UFJsf4rrrrpO8vLxUiCwiI1flL1y4sAgHLiAAAQhAAAIQgAAEIAAB7wmQI8N7pvQIAQhAAAIQgAAEIAABCEAAAhCAQJIIEFqSJLB0CwEIQAACEIAABCAAAQhAAAIQgID3BDBkeM+UHiEAAQhAAAIQgAAEIAABCEAAAhBIEgEMGUkCS7cQgAAEIAABCEAAAhCAAAQgAAEIeE8AQ4b3TOkRAhCAAAQgAAEIQAACEIAABCAAgSQRwJCRJLB0CwEIQAACEIAABCAAAQhAAAIQgID3BDBkeM+UHiEAAQhAAAIQgAAEIAABCEAAAhBIEgEMGUkCS7cQgAAEIAABCEAAAhCAAAQgAAEIeE8AQ4b3TOkRAhCAAAQgAAEIQAACEIAABCAAgSQRKJ+kfukWAhCIQqCwsFD27t0rderUkWrVqkWpxW0IxE9g48aNcvToUaldu7bk5+fH3wEtIAABCEAAAhCAAAQgkAEE8MjIgElCxcwnsGfPHrnzzjvNC2b9+vWlRYsWMm3atMwfGCNIKwI9e/aUpk2bGgNZ69atZcqUKWmlH8pAAAIQgAAEIAABCEDACwJ4ZHhBkT4gUAKBI0eOSOfOnWXhwoUl1OIRBLwjEAgEZOnSpdKnTx/ZunWrDBkyxLvO6QkCEIAABCAAAQhAAAI+E8Ajw+cJSLX4devWSZkyZcwnlhfrjz/+WJo1a2bc1IcOHZpqdbNC3tSpU4NGDGW4efNm0RfN/v37J3V8q1atktNPPz0432eeeWZS5XnduZ/6r1y5UgYNGmTWfsWKFaV69erSvn17GT9+vBw6dMjroRbrL1H5+p1W/RYsWCBt2rQx/d53331y+PDhYjK4AQEIQAACEIAABCAAgUwlkLWGDM1BsGzZMvNrZKZOTjro/dJLL8natWtl3759Mnr0aDl+/Hg6qJVROliDkYaTPPzww9KgQYOk6//ee+9Ju3btZPny5UmXlQwBfur/1ltviYZlPP3002btqxFg9+7d8umnn8rgwYOlY8eOsmvXrmQM2/TpVn6FChWkbdu2MmrUKNOfhjWtXr06afrSMQQgAAEIQAACEIAABFJNIGsNGep5sG3bNvMil6kvc6leDJHkXXvttXLSSSdJlSpVjHt62bJZu2QiDd+Te9b4U7duXU/6K60T9Rro3r277NixQxo2bGjOS2uTTs/91H/Dhg0mHGP//v3SuHFjmThxojGIqmeSGjHUm2n+/PkycODApCDzUn7oelMPIAoEIAABCEAAAhCAAASyhUDWvpWGZuzXGHGMGYkt2Q4dOogahdTD5ZFHHkmskxxvpWEJWpL5K75FPHz4cPPCfezYMenUqZMsXrxYzjnnHPs47Y9+669GFF3raribO3eu9O3bV1q2bGnCSsaOHSsjRowwDKdPny4a+uJ18VK+epHYYtegveYIAQhAAAIQgAAEIACBTCaQtYaMJk2aiO4OYQvGjO9J6C/KlNQSqFGjhhG4c+fOpAv+4osvjAzdIWXmzJlSr169pMv0UoDf+s+aNcsMp1+/fsYTKXxsd999t9kRRD0cZs+eHf7Y9bWX8kPXG4YM11NDBxCAAAQgAAEIQAACaUQgaw0Zyvi0005LqTHj+eefDyZWtHkRIs31sGHDTL2qVauKurAno+gvxhdccIFJ0lmnTh3p0aOH2cWgtNAQ/ZXZJgMNP954442lqrpx48Zge81R8tFHH5kdO/RlXsd74YUXiuqWSyWVhgxlrNu6aj6T8uUzb1Miv/VXg6eWVq1aRVyimn9CE6hq2bJlS8Q6bm56Kd96AJUrV878HXCjF20hAAEIQAACEIAABCCQTgSy2pChoFNpzLjqqquMS7rKnTRpkh4iln/961/m/i9/+UupXLlyxDpubqp7/tVXXy2ffPKJSdKpuULefvttY0RIZYiNbv/YrVs388u1vlSpy/6HH35odNOdFJJRNMlhuAEm2vWzzz6bDBWK9alhCloOHDhQ7JnXNx577DHRdZipxW/97e4eoaFp4SztM1s3/Lmba9unlRGpL/vM1o1UR+/Z9ZaXlxetCvchAAEIQAACEIAABCCQkQSy3pChs6LGjEaNGgUnKFlhJvqC0atXLyNnypQponkKwsuSJUtEt1bU8utf/zr8setrNR7cf//9ph8NrdGdFzRPwjvvvCNdu3aVRx99tEQZmthT9Qv9qBdFIkV3TTj33HPljTfeEB335MmTpXnz5qarBx980BhaEuk309qoIUlLrVq1kq56pUqVki4jmQIyXf9ksom3b7ve1OvLGjXi7YP6EIAABCAAAQhAAAIQSEcCmed7niBF3fpSDQ3WI0GNGep6r/e9LDfccIO8+OKLZttXjXdXj4TQYsMqateuLZdccknoI0/OVbbG76sL/Jw5c+SUU04J9qvyfvWrXwWvI52ccMIJxZi48Rr54IMPRF3btZx99tkmzOTkk08W3RJSPSLat28fSY2E77322mty8ODBmNqH7uoQU4M4Kx05ckQ+//xzmTBhgmnZp0+fOHugut8E1Ph2yy23SNOmTU3OEWscSJVebuTr356aNWvK9u3b5d5775WhQ4eKrnn1UKJAAAIQgLvsf04AAEAASURBVAAEIAABCEAgkwnkjCFDJ0k9FNSAYZPg2aOXE3jxxRebJIHr1683HgjhhoyXX37ZiNPQj2TkMFCPDC0qN9SIYW46/xkwYIC8+uqr9jKpx9/+9rdBI4YVpMkn1WvlhRdekEWLFtnbnh1DPW886zSOjjS0JXxcalRSA9fIkSNj6klDcGyuhEgNNM9Js2bNIj1Ki3uZrn8oRDUMaliUehTNmzdPevbsGfo46edu5GtI04wZM0QTl44ZM8Z8QhV+5plnpH///qG3OIcABCAAAQhAAAIQgEBGEMgpQ4Z6Y4QaL5Lx0qu/dl533XWioROvvPKKPPHEE2Ld5T/77DNZsWKFWRjJCCvRju2WizaEI3wVRrsfXs+La/W8iFSsDjt27Ij0OOvuabJV3QLVroPSBqheJbqGohV9QVVjQbqWTNc/lKtuv/rpp5+akCjdzjbVxa183b1JPaH0b1+kULdUjwd5EIAABCAAAQhAAAIQ8IJAzhgy9H/kQ3/lDk8C6gVM24fu7qGGDDUqvPnmm8HkizasRPNQ6I4iySjHjx833WqISKSi3gGpKtFe3NUjQ1+wbBLMVOmTCjmhoS2ajFE9ZIYMGSKDBw82HjgapkDJHAK9e/cW/fhV3MjXELPu3bubHDm6a5FuHateaXbnomSHVvnFDLkQgAAEIAABCEAAAtlPIOsNGUePHjVu4aG/YCfTiKFLRj0OOnToYHbo0N1L7C4SNqxEcyXkcpy6bl9pt7D0+ium27/GkyOjWrVqnqoQ7uVzxhlnyNq1a02OgnHjxpl8C6UJ/M1vfiP6ydSS6fpnKvdwvXWHIE30q+W5554z+THC63ANAQhAAAIQgAAEIACBTCSQ1YYMP4wYdhFoTgR9kdAYdQ2h0Bdsm2g0WWElVnYuHzWHQXiOimg8UpUjQBNFalm3bp058h8IpIKAGtC0aLJevC9SQRwZEIAABCAAAQhAAAKpIpC126/6acTQydNknnl5eaLhBZorwybYPOuss0Q/ySrWbVx3zIhUVB9KagnoWtRiw35SKx1p8RCwoVehHlzh7e2zaKFT4fXjufZSvs2JYY/x6EFdCEAAAhCAAAQgAAEIpDOBrPXIWLVqVZGEiMkOJwmfZA1ZuOKKK8zOJZon45tvvjFVku2NUb16dSNn9erV4SqVeD9i5Qy8uXDhwrTTWne90GLnJu0ULEGhKVOmBD2J1ACn+U0yqcSrv+aQ2LJli2hi3khFDYFffvmleXTiiSdGqlLknp/ybdjUoUOHjEHVGkmKKMgFBCAAAQhAAAIQgAAEMpBA1npkhM5Fqo0YVrYm/dQyZ84c0RdszYuh+TGSWXSHAi0zZ86UlStXFhP1+OOPF7vHjeQSyGRDxrBhw+SBBx4wH30hzrQSr/6dO3c2Q5w4caLoFsrhZdSoUSaJr36Xu3TpEv642LWf8kMNZ3Y3o2IKcgMCEIAABCAAAQhAAAIZSCBrPTJatGgh+fn5UqNGDXP0Y270RUeTP2p+DC0//elPRXcsSWa5/vrr5dFHHxV96bz44ovNC6hu/blt2zazFey3335bovhIyTL3799v2uzZs0fU0yW06NaioS9Moc84/55AKg0Z+vIdvq1tYWGhUUSToC5ZsqTItLRq1Sq4i0WRB87F119/HczrUatWrZR4Y/it/2233SZPPvmk7Nu3Tzp27Gi+P+edd57o2lfvivHjxxtMapBs3LhxOLIi14nw81K+9chQpdSQUbt27SL6cQEBCEAAAhCAAAQgAIGMJbB9+/aAfijJIeD8IhtwFof5TJgwITlCwnodPnx4UKaVrUcnpj8wderU4LMFCxaEtQwEzj333ODz0LbRzseMGVOkD+flLdj+k08+KfIsVy+cLVcNE2fL3aQjcLbrDPKPNmeh950X9Kg6vfTSS8G+7rjjjqj1vHyQDvo7oWABJ0FmcOyhvPS8ffv2Acc4VeqwE+XnlXwnPCY4Bj2nQAACEIAABCAAAQhAIFsI5ERoifPy4Vtp1qyZkV2+fHmTADQVivzpT3+SadOmifPCZXYsqFmzpnTr1k1mzZol7dq1S4UKyAghoF5BWtasWWNyFYQ8SutTDYmyZcCAAfY0Y46J6t+jRw/juaJjbtKkiWhuCf0OOYYocYyRMnfuXAn1dogGxG/5X331VVC1qlWrBs85gQAEIAABCEAAAhCAQKYTKKPeGDqIgoKCTB9LWuqvMfezZ8+WSy+9VN5+++0SddQQhNJCP8I7aN68ucm9EX6f6/QhoC+0F110kVFIE8AOGTJEGjZsaLbEjOWF2K+RnHrqqbJixQrp0KGDzJs3zy81Epbrt/5+yNfQMA0j0RCie+65RzZt2iT6NyI8JCxhqDSEAAQgAAEIQAACEIBAGhDI2hwZacDW5Biwv8rGslvJ888/L44Lf1yqa+y+5gKhpC+BTp06Sd++fUXnV7fhtVvxPvPMM9K/f/+0VHzr1q3GiKHKDRw4MC11LEkpv/X3S37Pnj1l0aJFQTQVK1Y0OT+CNziBAAQgAAEIQAACEIBAFhAgtCSJkzhp0iQ5fvy4Ce/QFwxK7hLQXTD0o+EJmWB40vAJLRoWc+WVV2bcxPmtv5/yy5UrJw0aNJBrrrlG5s+fL127ds24+UNhCEAAAhCAAAQgAAEIlEQAj4yS6Lh89o9//MP0cPnll0uVKlVK7U1DDvRDyU4C6pWhn0wo1pPouuuuk7y8vExQuYiOfuvvl3zd5pkCAQhAAAIQgAAEIACBbCdAjowkzfDixYvF2QHE9P7GG2/IZZddliRJdAsBCEAAAhCAAAQgAAEIQAACEMgdAhgycmeuGSkEIAABCEAAAhCAAAQgAAEIQCDjCZAjI+OnkAFAAAIQgAAEIAABCEAAAhCAAARyhwCGjNyZa0YKAQhAAAIQgAAEIAABCEAAAhDIeAIYMjJ+ChkABCAAAQhAAAIQgAAEIAABCEAgdwhgyMiduWakEIAABCAAAQhAAAIQgAAEIACBjCeAISPjp5ABQAACEIAABCAAAQhAAAIQgAAEcocAhozcmWtGCgEIQAACEIAABCAAAQhAAAIQyHgCGDIyfgoZAAQgAAEIQAACEIAABCAAAQhAIHcIlM+doTJSCEAgGwgUFhbK3r17pU6dOlKtWrW4h+S2fdwCaZAyAhs3bpSjR49K7dq1JT8/P2Vy4xHE+ouHVmbVZf1l1nxlm7asv2yb0cwaj9v157Z9ZtFCW68I4JHhFUn6gQAEkkZgz549cuedd5oX1Pr160uLFi1k2rRpMctz2z5mQVT0lUDPnj2ladOmxsDVunVrmTJliq/6WOGsP0siu4+sv+ye33QfHesv3Wcou/Vzu/7cts9uuowuGgE8MqKR4T4EIJAWBI4cOSKdO3eWhQsXJqSP2/YJCaWRrwQCgYAsXbpU+vTpI1u3bpUhQ4b4pg/rzzf0vglm/fmGHsEOAdYfy8BPAm7Xn9v2fo4d2T4Q2L59e0A/lOwk8NFHHwWcXygDVapUCdxzzz1JH+RNN90UcJZxoEuXLgnJcts+IaE0SmsCL730kllTuq6GDh0a2Lx5c1z6JtJ+xYoVgYEDB5rvToUKFQJOCEvg/PPPD4wbNy5w8ODBuOQnWnnlypWB0047LTj2li1bJtpVQu0yVf6hQ4cCCxYsCLRp08awq1q1akDv+VUSWX+qq5/8Wf+J88+G9ef3/Oe6fDfff9af+7/0fq8/N/PvfvSBgJvxu11/btt7MX76yCwCgiEjsyYsXm1vvvnm4ItQuXLlAseOHYu3i7jquzVEuG0fl7JUzggCgwcPNmvYCSdJSN9427/55puBypUrB783akAJ/bRr1y6wc+fOhHSJtdG7774bKCgoKCI3lYaMbJA/c+bMIL8vvvgiVvSe14t3/akCfvJn/XvDP1PXn9/zn+vyvfr+s/4S+1Pu9/rzav4TG30g4NX43a4/t+0THT/tMo8AOTKcN5RsLtdee62cdNJJ4nhkGPfqsmWZ8mye72wc2/Hjx82w6tatm9Dw4mm/YcMGE46wf/9+ady4sUycOFGWLVsmH3/8sTgvpFKmTBmZP3++ON4aCekSS6Px48dL9+7dZceOHdKwYUNzHks7r+pki/zQ9eL80+wVnrj7iWf9aed+8mf9e8c/E9ef3/Of6/K9/P6z/uL+Uy1+rz8v5z/+0Yun43e7/ty2T2T8tMlQAnhkZJ71KZ01dutR4bZ9OrNBt8QI/PGPfzS/rCfqkRBP+7vuusvI0lCsdevWFVP4wQcfNM8dg4Zx/S9WweWNBx54wPTv/HMS6NSpU8DJ7xC49957XY0/HpWySf6HH34YZOlkQ48Hg6d141l/fvNn/Xv3/cvE9ef3/Oe6fC+//6y/+P+M+73+vJz/+EcfCHg5frfrz237RMZPm8wkwM/zGWqAyna19ZdvCgSUQI0aNQwIJ5wjISDxtJ81a5aR0a9fP+PJFC7w7rvvNjtiOH/uZfbs2eGPXV87IRCmD92hxXGtlHr16rnuM54Oskl+6HqpXr16PBg8rRvP+vObP+vfu+9fJq4/v+c/1+V7+f1n/cX/Z9zv9efl/Mc/ehEvx+92/bltn8j4aZOZBLLGkOEk4It7BhJpU5qQ/v37G/fzrl27imar/9vf/iZOwj6pVKmScRPXFyR1XyutaJ077rhDTj31VHHi9c22kxdeeKE888wzYl2VI/WxatUqI18NAeGfG2+8MVKTiPfefvttueiii8RJlCc1a9aUbt26ySeffCLOr9TBfpcsWRKxrb3pZvxOPg8zzscff1zOOussw0C33bz++utl7dq1VkTUo5OsSAYMGGC2YqxYsaJ5+fzJT34iY8aMESeZUNR211xzjRmfbgMVqWzbti04fn3RDC+6D7blriEJTrJVs+OGvswoS53D6dOnhzcrdv3666/Lz372MzPvyqJ8+fJmLFdeeaUsWrSoWP1svhHPi2AkDvG01x0utLRq1SpSV+Ik/pTTTz/dPNuyZUvEOm5u6hrRbWVHjx5t5txNX4m0zSb5u3btMgj0+5Ofn58IDk/axLP+/ObP+vfu+5eJ68/v+c91+V5+/1l/8f/59nv9eTn/8Y9ezA5f2s6L//9xu/7ctk9k/LTJTAJZsf2qvjDqC6a+6KrRIJaiL/z60qn/g9u2bdtYmsRdR3+9dXY5CLbTF5/nn39e1EigRoFmzZoFn4WefPDBB3LFFVdIqEXywIED4rhamc+UKVPkrbfekry8vNBmnp0/+eST8r//+79F+tOX9nnz5smkSZOK3C/pItHxa5/68vGHP/xBRo4cGRShDJwdAOTf//630cW+UAYr/HCifK+66irR+rYcPnzY5DbQ/Ab//Oc/za/dzk4U9nFSjrr9oxpTQvWwc/inP/1Jhg8fHlHuww8/LMOGDSv2TI1I+nn11Vfl5ZdfNmukWCWXN/S7EKuhRI1qarhLdtH8LlpCOcYjM572uk60lPTia5/ZuvHoUlrdxx57zBg9S6uXrOfZJN+ul2T9nYx1DuJZf37zt2varvFIY7TPbN1IdRK95/f4vZSfievPzqmd40jzaJ/ZupHqJHrP9mllROrHPrN1I9VJ9J7t08qI1I99ZutGqpPoPdafv//+2jm1cxxpHu0zWzdSnUTveTn/iehgx2THGKkP+8zWjVRH77n9++e2fTS9uJ99BMpmw5DUiKFFranLly8vdUhaR40YWvbu3SvJ8MzQfv/+97+LvpTqy7MaJzRBoP5a/80338hvf/vbiHrqWK6++mpjxHB2aTB9LF68WObMmSO///3vzS/C6v6lRoJIRRN7Otv2FfmoF0CsZdOmTSYpqNavU6eOqFFD5f/nP/+RSy65xPxSHEtfOn412vz1r3+V//u//zNu+OqNoqWk8du+9Y/Y008/bQwZyk/d+NW4ovy+++47YyCwdUOPhYWFJlmjtlfD1lNPPWVezJXZLbfcIprs1NmaUW699dbQZkk5HzVqlJx77rnyxhtviHqvTJ48WZo3b25kObkWjDErXLCTs0buv/9+c9vZHcMYbb788kv56quvzBx06NDBeKrc6HjXJGPdhuuTDtf2+12rVq2E1HHbPiGhCTZSzy0/SzbJt+tFE7fa/ynyg208689v/n7wCZXp9/i9lJ+J6y90LjhPPQHWX+qZp5NEL+ff73G5/fvntr3f40d+6ghkhSEj1AujNGOGGjCs+5hi1pfdZPzx0F+1dceDoUOHynnnnSdO4j7zUm13O3jnnXfMC3n4VKvx49tvvzXhHBqWoKEUbdq0kY4dO8pDDz1kMtprm+eee66Ix4bt54QTThA1gIR+NDQl1qLeChp6oQYDNV4MGjTIyNcwB30hjzXWXMevhgj1LNAXcg1TUZ2tMSPa+K2eOnbld8899xh+2l7DTPRaiz5Xr5rw8uyzz8qePXuMwccaj8455xy5+OKLZcKECWY+tI16lqhBJdlFdbjsssvk7LPPNgYW1VvdBzXHguoaXtTIYkNf/vGPf5gdK3R9n3LKKSbUROdAjRjqsaPeGV6X1157rYgRLNwoFnqtBrdkFg1NUgOQzpuWPn36xCXObXsVpsYnDQ3Q76Aa0CiZQ0DD4TQsTkPxnISpokZO/d6lqnix/lKlazQ5rP9oZEq/nw3rz+/5z3X5pa+y6DVYf9HZxPrE7/UXq57Jqudm/G7Xn9v2yWJCv+lHICsMGeEhJdGMGXo/9OU3vJ2X06PeDPqyGV7si7z+D7W+FIYXDd/Qoi+/odsP2Xo33HCD8SrQX+PVU8Hr8t///td0qcYXNQCEF/VqiKWoNbV3797FqmqohZZo47cNlF+kPBWhnhQauhFeNGRHi/4R1Pwi4cXqry83yeAXKk+9bjREJrRo8sZevXqZW5FCOPTlxxZ9CQsvBQUFxtPlhRdeiDmMKryPkq4bNWpUxAgWahALP09GaI6GttgcI5qPQg0Ia9asEV33oWFG0cbgtn14vy+++KJorKYaVOx3M7wO1+lJQEM6ZsyYIc5uNyY3jv69V48su74iGRLdjsTr9edWH7ftWf+JE8yG9ef3/Oe6/MRXnwjrzw2979v6vf7cj8BdD27G73b9uW3vbuS0ziQCWWHIUODhRolwY0b4dXh9ryfNhhCE99ukSZPgrX379gXP7YnqqUVDRCIV9R6xOxkkI9ngjh07jNho+TtOPvnkSGoVu6cvvZFK06ZNg7cjjd8+jMbvxBNPFE3eqcUmA7Jt9GjduKPpr+31BVmLer4ks0RjZcdmWYfqoIlNbRk8eLAkY45t/5lyVKOWGtUS9Zxy075v377GC0nlq1cVJbMI6N9b9YYKNyimchRu1l8q9Ywki/UfiUrs9zJ9/fk9/7kuP/aVFrkm6y8yl1jv+r3+YtUzWfXcjt/t+nPbPllc6De9CJRPL3XcaaPGCfVUsC731iigruGhuTOSbcTQUdiX7fAR6S+CtkRycz569Kh5rIkgoyWDtO1Df72399we7Y4o0fSP9WUyWr3QF4pI47f6a4hMpKK/puoOHhp+YXUNrWf5WWNF6DM91/batyYqOnbsWPhjT6+jMVCPDP0DrRbn8KIGLPU+0BAjDX/RjxplzjzzTGndurV5mdYX6lCO4X1k8rWGttjcHzpH6nUzZMgQUaOOzrv1qIk2Rrftw/tVr6JInkXh9bhOPwL696V79+4mx0+PHj1MXiH922//BkfyeHM7Cq/Xn1t93LZn/SdOMBvWn9/zn+vyE19933u9ZvrfP+bfzQpw39YNf7d//9y2dz96esgUAlllyFDo+oKoL0LWiKFHe67PU2HEUDkUCEQjoLutRNtxRdtoLhHNizF+/HjjkaGhFfrR/BhaNGRGYxcjhf6YCi7+ozlkrCGhtG70RdDr8BINbQktZ5xxhtluV3Mc6A5ApRky3LYPlc15ZhPQHYI0UbEW/U4lw3ARToj1F04kd69Zf7k79+kwctZfOsxC7urgdv25bZ+75HNv5FlnyNAptMk/Qw0Yej+TjBi33Xab3H777ap21JKM/zG3v1Zaz4Zw4cnwAgmXkevX6m2hO9RoYtPPP//c5GfQLYZ15xrdAUZ3MPn5z39ucqzEmnw1VqaalyRS7o5I7VO1/aoNR7KeVpF0Keme2/Yl9c2z9CWwdu1ao5wmO07G38pYR876i5VUdtVj/WXXfGbaaFh/mTZj2aWv2/Xntn120WQ0JRHISkOGDjjcmJEpRgx1n9eiv3RHyzNhKiTpP7qjhpb169dHlGD/uER86OHNaAYTdTezRhZrdAkVa/lF2+M6tL2tG6m93Tkk9Jmeh96PFv4S3ibRax2f5swIzZsxdepUueaaa0x+j9dff93sapNo/5nSzs53pFCiWMYQT3sbkqTbB0cr9lm00KFo7bifWgI2dMweUyv9R2nxrL8fW/lzxvr3jrtdd/boXc/x9RTP+vN7/nNdfnwzW3Jtu+7sseTayXvK+kseW6979vL7Z9edPcarq21nj/G2p37uEMhaQ4ZOoRozND+G/iENd/lN1ylu0KCBUU1DCaIV+w+D/nKvOR+8LJqLYdq0aWZHD9UhPGmm7paRirJ69eqIYjZt2hQ0JkTyRqhdu7ZpF41faHtNwhde7L1o8kN3vfHjV16NWVRvDfVOSNRDIXzModcLFy4MvUyLc5vUNdJ8x6JgPO3V4KkJVj/77LOIXauB7MsvvzTPNHFsaWXKlCnB/DxqkLI71pTWzqvnuSzfhj2p8VHnzf5PWjxsveAXz/qLR7dY6sarP+s/Fqqx1cnE9ef3/Oe6/NhWVmy1WH8i/P2L7/8/vPz+uV1/btvH9i2hVlYQ2L59e0A/FG8I3HTTTQFnYQS6dOkSsUNnpwzzXOu89957xeo8+uij5nl+fn7AyVdQ7LkTNxZs//HHHxd7HunGz372M9PGSSIZ6XGRe07YQsDxBDD1nTwOgffffz+we/fugPNiH7jjjjsCjqEjKN/ZqrVIW71wO37b3jHQBF599dVi/Q8bNiwof8WKFcWe//WvfzXPnZeWgJPgtdhz294xAgV0LsLL9OnTg/2/++674Y8Dzouoee4YTAKOpbjY86+//jrY3tkKttjz0m6o/s52kYFLL7004HggFKu+Z8+egK4NXT9Ozohiz7PxxoMPPmjG6xjVEhpePO3vuusuI8tJxBpwDEXF5Nm+dH06XkvFnoffcHL2BNeDk7g1/HFM105+ENOHrot4Sy7L17+v+j3RT6TveiwsveBn10yi6zeV88/6L74qEuWfievP7/nPdfnFV18gwPr7kYr9W5qsf3/9Xn8/jvTHs0TnX3uI998vL8fv9u+f2/Y/EuQs2wlktUeG8z+wGVeuv/56efjhh+Wbb76RDh06yJ///GezW4V6YTiGCxkxYoQZk/66e/755xcbX6Rkjfv37zf1nJdgCfUo0JvqgRD6S/cpp5wiQ4cOlYceesj88uwYZIrIGD16tDh/7IrcS8aF7tChu3c4f8Slc+fOomNwjAzy+OOPG3Ht27eXSNubOoYQw88xvsjFF18s999/v5x33nlmq9aXX35ZnnjiCdNeOVvvjVD9f/nLX4rGtGsIzZVXXml2jrnwwgvFMfaJ5oT417/+Zaorg0ihLaF9JXKuCTz/8Ic/mNwYKl9zpegv/+pepzrp2tDQBvXE6dq1ayIiMq6N21+042mvvJ988knRrYE7duwoDzzwgFk/+t3RX3c0AauWPn36SOPGjUtk6Ri1gl4ztWrViskbQ0O6wrflLSwsNHI0CeuSJUuKyGzVqlXUdZjr8u0vOgpM/x5E+r4XgRl2kQi/sC7MZTzrz+/5Z/179/3LxPXn9/znunwvv/+sv/j//fV7/Xk5/4n8++Xl+N2uP7ftI/1bzL0sJYBHhre2KutRkKhHhmrzwQcfBJyQmOCvic7SK3L+P//zPwHHvT2i4ueee26RuuFtw6/HjBkTsZ+xY8cGnBfoYF8q88UXXwyox4btI5keGcrv5ptvDsqyMvVYUFAQcJJfRtRbb86YMSPgJPiL2Fbb/+QnPzFeJtE6cJJdBpwXz6jtHQNDwDEsRWzu/OMRbJeIR4Z22q9fv2AfoeMOPVfLea4UZ6cSw+OCCy5IaMjxtn/zzTdLXD+OES3gvJyWqstLL70UnEf1ZoqlOKFDwTah8x3tXD10opVcl++EBwVZ6nm8JRF+kWTEs/78nn/Vn/Vf9N/baN89vV/S9y8T15/f85/r8r38/rP+4v/31+/15+X8J/rvl1d//92uP7ftdS4puUGgrPOPMSXNCHTq1EmWLl0qgwcPNl4HeXl54ri6S5s2bcwvxLqDhU1mmizVVbZadDVfwLZt22TDhg1y3XXXSaIJFxPRU3/9HjlypBmrJlbUnBTXXnutLFiwQBw3+6hd6o4e+st1//79xXGtM7HxTjiGtGvXThzDjdn9wyY1jdSJekUof7VOa44Qja1X67B6Zvz97383OUQ0P0myim4V6RiNjDxrlVbvD8eAY7xT/vnPf8ojjzySLPFp16/mudGieU+iJXEtSel42/fo0cOsnwEDBgTXT82aNcUxpMiECRNk7ty5MW07q7vM2KJ9pbrkunzd3ceWkr7vtk740St+8a6/cD0SvU5Uf9Z/osSLtsvU9ef3/Oe6/KKrKPEr1l9i//76vf4Sn/GiLf3+++92/bltX5QGV1lNAI+M3LBYeTXKL774Ivgrp/Oy71W39AOBqATUQ8n5I2w+V1xxRcD5BzqwcuXKmLwitFO37aMqVsoDJ0zL6OyEiJVSMzmPc1G+ekQ5WxYHNB+J9Shr3rx5QoC94sf6y531z/r78avm1ffnxx7jO8tF+ay/H9dILs7/j6MPBPwYv9v157Z96Pg5zx0CGvtPss/cmW/XI33rrbeCL5WbN2923R8dQCAWAn379g2uO2vUcHKWxNLU1HHbPmZBP1R0PJmC+mpIVqpLrsoPD62rWLFixKTKpc2H1/xYf6UR9/a51/MXq3asv+9J+cXfzlOuymf9sf6UgF/r3+36c9vefv855hYBQkuy2t8m8cE5llGTGFSTg+rH+QVc3nnnHbn77rtNp2eccYbYrWITl0JLCMRGYOLEiaIfDe/QMKF4i9v28crT8BMtGlagSVtTXXJZvoZ96d+ma665xmwjnUhSXK/5sf5S+w3wev7i0Z71Jyb8Tpnx9y/1f/9Zf6y/TP7758X6jefvNXUznwC7lmT+HCZlBJdddpnJExGp8/Lly4uTDDTSI+5BIGkEnF+1RT+JFrft45Fr41M1r4zmuEl1yVX5Cxcu9AR1Mvix/jyZmpg6Scb8xSKY9fc9Jb/42znKVfmsP9afEvBr/btdf27b2+8/x9wiUEZDS3TImkiQAgFLQLc/1YSXoUV/XdFfxP/4xz+Kbn9KgQAEIAABCEAAAhCAAAQgAAEIpJoAhoxUE0ceBCAAAQhAAAIQgAAEIAABCEAAAgkTIEdGwuhoCAEIQAACEIAABCAAAQhAAAIQgECqCWDISDVx5EEAAhCAAAQgAAEIQAACEIAABCCQMAEMGQmjoyEEIAABCEAAAhCAAAQgAAEIQAACqSaAISPVxJEHAQhAAAIQgAAEIAABCEAAAhCAQMIEMGQkjI6GEIAABCAAAQhAAAIQgAAEIAABCKSaAIaMVBNHHgQgAAEIQAACEIAABCAAAQhAAAIJE8CQkTA6GkIAAhCAAAQgAAEIQAACEIAABCCQagLlUy0QeelDYOvWrbJ3795iClWpUkUaNGhQ7L5XN44dOyZr166N2N2JJ54oeXl5EZ/lys3CwkIzL3Xq1JFq1arlyrBzYpwbN26Uo0ePSu3atSU/Pz8nxswgIQABCEAAAhCAAAQg4DUBPDK8JppB/d16661y8sknF/sMGDAgqaP49ttvi8m0enz00UdJlZ2une/Zs0fuvPNO84Jbv359adGihUybNi1d1UWvBAn07NlTmjZtagxUrVu3lilTpiTYE80gAAEIQAACEIAABCCQuwTwyMjduWfkaULgyJEj0rlzZ1m4cGGaaIQaySYQCARk6dKl0qdPH1HPqCFDhiRbJP1DAAIQgAAEIAABCEAgawjgkZE1U5n4QHr16iX6YmU/b731VqmdrVy5UgYNGiTNmjWTihUrSvXq1aV9+/Yyfvx4OXToUInt1ePAytLjjh07Sqyf7Q+nTp0aNGIMHTpUNm/ebPj0798/6tDd8I/aaZwPVq1aJaeffrqUKVPGfM4888w4e3BXPRPlq7FKvx8LFiyQNm3aGAD33XefHD582B0MWkMAAhCAAAQgAAEIQCCHCGDI8GmyNTfFsmXLzK+xPqmQsFg1dKhb/NNPP21yXehL2O7du+XTTz+VwYMHS8eOHWXXrl0J959rDa0nhoaTPPzww6XmJ0kH/u+99560a9dOli9f7st0ZbL8ChUqSNu2bWXUqFGGnYYVrV692heOCIUABCAAAQhAAAIQgEAmEsCQ4dOsrVu3TrZt22ZeBP16GUxk6Bs2bDDu8Pv375fGjRvLxIkTjUHm448/NkYM/XV+/vz5MnDgwES6z8k2x48fN+OuW7duqeNPB/7qddO9e3fjSdOwYUNzXqriHlbIFvmh862eSRQIQAACEIAABCAAAQhAIDYCGDJi4+R5rdAdCzRGPlOMGfoSqd4kurPJ3LlzpW/fvtKyZUsTVjJ27FgZMWKEYTV9+nRR139K6QQ0LEdLLF4sfvMfPny4MVjpzjOdOnWSxYsXyznnnFP6ID2qkU3y1YvJFrsG7DVHCEAAAhCAAAQgAAEIQCA6AQwZ0dkk9UmTJk1Ec0XYkinGjFmzZhmV+/XrJyeddJJVP3i8++67zY4M+gvz7Nmzg/c5iU6gRo0a5uHOnTujV/rhid/8v/jiC6OJ7rAyc+ZMqVevXqk6e1khm+SHzjeGDC9XCX1BAAIQgAAEIAABCGQ7AQwZPs7waaedlnHGDDW4aGnVqlVEchr/rwkgtWzZsiViHW4WJRCPIcNv/lWrVjXbwo4ePVrKl0/9pkfZJN964JQrV05CPbSKrg6uIAABCEAAAhCAAAQgAIFwAql/EwnXIMev1Zihxb6g2qO9n2547O4KJb142We2bjqNQZMsLlq0KCaVnnnmGSlp55CYOomhkobpaDlw4ECptS1TyzhSA/vM1o1UJ9F7jz32mFSqVCnR5q7bZZN8O995eXmuudABBCAAAQhAAAIQgAAEcokAHhlpMNtqtGjUqFFQEzVmZErOjKDSnCRMQJO+aqlVq1bCfaSqoZ9GDB1jNsm3862Jc61RI1XziBwIQAACEIAABCAAAQhkMgEMGWkye7r1ZqgXhhozMiFZ5uTJk0VDI9q0aSPfffddmtCMrsZrr70mK1eujOlz9dVXR+/IgydHjhyRJUuWyIQJE0xvffr0ibvXTOMf9wCzuEG3bt2kZs2aorvW3HvvvVJYWCjsXpLFE87QIAABCEAAAhCAAAQ8I4AhwzOU7jvS5J82X4L2FpoM0H3vyenhxRdfNLtt6Av5vHnzkiPEw17V80WNRrF8qlWr5qHk77vS0BbdolY/mk9EDUBr1qyRG264QUaOHBm3vEzjH/cAs7iBhhTNmDHD7PozZswYky+nbNmywfXx7LPPZvHoGRoEIAABCEAAAhCAAAQSJ4AhI3F2nrfUcJJQ40VouInnwjzqULdf1R0XdAtO3Y6TEj+BOnXqGH6JhE3AP37e6dRCdy86++yzRRN+UiAAAQhAAAIQgAAEIACB2AiQ7DM2TkmvpUYMm+hThWmYSej2rElXIEEBvXv3Fv1QYiOgoS0HDx40lTUZ59KlS2XIkCEyePBgswvILbfcEltHP9SCf1y40qqyhpF0795dFi9eLD169BDduli/8+qVoaVu3bpppS/KQAACEIAABCAAAQhAIF0IYMjweSaOHj1q8iTs3bs3qEmmGDGCCmfQycaNG4OGhNLU1hdJr8NLwr1szjjjDFm7dq3JkTBu3Lj/n70zAZOiuhb/QXjisMkui2ERiDsCAROUAA/wPfkkL8MHChOfGhAwMRomEphH9G+eS/Ik6EMhKBHBPBMNCHyaBOOC0QhqFAcE48ouDssEZRtUkGX+fW5y25qe7unq7uqurq7f/b6mq6vuvefc373dTJ0651xJ1ZCRbAxcz18CL7/8sjFiqIYLFizAcJG/U4VmEIAABCAAAQhAAAJ5RgBDho8TghEj9/CLi4vzbvvVrl27GhDbtm3LPRAk+kZADVhaGjVqhBHDt1lAMAQgAAEIQAACEIBAEAmQI8OnWQuqEUMTVGpxepDEIrTX0sn5ENtXGD7rWtCiu1ckK/BPRig4148fP26Ute/B0RxNIQABCEAAAhCAAAQg4C8BPDJ84q9bq9obflUhKOEkGsO/a9cueeutt+KS07wP7733nrnWsWPHuHX8PFleXu6n+LiyDxw4YM5r0tRkxWv+ixYtEs3PouX888+XUaNGJVPB0+thlm/Dlo4cOSL6vbFGKk8B0xkEIAABCEAAAhCAAAQKkACGjDyY1KAYMRTVkCFD5M0335SFCxfKlClTpHPnzjUIzpw5Uw4ePGi2kBw6dGiNa3yITyAVQ4bX/KdPny42pOXRRx+Nr2AWz4ZZvtNwpd+Z1q1bZ5E0XUMAAhCAAAQgAAEIQKBwCGDI8Gkuu3fvLk2aNJHmzZubd5/USFnsjTfeKPPmzZNPP/1UBg4cKLfddpv069dPqqqqRJ+uz5492/RZUlIinTp1Srn/MDZIxZDhJf+PPvooasRo1aqVK2+MDz/8UPbt21djmiorK81n3Y1l3bp1Na717NkzugtHjQuRD2GXbz0ylAuGjNjVwWcIQAACEIAABCAAAQgkJoAhIzGbrF5p0KCBxO5gkVWBHnWuHhhqsNBtP7dv3y7jxo2r1XP//v3lgQceqHWeE/EJqFFIS1FRUfwKjrNe8n/ppZeiPV999dXSsGHD6OdEB2VlZbJ48eK4lzdv3iy9e/eucU0NXGqwi1fCLt8533YNxOPEOQhAAAIQgAAEIAABCECgJgGSfdbkwScXBEaMGGGevE+cOFG6dOliYvtbtmwpF110kcydO1dWrlzp+balLtQKbBX1ytGyZcsWkysh2UC84u80JOhc5rqEXf4HH3wQRd60adPoMQcQgAAEIAABCEAAAhCAQN0E6u3du7daq7Ro0aLumlwtOAKjR4+WZcuWyaWXXipz5syJjq9x48bSvn376GevD3SXBrv1pPatT+379OljxKxYsUKGDRvmtci87k9v6AcPHmx0HDlypJSWlkqHDh3MlpzO8AOvB3HmmWfKhg0bZMCAAbJq1Sqvu0/aXxjlV1RUmDASDcGZNm2a7NixQ7p16yaa/JcCAQhAAAIQgAAEIAABCLgjQGiJO04FXeuZZ56RHj16RMd42WWXyfLly6OfvT7Ys2dPDXle9x+0/gYNGmRCdB5++GF54oknzEvHMH/+fJkwYUJWhrN7925jxNDOJ02alBUZdXUaVvnFxcWyZs2aKBoN59GcMxQIQAACEIAABCAAAQhAwD0BQkvcs6ImBLJGQHeB0ZeG5yTKKeGlcA3/0aJhLeqZk+sSZvn169c3Hk9jx46V1atXh84DKddrDXkQgAAEIAABCEAAAoVHAI+MwptT1yNaunSp67peVmzXrp1UV5uIJi+7DXxfmjg1XvLUbAzM5qe46qqrXCUZ9VqHsMovLy/3GiX9QQACEIAABCAAAQhAIHQEyJERuilnwBCAAAQgAAEIQAACEIAABCAAgeASILQkuHOH5hCAAAQgAAEIQAACEIAABCAAgdARwJARuilnwBCAAAQgAAEIQAACEIAABCAAgeASwJAR3LlDcwhAAAIQgAAEIAABCEAAAhCAQOgIYMgI3ZQzYAhAAAIQgAAEIAABCEAAAhCAQHAJYMgI7tyhOQQgAAEIQAACEIAABCAAAQhAIHQEMGSEbsoZMAQgAAEIQAACEIAABCAAAQhAILgEMGQEd+7QHAIQgAAEIAABCEAAAhCAAAQgEDoCGDJCN+UMGAIQgAAEIAABCEAAAhCAAAQgEFwCDYKrOppnSmD37t1y6NChWt00btxY2rdvX+u8VyeOHz8uW7dujdtdx44dpaioKO61sJysrKw089KmTRtp1qxZWIYdinFWVFTIsWPHpHXr1tKkSZNQjJlBQgACEIAABCAAAQhAwGsCeGR4TTRA/d1www3So0ePWq+JEydmdRR79uypJdPq8corr2RVdr52XlVVJTfddJO5wW3Xrp10795dHn/88XxVF73SJFBcXCxdu3Y1BqpevXrJokWL0uyJZhCAAAQgAAEIQAACEAgvATwywjv3jDxPCBw9elSGDBki5eXleaIRamSbQHV1taxfv15KSkpEPaNKS0uzLZL+IQABCEAAAhCAAAQgUDAE8MgomKlMfyCjRo0SvbGyr+XLl7vqbNOmTXL22WdLvXr1zOu8885z1U49Dqwsfd+3b5+rdoVaafHixVEjRllZmezcudPwmTBhQp1DTpd/nZ26vLhx40a57rrr5IwzzpCGDRvKqaeeKv3795fZs2fLkSNHXPaSWTU/x6+apyNfjVXK54033pDevXsbALfeeqt88cUXmcGgNQQgAAEIQAACEIAABEJEAEOGT5OtuSnefvtt8zTWJxUyErtixQq58MIL5f3338+oHxpL1Iih4SR33XWXq/wkfvJXQ5eGRTz44IMm14nehB88eFBee+01mTx5sgwcOFAOHDiQ1an1c/w6sEzkn3zyydK3b1+ZOXOmYaRhRZs3b84qLzqHAAQgAAEIQAACEIBAIRHAkOHTbG7btk0+/vhjYwgImjFAn7oPHz7ceFJ06NDBHPuEsSDEnjhxwoyjbdu2rsbjJ//t27ebcIjPPvtMOnXqJAsXLjQGuVdffdUYMdQ7Z/Xq1TJp0iRXY0mnkp/jV329ku+cb/VMokAAAhCAAAQgAAEIQAAC7ghgyHDHyfNazh0LNEY+KMaM22+/3dyw6s4jgwYNkrVr10qfPn085xOmDjUsQ4sbLwa/+etNvHoT6c42K1eulHHjxsm5555rwkruvfdeueOOO8xYlixZYkIvzAcP//F7/F7KVy8WW+wasJ95hwAEIAABCEAAAhCAAAQSE8CQkZhNVq906dJFNFeELUExZrz77rtGZd1h4/nnn5fTTjvNDoH3NAk0b97ctNy/f3/SHvzm/8ILLxgdx48fL507d66l79SpU82OHOph8OKLL9a6nukJv8fvpXznfGPIyHRl0B4CEIAABCAAAQhAIEwE2LXEx9k+66yzjHQ1Ymix7/a8OZln/zRt2tRsC3r55ZfnmWbBVScVQ4bf/O0a7dmzZ1zgmv9BE8C+/vrrsmvXrrh1Mjnp9/i9lG89cOrXry9OD61M+NAWAhCAAAQgAAEIQAACYSCAIcPnWbZGC3uDaN/teZ/VqyV+zpw5csopp9Q6H5QTmmRxzZo1rtSdP3++JNs5xFVHSSppmIaWzz//PElNEb/529016rrxttds3aSDSqGC3+P3Ur6d76KiohQIUBUCEIAABCAAAQhAAAIQILQkD9aAGi1OP/30qCZqzMjXnBlBNmJEAefZgSZ91dKqVaukmoWdv9/j91K+nW9NnGqNGkkXABUgAAEIQAACEIAABCAAAcEjI08WgW69qU+yrQFDjRkNGjQQPU/xjsCTTz4phw8fdtWhc1cJVw1SrHT06FF55513ZO7cuaZlSUlJij34X/2xxx6T66+/Xrp27Wpyptibc/81y38NLrnkEmnZsqXs3btXbr75ZikrKxNdc7rzCwUCEIAABCAAAQhAAAIQSEwAQ0ZiNjm/osk/1YBhkwDa95wrUsACnZ4vfgwzXmiL5pW45pprZMaMGX6olJHMRx55xOy2sm7dOlm1apUUFxdn1F+YGmtI0dNPPy2aOHXWrFnm5Rx/rkKbnDI5hgAEIAABCEAAAhCAQBAIEFqSR7Ok3hhO44XfN915hKagVWnTpo3ZwtbLsIVcAdPtV3XHDd2CV7fjpaRGQHcvuuCCC0QTflIgAAEIQAACEIAABCAAAXcE8MhwxynrtdSIYRN9qjDNm+HcnjXrCiAgJwScoS2aDHP9+vVSWloqkydPNqFEGqYRpDJmzBjRFyV1ArpF7fDhw2Xt2rUyYsQI0a1r9Tt/0kn/sC9nO7QpdY1pAQEIQAACEIAABCAAgfwggCHD53k4duyYqFv+oUOHoppgxIii8PygoqIipRwZzZo181SHWC+bc845R7Zu3WpyJNx3330m34SnAuksbwm8/PLLxoihCi5YsMDkx8hbZVEMAhCAAAQgAAEIQAACeUQAQ4aPk4ERI/fwNYdDvm2/qokytWzbts288084CKgBS0ujRo0wYoRjyhklBCAAAQhAAAIQgIBHBMiR4RHIVLvBiJEqscKtr2tBy4kTJ/J+kJqYVIvTgyhWaXstiDk/YseSzc/Hjx833dv3bMqibwhAAAIQgAAEIAABCBQSATwyfJrNTZs21bgZJJwkNxNRXl6eG0EpSDlw4ICprUkzc10WLVoU3fL3/PPPl1GjRtWpguZw2LVrl7z11ltx62nej/fee89c69ixY9w6zpOpyne29eLYT/k2bOnIkSOi3KyRyItx0QcEIAABCEAAAhCAAAQKmQCGjDyYXYwYeTAJPqrgpyFj+vTp0ZCWRx99NCmFIUOGyJtvvikLFy6UKVOmSOfOnWu0mTlzphw8eFDq1asnQ4cOrXEt3odU5cfrI5Nzfsp3Gq6UWevWrTMZCm0hAAEIQAACEIAABCAQGgIYMnya6u7du0uTJk2kefPm5t0nNVIW++GHH8q+fftqtKusrDSfDx8+bBKXOi/27NkzuguD8zzHXxJIxZDhJf+PPvooasRo1apVUm8M1fjGG2+UefPmyaeffioDBw6U2267Tfr16ydVVVWi3g2zZ882AyspKZFOnTp9Ocg4R+nI93v8Xsq3HhmKBkNGnAXCKQhAAAIQgAAEIAABCCQggCEjAZhsn27QoIHE7mCRbZle9F9WViaLFy+O29XmzZuld+/eNa7pDa4abCiJCahRQEtRUVHiSv+84iX/l156KSrv6quvloYNG0Y/JzpQDww1WOiWq9u3b5dx48bVqtq/f3954IEHap2PPZGOfL/H76V853zbNRDLiM8QgAAEIAABCEAAAhCAQG0CJPuszYQzEMgpAfXK0bJlyxaTKyFXwp2GhIkTJ7oWO2LECON5o226dOlicju0bNlSLrroIpk7d66sXLlSnN4GiTpOV36i/lI977f8Dz74IKpy06ZNo8ccQAACEIAABCAAAQhAAAJ1E6i3d+/eaq3SokWLumtyteAIjB49WpYtWyaXXnqpzJkzJzq+xo0bS/v27aOfvT7QXRrs1pPat3pt9OnTx4hZsWKFDBs2zGuRed2f3lAPHjzY6Dhy5EgpLS2VDh06mC053RgE0h3cmWeeKRs2bJABAwbIqlWr0u0m7XZhlF9RUWHCSNatWyfTpk2THTt2SLdu3UST/1IgAAEIQAACEIAABCAAAXcECC1xx6mgaz3zzDPSo0eP6Bgvu+wyWb58efSz1wd79uypIc/r/oPW36BBg0yIxsMPPyxPPPGEeekY5s+fLxMmTMjKcHbv3m2MGNr5pEmTsiKjrk7DKr+4uFjWrFkTRaPhPJpzhAIBCEAAAhCAAAQgAAEIuCdAaIl7VtSEQNYI6C4g+tLwjFzkFNHwDy0a1qKeObkuYZZfv3594/E0duxYWb16deg8kHK91pAHAQhAAAIQgAAEIFB4BPDIKLw5dT2ipUuXuq7rZcV27dpJdbWJaPKy28D3pYkz4yXPzMbAbH6Iq666ylWSUa91CKv88vJyr1HSHwQgAAEIQAACEIAABEJHgBwZoZtyBgwBCEAAAhCAAAQgAAEIQAACEAguAUJLgjt3aA4BCEAAAhCAAAQgAAEIQAACEAgdAQwZoZtyBgwBCEAAAhCAAAQgAAEIQAACEAguAQwZwZ07NIcABCAAAQhAAAIQgAAEIAABCISOAIaM0E05A4YABCAAAQhAAAIQgAAEIAABCASXAIaM4M4dmkMAAhCAAAQgAAEIQAACEIAABEJHAENG6KacAUMAAhCAAAQgAAEIQAACEIAABIJLAENGcOcOzSEAAQhAAAIQgAAEIAABCEAAAqEjgCEjdFPOgCEAAQhAAAIQgAAEIAABCEAAAsEl0CC4qqN5pgR2794thw4dqtVN48aNpX379rXOe3Xi+PHjsnXr1rjddezYUYqKiuJeC8vJyspKMy9t2rSRZs2ahWXYoRhnRUWFHDt2TFq3bi1NmjQJxZgZJAQgAAEIQAACEIAABLwmgEeG10QD1N8NN9wgPXr0qPWaOHFiVkexZ8+eWjKtHq+88kpWZedr51VVVXLTTTeZG9x27dpJ9+7d5fHHH89XddErTQLFxcXStWtXY6Dq1auXLFq0KM2eaAYBCEAAAhCAAAQgAIHwEsAjI7xzz8jzhMDRo0dlyJAhUl5enicaoUa2CVRXV8v69eulpKRE1DOqtLQ02yLpHwIQgAAEIAABCEAAAgVDAI+MgpnK9AcyatQo0Rsr+1q+fHnSzt5//32ZMGGCnHHGGXLKKadI8+bNZcCAAfLggw+Kho7UVdTjwMrS93379tVVveCvLV68OGrEKCsrk507dxo+yjdR2bhxo1x33XWGf8OGDeXUU0+V/v37y+zZs+XIkSOJmnl2PuzyFeSmTZvk7LPPlnr16pnXeeedl5SvGqt0ft544w3p3bu3qX/rrbfKF198kbQtFSAAAQhAAAIQgAAEIACBfxCot3fv3mo9bNGiBUxySEBzU2zbti0aSpBD0VFRo0ePlmXLlokaMpYuXRo9n+xA3eG/+93vJrxhvuSSS+SPf/yj6A22m7J///7o+luxYoUMGzbMTbOCqaNP4++77z4TTqIGgmRFDU1jxoyRzz77LG7VCy+8UJ577jlj3IhbIcOTYZev+HSd6hw4jXDnnnuuvP32267p/vnPf46u9XfffdcYRVw3piIEIAABCEAAAhCAAARCTACPDJ8mX40YH3/8sahng76CUtatWyfXXHONMWJ069ZNfv3rX8vatWvNjfOVV15phqE3eTfffHNQhuS7nidOnDA6tG3bNqku27dvN+EIasTo1KmTLFy40Nw8v/rqqzJ58mTjGbB69WqZNGlS0r7SqRB2+cpMvV6GDx9ujBgdOnQwx+mwdM63eiZRIAABCEAAAhCAAAQgAAF3BMiR4Y6T57V0xwI1ZGjRGHktZ511lnnP53/uvPNO4wb/la98Rd58801p2rRpVF31xNAwkwULFsj9998vt99+uzRq1Ch6nYP4BDQsRMuBAwfiV3Cc1Zto9ebRnWVWrlwpnTt3jl7V0BLd6eSWW26RJUuWyM9+9jPj5RGt4MFB2OXrmv7pT39qSA4aNEg0LGjOnDny9NNPp0z34MGD0TZ2DURPcAABCEAAAhCAAAQgAAEIJCSAR0ZCNNm90KVLF9FcEbaoMSPfPTPUc+DZZ581Kk+ZMqWGEcOO48c//rE5/Pzzz6N5H+w13uMT0PwiWjTEJll54YUXTJXx48fXMGLYdlOnTjU7YugT/hdffNGe9uw97PI1BESL7jDz/PPPy2mnnZY2W+d8Y8hIGyMNIQABCEAAAhCAAARCSABDho+Trh4YQTJmqMeAhpNccMEF0q9fv7jkdNtQTX6opbKyMm4dTtYkkIohw3rv9OzZs2Yn//x08sknR3Mt7Nq1K26dTE6GXb56IOm2uPfcc480aJCZQ5v1wKlfv76ohxYFAhCAAAQgAAEIQAACEHBHILO/xN3JoFYdBGw4ib1BtO/2fB1Nc35JE8Jqjoy6ij5ltvH+rVu3rquqL9f69u0ra9ascSV7/vz5ZmcWV5UzqKRhIlrUiyVZsbtb1HXja6/Zusn6TOW67dPKiNfWXrN149VJ95zU8PmaAABAAElEQVTt08qI14+9ZuvGq5PuOQ0j0fApL4qd76KiIi+6ow8IQAACEIAABCAAAQiEhgAeGXkw1Wq0OP3006OaqDEj38NMosrGHDz11FPmjD5l1l0cKMkJ2FwprVq1Sl6ZGr4S8MqIoYOw862JW61Rw9fBIRwCEIAABCAAAQhAAAIBIYAhI08mSkMynF4YaszYtGlTnmjnTo2jR4/KzJkzTeVLL71UnLsyuOsh+7WefPJJ0S1O3byuuOKKrCqkvNTDZe7cuUZOSUlJyvIee+wx0dCU3r17yyeffJJy+0wbhF1+Jvw0OW7Lli1Fc8/oLj8aimW9mTLpl7YQgAAEIAABCEAAAhAodAIYMvJohjVfhs2XoGo5kwHmkZoJVfn5z38u77zzjsmRMX369IT1/Lygni9qNHLzatasmeeqamiL5hDRl+azUAPEli1bzJa2M2bMSFneI488YnY7UYPIqlWrUm6faYOwy8+En4YU6W4n6rk0a9Ysky/npJNOiq6Phx56KJPuaQsBCEAAAhCAAAQgAIGCJYAhI4+mVsNJnMYLZ7hJHqkZVxUNKdGtKbX84Ac/kIsvvjhuPU7WJqBbpvbp0yet3Avjxo0T3fFC2+t2oLkuYZefKW/dvUiT52ooFgUCEIAABCAAAQhAAAIQcEeAZJ/uOGW9lhoxbKJPFaZhJs4dTbKuQAYC1q9fLxoWoS7yupvJ3XffnUFvhd1UQ1sOHz5sBqnJKJVdaWmpTJ482eyCcf3116cEYMyYMaIvv0rY5WfCXcNIhg8fLmvXrpURI0aIbp2r33n1ytCSj6FZmYyXthCAAAQgAAEIQAACEPCKAIYMr0im2c+xY8dMnoRDhw5FewiSEWP79u3mZqyqqko6d+4sf/jDH6Rhw4bRseTbQUVFRdSQkEw3vZH0Orwk1svmnHPOka1bt5ocCffdd5+kashINgau5y+Bl19+2RgxVMMFCxZguMjfqUIzCEAAAhCAAAQgAIE8I4Ahw8cJCboRY9++faJJPXft2iUaHvHss8/mvRdJcXFx3m2/2rVrV7MKt23b5uNqRHSuCagBS0ujRo0wYuQaPvIgAAEIQAACEIAABAJNgBwZPk1f0I0YGh7xH//xH/Lee+9J06ZN5U9/+pOceeaZPtEMtlhdC1o0NCdZ0QShWpwePLFt7DUvtwq1MsIu33Lw4v348eOmG/vuRZ/0AQEIQAACEIAABCAAgTAQwCPDp1nWrVXtDaeqEKRwEr3h/s///E9R13gNI9G8D7obRxBKeXl53ql54MABo5Mm7UxWNIeCesC89dZbcatq3g01Lmnp2LFj3DrOk4sWLRLNz6Ll/PPPl1GjRjkv1zoOu/xaQDI4YcOWjhw5Ijpv1kiUQZc0hQAEIAABCEAAAhCAQCgI4JGRB9McJCOG4vrRj34ky5YtMzstPPbYYzJkyJA8oBhcFVIxZFjWCxculA8//LDWoGfOnCkHDx40W3gOHTq01vXYE7pN7m233WZeekOdrIRdfjI+qVx3Gq50zigQgAAEIAABCEAAAhCAgDsCeGS44+R5re7du0uTJk2kefPm5t1zAVnqcN68eTJ79mzT+49//GPp2bOnqHdJvKLjC8rOK/H0z9W5VAwZN954o+gcfPrppzJw4EBjgNCdYjTZqnpX2LnRXWQ6depU5xA++ugjsXk5WrVqldQbQzsLu3w1HmluGGeprKw0HzXcat26dc5L5vthdyGpcSHywXpk6Hk1ZLRu3Tq2Cp8hAAEIQAACEIAABCAAgTgEMGTEgZKLUw0aNJDYHSxyITdTGc7QjBkzZoi+EhUNU1i6dGmiy5z/JwE1SmgpKir655nEb7ozjBosdNtT3TFm3LhxtSr3799fHnjggVrnY0+89NJL0VNXX321q91mwi6/rKxMFi9eHOXmPNi8ebP07t3becoYmNSgF68459uugXj1OAcBCEAAAhCAAAQgAAEI1CRAaElNHnyCQM4JqFeOli1btphcCckUGDFihHnyP3HiROnSpYvJrdCyZUu56KKLZO7cubJy5coaT/sT9ec0ZGhfbkvY5bvllKzeBx98EK2iCXMpEIAABCAAAQhAAAIQgIA7AvX27t1brVVbtGjhrgW1CobA6NGjTa4L3UJ1zpw50XE1btxY2rdvH/3s9YHu0mC3ntS+NSyiT58+RsyKFStk2LBhXovM6/7UoDB48GCj48iRI6W0tFQ6dOhgtuR0hh94PQjdZWbDhg0yYMAAWbVqldfdJ+0vjPIrKipMGImGoEybNk127Ngh3bp1SxielRQiFSAAAQhAAAIQgAAEIBBCAoSWhHDSY4f8zDPPSI8ePaKnL7vsMlm+fHn0s9cHe/bsqSHP6/6D1t+gQYNMiMjDDz8sTzzxhHnpGObPny8TJkzIynB2795tjBja+aRJk7Iio65Owyq/uLhY1qxZE0Wju/5ozhMKBCAAAQhAAAIQgAAEIOCeAKEl7llREwJZI6C7kOhLw0MS5VTwUriGn2jRsBb1zMl1CbP8+vXrG4+nsWPHyurVq0PngZTrtYY8CEAAAhCAAAQgAIHCI4BHRuHNqesR+ZWIU3cyqa42EU2udQ1DRU3cGS95ZzbGbvNjXHXVVa6SjHqtQ1jlO5Ples2U/iAAAQhAAAIQgAAEIBAWAuTICMtMM04IQAACEIAABCAAAQhAAAIQgEABECC0pAAmkSFAAAIQgAAEIAABCEAAAhCAAATCQgBDRlhmmnFCAAIQgAAEIAABCEAAAhCAAAQKgACGjAKYRIYAAQhAAAIQgAAEIAABCEAAAhAICwEMGWGZacYJAQhAAAIQgAAEIAABCEAAAhAoAAIYMgpgEhkCBCAAAQhAAAIQgAAEIAABCEAgLAQwZIRlphknBCAAAQhAAAIQgAAEIAABCECgAAhgyCiASWQIEIAABCAAAQhAAAIQgAAEIACBsBDAkBGWmWacEIAABCAAAQhAAAIQgAAEIACBAiDQoADGwBDSJLB79245dOhQrdaNGzeW9u3b1zrv1Ynjx4/L1q1b43bXsWNHKSoqinstLCcrKyvNvLRp00aaNWsWlmGHYpwVFRVy7Ngxad26tTRp0iQUY2aQEIAABCAAAQhAAAIQ8JoAHhleEw1QfzfccIP06NGj1mvixIlZHcWePXtqybR6vPLKK1mVna+dV1VVyU033WRucNu1ayfdu3eXxx9/PF/VRa80CRQXF0vXrl2NgapXr16yaNGiNHuiGQQgAAEIQAACEIAABMJLAI+M8M49I88TAkePHpUhQ4ZIeXl5nmiEGtkmUF1dLevXr5eSkhJRz6jS0tJsi6R/CEAAAhCAAAQgAAEIFAwBPDIKZirTH8ioUaNEb6zsa/ny5Qk7mzdvntSrVy/pa+zYsQn7UI8DK0vf9+3bl7BuGC4sXrw4asQoKyuTnTt3Gj4TJkxIOPyNGzfKddddJ2eccYY0bNhQTj31VOnfv7/Mnj1bjhw5krCdVxf8lq/j2LRpk5x99tnRtXjeeed5Nbyk/aQ7fjVW6fy88cYb0rt3byPn1ltvlS+++CKpTCpAAAIQgAAEIAABCEAAAv8ggEeGTytBc1Ns27YtGkrgkxqIzQMC1hNDw0nuuuuupBqpoWnMmDHy2WefRevqjfBrr71mXo8++qg899xzxrgRreDhgd/ydSgrVqwwDPwwgmU6/pNPPln69u0rM2fOlGHDhomGFW3evNkYZTycJrqCAAQgAAEIQAACEIBAwRLAI8OnqVUjxscffyzvv/++efmkRspiv/Od74g+jY73euSRR8zTce106NChKfcd1gYnTpwwQ2/btm1SBNu3bzfhCGrE6NSpkyxcuFDefvttefXVV2Xy5MmG/+rVq2XSpElJ+0qngt/yVWf1Ohk+fLjx5OnQoYM5Tmcs6bTxcvzO+VbPJAoEIAABCEAAAhCAAAQg4I4AHhnuOHleS3csUEOGFo2R13LWWWeZ93z+R3fRiLeTxo4dO2TatGkmJEKThWY7YWg+M0pVNw0L0XLgwIGkTfUmXr15dGeZlStXSufOnaNtNLREdzq55ZZbZMmSJfKzn/3MJA2NVvDgwG/5t99+u/z0pz81Ixk0aJBoWM6cOXPk6aef9mB0ybvwcvwHDx6MCrRrIHqCAwhAAAIQgAAEIAABCEAgIQE8MhKiye6FLl26iOaKsEWNGeqdEcRy+PBhGTlypDHIXHzxxfLLX/4yiMPwTefmzZsb2fv370+qwwsvvGDqjB8/voYRwzacOnWqMTTpE/4XX3zRnvbs3W/57777rhmL7vDy/PPPy2mnnebZ2Nx05OX4nfONIcMNfepAAAIQgAAEIAABCEDgHwQwZPi4EtQDoxCMGRrGoMkLTz/9dFm2bJloDgCKewKpGDKs907Pnj3jClD2mgBTy65du+LWyeSk3/KbNm1qtqW95557pEGD3DuUeTl+64FTv359UQ8tCgQgAAEIQAACEIAABCDgjgCGDHecslYr6MYMvaH8zW9+I0VFRfLkk0/m/Al5qhOjSRbd7LqidR566KFUu0+rvoaJaPn888+Ttre7W9R142uv2bpJO02hgu3TyojX1F6zdePVSfechpFcfvnl6TbPuJ0dkx1jvA7tNVs3Xh09Z+dbvzsUCEAAAhCAAAQgAAEIQMA9AQwZ7lllraYaM9SbwZaghJmom71uF6pFcxf06tXLDoH3FAjYXCmtWrVKoVU4q55yyikFM3A735q41Ro1CmZwDAQCEIAABCAAAQhAAAJZJIAhI4twU+lat950JvtUY8amTZtS6SLnddWQcfz4cSNXczO0aNFCrr32Wvn73/+ec13cClSvkXg7rsQ7d8UVV7jtNq16R48elXXr1sncuXNN+5KSkpT7eeyxx0RDU3r37i2ffPJJyu0zbeC3/Ez1z7R9JuO/5JJLpGXLlqK71tx8881SWVlpkuVmqhPtIQABCEAAAhCAAAQgUOgEMGTk0QxrvgybL0HVciYDzCM1E6pSVVVltgO98MILzU1Zwoo+XlDPFzUauXnF250lU9WdoS2az0INEFu2bJFrrrlGZsyYkXL3uuWt5lpQg8iqVatSbp9pA7/lZ6p/pu0zGb+GFOluK+eee67MmjXL5Ms56aSToqFPuQptypQB7SEAAQhAAAIQgAAEIJBrAhgyck28Dnm6a4nTeOEMN6mjmW+X7rzzTvMEWT0LNmzYIOqVoTdiH374oZSWlvqmV9AE65apffr0kXTCJsaNGye644W21+1Ic138lp/r8cbKy3T8unvRBRdcIJrwkwIBCEAAAhCAAAQgAAEIuCOQ+7T/7vQKXS01YtgdEXTwsUlA8xmI7h7Ro0cP+cUvfiFq1Lj33ntl6dKlMn/+fHZjiJk4DW3R7Wq1aDLI9evXG6PP5MmTzS4c119/fUyLuj+OGTNG9OVX8Vu+X+O2cjMZv26RO3z4cFm7dq2MGDHCGALVK0uNgVratm1rxfAOAQhAAAIQgAAEIAABCDgIYMhwwPDj8NixYyYs4NChQ1HxQTJiRJX+58F3vvMdY8jQcb333nvSr1+/2Cq+fq6oqIgaEpIpojeSXoeXxHrZnHPOObJ161aTI+G+++6TVA0ZycbA9fwl8PLLLxsjhmq4YMECDBf5O1VoBgEIQAACEIAABCCQZwQwZPg4IYVmxFCU6ipvy8GDB+1h3rwXFxfLmjVrXOmjHiUTJkxwVTeTSl27djXNt23blkk3tA0YATVgaWnUqBFGjIDNHepCAAIQgAAEIAABCPhLAEOGT/yDaMTYu3evSeapyK6++uq4N192FxOtQ9y/UkhedC1o0d0rkhVNEKrF6cET28ZeSyfnRmxfsZ/9lh+rT64/ezl++12x77keC/IgAAEIQAACEIAABCAQVAIYMnyaOd1a1d5wqgpBCCfRG21N6KlFc2J8+9vfNsfOf5xbxnbo0MF5KS+Oy8vL80IPpxK664gWTdqZrGgOhV27dslbb70Vt6rm3dCQHi0dO3aMW8d5ctGiRaL5WbScf/75MmrUKOflWsd+y6+lUIYn/By/DVs6cuSIyZdijSQZDonmEIAABCAAAQhAAAIQKHgC7FqSB1McBCOGYmrdurWceeaZhticOXPikrvnnnvMeb2J7tatW9w6nKxJIBVDxpAhQ0zjhQsXmt1havYkMnPmTNGQnnr16snQoUNjL9f6PH36dLntttvMS2+okxW/5SfTL9Xrfo7fabjKxzCsVFlSHwIQgAAEIAABCEAAArkigEdGrkjHyOnevbvZ0aN58+aB2tmjrKxMxo8fL3/+859l2LBhorttaF6Mjz76SO6//3556qmnzEinTZtGaEnMnCf6mIoh48Ybb5R58+bJp59+KgMHDjQGCE2oWlVVJepdMHv2bCOmpKREOnXqlEikOa9zZvNytGrVKqk3hjbyW75u7btv374a46qsrDSfdTeYdevW1bjWs2fP6C4gNS5EPvg9fuuRoXqpIUMNhRQIQAACEIAABCAAAQhAIDkBDBnJGWWlhm5ZGruDRVYEedzpuHHj5O2335b//d//NcYMNWjElu9///vywx/+MPY0nxMQUKOElqKiogQ1vjzduXNnY7DQbT+3b98uOh+xpX///vLAAw/Enq71+aWXXoqe05wnDRs2jH5OdOC3fDWkLV68OK56mzdvlt69e9e4pgaeJk2a1DhnP/g9fud82zVgdeMdAhCAAAQgAAEIQAACEEhMgNCSxGy4koCAho8899xzMnLkSJOHQWP7NR+G5sz405/+ZDwzEjTldBwC6pWjZcuWLSZXQpwqNU6NGDHCeB5MnDjReMMo/5YtW8pFF10kc+fOlZUrV7raNtZ5I699uS1+y3erZ7J6fo//gw8+iKrYtGnT6DEHEIAABCAAAQhAAAIQgEDdBOpFdqKo1iotWrSouyZXC47A6NGjZdmyZXLppZeKM+dF48aNpX379lkbr+7SYLeeVCH61LxPnz5G3ooVK0zIStaE52HHekM9ePBgo5kah0pLS41hqG3btq4MEukOSfOdbNiwQQYMGCCrVq1Kt5u024VRfkVFhQkj0RAYDb/asWOHySXjTJKbNlAaQgACEIAABCAAAQhAICQECC0JyUTXNcxnnnnG7EJi61x22WWyfPly+9Hz9z179tSQ57mAgHU4aNAgEyLy8MMPyxNPPGFeOoT58+fLhAkTsjKa3bt3GyOGdj5p0qSsyKir07DKLy4uljVr1kTRaDiP5jyhQAACEIAABCAAAQhAAALuCRBa4p4VNSGQNQK6C4m+NDwkUU4HL4Vr+IkWDWtRz5xclzDLr1+/vvF4Gjt2rKxevTp0Hki5XmvIgwAEIAABCEAAAhAoPAJ4ZBTenLoe0dKlS13X9bJiu3btpLraRDR52W3g+9LEnfGSd2ZjYDY/xFVXXeUqyajXOoRVfnl5udco6Q8CEIAABCAAAQhAAAKhI0COjNBNOQOGAAQgAAEIQAACEIAABCAAAQgElwChJcGdOzSHAAQgAAEIQAACEIAABCAAAQiEjgCGjNBNOQOGAAQgAAEIQAACEIAABCAAAQgElwCGjODOHZpDAAIQgAAEIAABCEAAAhCAAARCRwBDRuimnAFDAAIQgAAEIAABCEAAAhCAAASCSwBDRnDnDs0hAAEIQAACEIAABCAAAQhAAAKhI4AhI3RTzoAhAAEIQAACEIAABCAAAQhAAALBJYAhI7hzh+YQgAAEIAABCEAAAhCAAAQgAIHQEcCQEbopZ8AQgAAEIAABCEAAAhCAAAQgAIHgEmgQXNXRHAIQgAAEUiVQWVkphw4dkjZt2kizZs1SbS6Ztk9ZIA1yRqCiokKOHTsmrVu3liZNmuRMbiqCWH+p0ApWXdZfsOar0LRl/RXajAZrPJmuv0zbB4vWl9rikfElC44gAAEIFCSBqqoquemmm8wNart27aR79+7y+OOPux5rpu1dC6KirwSKi4ula9euxsDVq1cvWbRoka/6WOGsP0uisN9Zf4U9v/k+OtZfvs9QYeuX6frLtH1Q6eKREdSZQ28IQAACLggcPXpUhgwZIuXl5S5q166SafvaPXIm3wlUV1fL+vXrpaSkRHbv3i2lpaW+qcz68w29b4JZf76hR3CEAOuPZeAngUzXX6bt/Rx7WrL37t1brS9KZgT++te/VkcmIOFr3759mQmgtS8EXnnllerIE8rqxo0bV0+bNi3rOlx77bVmDQ0dOjQtWZm2T0sojfKawG9+85vo71JZWVn1zp07U9I3nfYbNmyonjRpkvnunHzyydWREJbqb3zjG9X33Xdf9eHDh1OSn27ljRs3Vp911lnRsZ977rnpdpVWu6DKP3LkSPUbb7xR3bt3b8OuadOm1XrOr5LO+lNd/eTP+k+fP+vPm28a6z+933/WX/DXX5B//zNdf5m292b2c9uLYMjwBnghGjKmTJli/pD92te+5g2kAPbyve99L3ojVL9+/erjx49ndRSZGiIybZ/VwdG5LwQmT55s1nAknCQt+am2/+Mf/1jdqFGj6Pcm1sB74YUXVu/fvz8tXdw2eu6556pbtGhRQ4dcGjIKQf7zzz8f5ffuu++6Re95vVTXnyrgJ3/Wvzf8WX/pf5VY/5n//rP+grn+CuX3P9P1l2n79Gc/9y3JkZGWH0vtRpGnVxKxgNd4LVy4sHZFzgSKwJVXXimdO3eWiEeGca8+6SS+MoGaQJSVEydOGApt27ZNi0Yq7bdv327CET777DPp1KmT6G/g22+/La+++qpEbkilXr16snr1aol4a6Sli5tGs2fPluHDh0vEC046dOhgjt2086pOoch3rpfInyZe4Um5n1TWn3buJ3/Wv3f8WX8pf1VMA9a/N7//rL/grT/VuFDWf6brL9P26c2+P624K/OIe8OGDU0CPU2iZ1/t27f3qHe68YvAgAEDZNu2bWaXh7vvvtsvNZALgbQJnHrqqabtgQMH0uojlfb6R4TuiKKGv5UrV8q4ceMk4gkh/fv3l3vvvVfuuOMOo8OSJUtk06ZNaelTV6Pbb7/dGEwinlMyaNAgWbt2rfTp06euJp5eKyT5Bw8ejLKxayB6IocHVrab9es3f9a/d98/1l/qXzLWP+tPHxjw/58///97+fuf6e9fpu1T//XxrwWGDP/YIxkCWSOgT74pEFACzZs3NyAi4RxpAUml/QsvvGBkjB8/3ngyxQqcOnWq2RFDn/C/+OKLsZcz/hwJgTB96A4tEddKOe200zLuM5UOCkm+c71YY0IqLLyqm8r685s/69+77x/rL/VvEOuf9aerhv///Pn/38vf/0x//zJtn/qvj38tCsaQEUkglzLFdNqkLCTNBhqm8v3vf1969Oghp5xyinnC2bNnT/npT38qbp5M/f73v5d///d/N9stRnI7SIMGDcy2eqNHj5Y1a9bE1Uoz0+sNsH3dc889pp7Wt+ec77fcckvcfjI5OWHCBCNr2LBhotnqf/GLX0gkYZ9hoG7ieoOk7rvJitb50Y9+JGeeeaZE4vUNh29+85syf/78qKt9vD70KbFzjM7j7373u/GaxD331FNPyeDBgyWSKE9atmwpl1xyiUTyqBjvDtvnunXr4ra1JzMZv865umTff//9cv755xsGuu3m1VdfLVu3brUiEr5HktXJxIkTzZpRb6NIskb5+te/LrNmzZJIMqGE7caOHWv46TZQ8crHH38c5as3mrFF98G2fDQkIZJs1ey4oTczylLnUJ/mJyvprP9kfQb1eio3gvHGmEp73eFCi/5WxSuRxJ9y9tlnm0u7du2KVyWjc7pGdFtZ/e3S37xcl0KSb/+f0d+SJk2a5BplVF4q689v/qx/775/rL/oV8D1Aeuf9cf/f/79/+/l73+mv3+Ztnf9o5MHFXP/l14WBq03PHqDpDdqetPrpugNq9406R9offv2ddMkZ3X0h0hvOGNvGP/2t7+Jvh599FHjtq039vHKXXfdJdOnT691SUMk9PXEE0/I0qVLZeTIkbXq5NMJfXob2eUgqpLe+Dz88MOiRgI1CpxxxhnRa86Dv/zlL2ZsTovk559/Li+//LJ5LVq0SJYvXy5FRUXOZp4dz5s3zxihnB3qTfuqVavM3DnP13Wc7vi1T735+MlPfiIzZsyIilAGkR0A5E9/+pPRxd5QRiv880D5Xn755aL1bfniiy9MbgPNb/C73/3OPO1W40Y2i27/qMYUpx52Dv/f//t/om608Yqf619/SxIZCmN1VaOaGu6yXTTMQ4uTYyoyU2mv60RLXTe+9pqtm4ouyerOmTPHGD2T1cvW9UKSb9dLtn4n3c5BKuvPb/52Tds1Hm+M9pqtG69Ouuf8Hr+X8ll/qa8CL/mnLl3Ermm7xuP1Ya/ZuvHqpHvOy/Gz/lKfBS/5py5dxG/5dk3bNR5vDPaarRuvjp7LdP1l2j6RXvl4/qR8VCpVndSIoUWtYe+//37S5lpHjRhaNJ47nzwzPvzwQ7nmmmuMEUNjyx955BHRJ/eaLE9v3NS7YPPmzeYGL95AI7vQyH//93+bS5HdAcxN63vvvScffPCBPPPMM6I5H/RJ/Xcj3gWx49Yb5zfffDP6UmOKlnPOOSd6znn9hhtuMNez8Y/Oy//93/+J3pTqzbMaJzRBoD6t//vf/y4/+MEP4orVtXDFFVeIGjE0V4n2oXHyL730kvzXf/2X6BNhdf/SscYrmtgzNmmregG4LTt27DBJQbV+mzZtRI0aKl/Z/9u//Zt5UuymLx2/Gm1+/vOfy+uvv27c8NUbRUtd47d964/Ygw8+aAwZyk/d+NXDR/l98sknCddPZWWlSdao7dUw+Ktf/crcmCuz66+/XjTZaWRrRsnm3NsxzJw5UyI75sgf/vAH8x147LHHpFu3bubynXfeaYxZtq59z2T92z4K7d3+PrZq1SqtoWXaPi2haTZS7zU/SyHJt+tFE7faP4r8YJvK+vObvx98nDL9Hr+X8ll/zpl1d+wlf3cS86uWl+Nn/aU+t17yT126+PoQIx1962qT6frLtH1duuXbtYLwyFAvDGvAsK49iTwz1IBh6+hk6M2a318+56JYtmyZeZresWNHY7xwPvXWhHmaiTayJag8/fTT5obWmZlW+9GbTOvJ8dvf/taEptj+v/rVr4oaNzR+TmPU1TvDyUll6ssWvRHXok/kevXqZU/n5F2faqtnitNrRJP36Y243lw/++yz5obcflmtUmq42LNnjwnn0LAEJ5+BAwdKly5dDL8FCxaI3gxbt2Xb/l/+5V+MAcR+1nc1Hrkt6q2g/FVPNV44Ew1qqI/upuCm6Ph1/saMGROtrqEqWnQniETjNxUi/+jYFy9eLM4QD22v60m9NPS6eiWpscdZHnroIamqqjIGHzUeaWiOLf/6r/8qGiv/P//zP8azRJOfOvnael6+qw7qXaLlggsuMGEmGm6lOqqu+p1wlkzWv7OfdI+ffPLJWgbCRH1lm52GJr3zzjsyd+5co0JJSUkiVeKez7S9dqrGJzWAde3a1XjxxH5f4wrmZF4Q0HA4DYtT4+DNN98sZWVl5vuuv225KF6sv1zoWZcM1n9ddOq+xvqrm08QrgZ5/bP+grDC8lvHTNZ/pusv0/b5TbamdgXhkREbUpLIM0PPOzPlx7aricafT2pk0KfxanBxGjGsNpdeeqk5VEOEeg7EFv3jzxb9IzS2tGjRwjzp//Wvf13DiBFbz+/PakRxGjGsPtYrIdH4NXxDy7e+9a24N9nq7aJeBeqNop4KXhf1WNHSr1+/GkYMK0dv6twUveFzGjFsGw210JJo/Lae8nMaMex5pyeFhm7EFg3Z0aI/gk4jhq1n9Vevnmzws3L0Xb1urBHDntfkjaNGjTIf44Vw+L3+Tz/99OiuRXb3okTv8b7fdpzpvmtoi95o6ku9j3Rb6C1bthgvL2eYUaL+M20f2696lGmspnqV2e9mbB0+5ycBDelQg7l6BmpuHP3/Un877fpSQ6LXxev157V+qfbH+k+V2Jf1WX9fsgjqUZDXP+svqKsuf/TOZP1nuv4ybZ8/FJNrUhCGDB1mrFEi1pgR+zm2fnJU+VFDF6ct8dx9NbGjLboNUzYS6tn+s/luQwhiZXSJeFTY8umnn9rD6LvOsxYNEYlX1PvG7mSQDTb79u0zYhPl71BvAjcl1lPCttEn27bEG7+9loifetxo8k4tNhmQbaPv1o07kf7aXm+QtajnSzZLIlZ2bJa1U4dCWf/OMWV6rEYt9QxK1/Msk/a6/ap68ah89aiiBIuA/t6qJ1SsQTGXo8hk/eVSz3iyWP/xqLg/x/pzzyofawZ9/bP+8nFVBUenTNd/pusv0/ZBIV0QoSUWthon9Em7hkxosTe1Gj5gQ0/0fL4bMfTppbrva14HvVnUp99ui97Aq9eBhlhoUlB96U3peeedZ8JD9GZCX37+YepmLPZmO7auPhG0Rb0SYsuxY8fMKc0nkigZpG3jfHpvz2X6bucqkf5ubyYT1XPOW7zxW/01RCZe0aepupuDhr9YXZ31LD9rrHBe02Ntr31roiLdqzybJRED9cjQH2inUc/qUSjr344n1XdnaIvOkXrd6G5EatTUebceNYn6zbR9bL/qVRTPsyi2Hp/zj4D+vmgonOb4GTFihMkrpP932t/gbIRGeb3+/KbK+k9/Blh/6bPLl5ZBXv+sv3xZRcHVI5P1n+n6y7R9kKgXlCFDwesNjhozrBFD3+2xXs93I4bmVfj2t78dzf6sOqdaNP+D5r6YPXu28chQ13J9adJELRoyoLFbzvwNqcqgPgT8IqC7rSTacUV18nP9a0hYbBLdRJz0RtDr8BINbXEWTdSr2+1qjgPdASiZISPT9k7ZHAebgO4QpEYMLfqdyobhIpYQ6y+WSHg/s/7CO/f5MHLWXz7MQnh1yHT9Zdo+SOQLzpCh8G0CS6cBQ8/nuxFDn3BrDgR9kvqVr3zF7NihMe7Op+vqTq8JO+sq+tRed+iYNm2aSfanHh66Ra16eOgOGLqDieba0Bwb6vZdiOXGG2+UH/7wh3UOLRt/mNunldazIVaBbHiBxMoI+2c/17/mJYmXuyPenORq+1UbjmQ91eLpUte5TNvX1TfX8peAGsC0aLLjbPxWuh05688tqcKqx/orrPkM2mhYf0GbscLSN9P1l2n7INEsSEOGTkCsMSPfjRiqsz79stvCamiI7hIRW2wOg9jz8T7rTbXmDHDmDdCdLMaOHWtCVn7/+9+L3WI1XvsgnlP3eS36pDtRnolsjqtp06ame91GN16xPy7xrnl5LpHBRN3NrJHFGl2cci2/RHtcO9vbuvHa251znNf02HneaaCLrefF5zCu/3jc7HzHCyWKVz/2XCrtbUiSJixOVOy1RKFDidpxPrcEbOiYfc+t9C+lpbL+vmzlzxHr3zvudt3Zd+96Tq2nIK2/1Ebmfe1CWv923dl372m565H1545TPtTycv3bdWffUx2fbWffU20fpPoFa8jQSVBjhubH0B+CWJfVXEyS5hNIpfz973+PVncaH6InIwfxEhw6ryc71pgt9dbQp7PpPqFNJsPP6+3btzfiNZQmUbH/MeiT+1TnKFGf9rzmItFtY3VHD9UhNmmm7haTi7J58+a4Ynbs2BE1JsTzxmndurVpl4ifs70m4Yst9lwi+c5dg/x4ypvt9V9eXh6LxPfPNqlrvPl2o1wq7dVgrEl033rrrbhdq4HsvffeM9ecWz3HrRw5uWjRomh+I/1NtDvWJKrv9fkwy7dhT2p81Hmzf6SlwtgLfqmsv1R0c1M3Vf1Z/26ouqvD+gve718hrX/WX/DWn7tfFve1/Pz9z3T9ZdrePSX/axa0IUPx6g+rX0W3OrXlo48+MkYV+zneu/PG7oUXXpArrriiVrV77rmn1jnnCU0Sqgk+Nenh8uXLa92o69NQ69WhRp66SlFRkbls/5Csq26+XBs4cKBowrg//vGPojfdsTdLr7zyigwYMMCo++qrr0r//v09VV1vlP/7v//b/OGvCfJ++ctfmq1YNWmrHv/tb3/zVF6iznbu3Gk4xG7Bev/990eb9OzZM3psDy6++GJ56qmnZMWKFSYEKXYLVttejUBf//rXbbPou7a/9957TdiS9qHbuDrLnDlzzEc1mMT27ayX7rGX6z9dHfKtnf3+5sKQMWTIENEtiBcuXChTpkyptXvQzJkz5eDBg+Z3aejQoUlRTZ8+PWpw1d+1XJcwy3euF50za+RMZQ684Jfp+k1F39i6qerP+o8lmP5n1p9IqusvfdrxW6Yqv5DWP+sveOsv/ipO/6yf6z/T9Zdp+/Sp5b5lwRsyco/0S4m6bZ0aM9SLQvM1zJgxQ1q2bPllhchRhw4dTAyyntTkm+o5ouElkyZNMkn6Bg8ebLbL1LwWehOpf1DWVbSPn/zkJyY3xujRo0VzRejNvLoXaVjDXXfdJWrMUE+EYcOG1dWV2BtdfYquNyB64+EMR9DQjSZNmtTZR64vaqiMjlG9W9Rg8dOf/tTs1qJeGGq4uOOOO4xK+nT3G9/4Ri314iVr/Oyzz0y9qqoqcXoU6En1QHD+YHz1q1+VsrIys+uMPnmOvVlTQ5Te4GW79OrVy+xeo0ke9Y8LHcOSJUvMGlLZasCJt73ptddea/jpOtPQJjXK9OvXz2zVunTpUnnggQeM6so53o2NJqrVmHZda7r+dOeYb37zm7J3717RnBDLli0z7ZWBcy2Zkx784+X690CdvOgi0xvBVNrr7828efNEtwZWo+Jtt91m1o9+d/TphiYg1lJSUiKdOnWqk48af63XWKtWrVx5Y2hIV6zXWmVlpZGjSVg1X5Cz6G9conUYdvn2iY7ySseQkQ4/59zY41TWn9/zz/r37vvH+gve718hrX/WX/DWXyH9/me6/jJtb///DcR75AajWl+U7BD41a9+pXuEJnxFPAdqCH766aerIy68cevr+cjT8ui1yBPvGm3th/Hjx0frJJIduZG01RO+R1yKqyO7HiTsK5H8hB26uBC5kTbyIgaAuLUjng1RfRLJ/8tf/lId8TaJ1otlEEmkWh0xMsTt/2tf+1rCdrH96OdZs2bF7SfilVAdMSBF+1KZjzzySHXEIBU9F3lyXattpuN3tv/e974XleXUPWJcq44kf60l257QNRhJ8Be3rfYT8cSojtzY2Oq13iPJLqsjN54J20cMHNURw1KtdnoicvMTbffXv/41bp1kJ71a/8nkBOV6ZKcSw/Siiy5KS+VU2+tvWl3rJ2JEq47cnCbV5Te/+U10LfzoRz9KWl8rRDyiom2caz7RccTAkrDfsMuPhAdFWepxqiUdfvFkpLL+/J5/1Z/1n/jvndjvYV3fP9Zf8H7/Cmn9s/6Ct/4K6fc/0/WXaft4/xfn67mTIv+xULJIQD0r9El43759jWdFMlG6m4juLKJhJaeddprZsUR3MNGQBc27oE/XkxXdKi9y02yehFurnD51VO8Qbf+73/1O7r777mTdmJhoDXG55pprjOeB1/kkkiqQZoVBgwbJ+vXrZfLkycbrQENkGjduLLoDjD4h1h1cbDLYNEUkbaay9Ymk5gvQUJ7t27fLVVddJekmXEwqME4FffqtXkA6Vk2sqKFLV155pbzxxhty7rnnxmnxj1O6BvXJ9YQJE8x2xhobr543ultOxHBjdr+xSU3jdaJeEcpfn85ojhBtr+tQPTM0ia3mENHQlGwVr9Z/tvTLdb82hEzzniRK4lqXTqm215AqXT+6A1OXyHbYOv/qiRYxpMjcuXNl5cqVrrad1V2WbNG+cl3CLl+9AG2p6/tu68S+e8Uv1fUXq0e6n9PVn/WfLvGa7Vh/wfz9K5T1z/oL5vqr+SuS/ie/f/8zXX+Ztk+fnA8t8cjIVxtT8PTav39/dWRL15RekRv74A00A43ffffd6FPOyM1+Bj3RFALuCKiHUuS/FvMaOXJkdeQ/aPMddeMVoRIybe9Oy9q1ImFaRudIiFjtizk4E0b56hH1zjvvVEfykUQ9yrp165YWba/4sf7Cs/5Zf19+1bz6/nzZY2pHYZTP+vtyjYRx/r8cfXW1H+PPdP1l2t45/iAda+w6oSVBmrE81lXDLOwNk9v3ulxL83ioaasWScAaZRRJyJl2PzSEQCoExo0bF1139rsZyVniuotM27sW9M+KEU+mqL4akpXrElb5saF1DRs2rE4UwlfXnHjNj/VXF23vr3k9f241ZP39g5Rf/O08hVU+64/1pwT8Wv+Zrr9M29vvf9DeCS2J/FVPgYDXBCKWUZMYVJOD6iviqSLPPvusTJ061YiK5B4Ru1Ws17LpDwKxBHQXEX1peEc6CXozbR+rT7LPGn6iRcMKNGlsrkuY5WvYl/42jR071oQzJksKHW9uvObH+otHOXvnvJ6/VDRl/YkJv1Nm/P7l/vef9cf6C/LvnxfrN5Xf63yoy64l+TALBaJDaWmp6Isi8q1vfcvkiYjHokGDBmaL0njXOAeBbBGIPNUWfaVbMm2filwbn6p5Zew20Km0z7RuWOWXl5dnis60zwY/1p8nU+Oqk2zMnxvBrL9/UPKLv52jsMpn/bH+lIBf6z/T9Zdpe/v9D9p7PQ0tUaU1ESQFAhDwhoBuf6oJL51Fn67oE/FbbrnFbH/qvMYxBCAAAQhAAAIQgAAEIAABCLgjgCHDHSdqQQACEIAABCAAAQhAAAIQgAAEIJAHBMiRkQeTgAoQgAAEIAABCEAAAhCAAAQgAAEIuCOAIcMdJ2pBAAIQgAAEIAABCEAAAhCAAAQgkAcEMGTkwSSgAgQgAAEIQAACEIAABCAAAQhAAALuCGDIcMeJWhCAAAQgAAEIQAACEIAABCAAAQjkAQEMGXkwCagAAQhAAAIQgAAEIAABCEAAAhCAgDsCGDLccaIWBCAAAQhAAAIQgAAEIAABCEAAAnlAAENGHkwCKkAAAhCAAAQgAAEIQAACEIAABCDgjkADd9WoVYgEdu/eLYcOHao1tMaNG0v79u1rnffqxPHjx2Xr1q1xu+vYsaMUFRXFvRaWk5WVlWZe2rRpI82aNQvLsEMxzoqKCjl27Ji0bt1amjRpEooxM0gIQAACEIAABCAAAQh4TQCPDK+JBqi/G264QXr06FHrNXHixKyOYs+ePbVkWj1eeeWVrMrO186rqqrkpptuMje47dq1k+7du8vjjz+er+qiV5oEiouLpWvXrsZA1atXL1m0aFGaPdEMAhCAAAQgAAEIQAAC4SWAR0Z4556R5wmBo0ePypAhQ6S8vDxPNEKNbBOorq6W9evXS0lJiahnVGlpabZF0j8EIAABCEAAAhCAAAQKhgAeGQUzlekPZNSoUaI3Vva1fPnypJ1t3LhRrrvuOjnjjDOkYcOGcuqpp0r//v1l9uzZcuTIkTrbq8eBlaXv+/btq7N+oV9cvHhx1IhRVlYmO3fuNHwmTJiQcOiZ8E/YaYoXNm3aJGeffbbUq1fPvM4777wUe8isehDlq7FKvx9vvPGG9O7d2wC49dZb5YsvvsgMBq0hAAEIQAACEIAABCAQIgIYMnyabM1N8fbbb5unsT6pkLZYNXSoW/yDDz5ocl3oTdjBgwfltddek8mTJ8vAgQPlwIEDafcftobWE0PDSe66666k+Unygf+KFSvkwgsvlPfff9+X6Qqy/JNPPln69u0rM2fONOw0rGjz5s2+cEQoBCAAAQhAAAIQgAAEgkgAQ4ZPs7Zt2zb5+OOPzY2gXzeD6Qx9+/btxh3+s88+k06dOsnChQuNQebVV181Rgx9Or969WqZNGlSOt2Hss2JEyfMuNu2bZt0/PnAX71uhg8fbjxpOnToYI6TKu5hhUKR75xv9UyiQAACEIAABCAAAQhAAALuCGDIcMfJ81rOHQs0Rj4oxgy9iVRvEt3ZZOXKlTJu3Dg599xzTVjJvffeK3fccYdhtWTJElHXf0pyAhqWo8WNF4vf/G+//XZjsNKdZwYNGiRr166VPn36JB+kRzUKSb56Mdli14D9zDsEIAABCEAAAhCAAAQgkJgAhozEbLJ6pUuXLqK5ImwJijHjhRdeMCqPHz9eOnfubNWPvk+dOtXsyKBPmF988cXoeQ4SE2jevLm5uH///sSV/nnFb/7vvvuu0UR3WHn++efltNNOS6qzlxUKSb5zvjFkeLlK6AsCEIAABCAAAQhAoNAJYMjwcYbPOuuswBkz1OCipWfPnnHJafy/JoDUsmvXrrh1OFmTQCqGDL/5N23a1GwLe88990iDBrnf9KiQ5FsPnPr164vTQ6vm6uATBCAAAQhAAAIQgAAEIBBLIPd3IrEahPyzGjO02BtU+27P5xseu7tCXTde9pqtm09j0CSLa9ascaXS/Pnzpa6dQ1x14qKShulo+fzzz5PWtkwt43gN7DVbN16ddM/NmTNHTjnllHSbZ9yukOTb+S4qKsqYCx1AAAIQgAAEIAABCEAgTATwyMiD2Vajxemnnx7VRI0ZQcmZEVWag7QJaNJXLa1atUq7j1w19NOIoWMsJPl2vjVxrjVq5GoekQMBCEAAAhCAAAQgAIEgE8CQkSezp1tvOr0w1JgRhGSZjz32mGhoRO/eveWTTz7JE5qJ1XjyySdl48aNrl5XXHFF4o48uHL06FFZt26dzJ071/RWUlKScq9B45/yAAu4wSWXXCItW7YU3bXm5ptvlsrKSmH3kgKecIYGAQhAAAIQgAAEIOAZAQwZnqHMvCNN/mnzJWhvzmSAmfeenR4eeeQRs9uG3pCvWrUqO0I87FU9X9Ro5ObVrFkzDyX/oysNbdEtavWl+UTUALRlyxa55pprZMaMGSnLCxr/lAdYwA00pOjpp582u/7MmjXL5Ms56aSTouvjoYceKuDRMzQIQAACEIAABCAAAQikTwBDRvrsPG+p4SRO44Uz3MRzYR51qNuv6o4LugWnbsdJSZ1AmzZtDL90wibgnzrvfGqhuxddcMEFogk/KRCAAAQgAAEIQAACEICAOwIk+3THKeu11IhhE32qMA0zcW7PmnUF0hQwZswY0RfFHQENbTl8+LCprMk4169fL6WlpTJ58mSzC8j111/vrqN/1oJ/SrjyqrKGkQwfPlzWrl0rI0aMEN26WL/z6pWhpW3btnmlL8pAAAIQgAAEIAABCEAgXwhgyPB5Jo4dO2byJBw6dCiqSVCMGFGFA3RQUVERNSQkU1tvJL0OL4n1sjnnnHNk69atJkfCfffdJ6kaMpKNgev5S+Dll182RgzVcMGCBRgu8neq0AwCEIAABCAAAQhAIM8IYMjwcUIwYuQefnFxcd5tv9q1a1cDYtu2bbkHgkTfCKgBS0ujRo0wYvg2CwiGAAQgAAEIQAACEAgiAXJk+DRrQTViaIJKLU4PkliE9lo6OR9i+wrDZ10LWnT3imQF/skIBef68ePHjbL2PTiaoykEIAABCEAAAhCAAAT8JYBHhk/8dWtVe8OvKgQlnERj+Hft2iVvvfVWXHKa9+G9994z1zp27Bi3jp8ny8vL/RQfV/aBAwfMeU2amqx4zX/RokWi+Vm0nH/++TJq1KhkKnh6PczybdjSkSNHRL831kjlKWA6gwAEIAABCEAAAhCAQAESwJCRB5MaFCOGohoyZIi8+eabsnDhQpkyZYp07ty5BsGZM2fKwYMHzRaSQ4cOrXGND/EJpGLI8Jr/9OnTxYa0PProo/EVzOLZMMt3Gq70O9O6desskqZrCEAAAhCAAAQgAAEIFA4BDBk+zWX37t2lSZMm0rx5c/Pukxopi73xxhtl3rx58umnn8rAgQPltttuk379+klVVZXo0/XZs2ebPktKSqRTp04p9x/GBqkYMrzk/9FHH0WNGK1atXLljfHhhx/Kvn37akxTZWWl+ay7saxbt67GtZ49e0Z34ahxIfIh7PKtR4ZywZARuzr4DAEIQAACEIAABCAAgcQEMGQkZpPVKw0aNJDYHSyyKtCjztUDQw0Wuu3n9u3bZdy4cbV67t+/vzzwwAO1znMiPgE1CmkpKiqKX8Fx1kv+L730UrTnq6++Who2bBj9nOigrKxMFi9eHPfy5s2bpXfv3jWuqYFLDXbxStjlO+fbroF4nDgHAQhAAAIQgAAEIAABCNQkQLLPmjz45ILAiBEjzJP3iRMnSpcuXUxsf8uWLeWiiy6SuXPnysqVKz3fttSFWoGtol45WrZs2WJyJSQbiFf8nYYEnctcl7DL/+CDD6LImzZtGj3mAAIQgAAEIAABCEAAAhCom0C9vXv3VmuVFi1a1F2TqwVHYPTo0bJs2TK59NJLZc6cOdHxNW7cWNq3bx/97PWB7tJgt57UvvWpfZ8+fYyYFStWyLBhw7wWmdf96Q394MGDjY4jR46U0tJS6dChg9mS0xl+4PUgzjzzTNmwYYMMGDBAVq1a5XX3SfsLo/yKigoTRqIhONOmTZMdO3ZIt27dRJP/UiAAAQhAAAIQgAAEIAABdwQILXHHqaBrPfPMM9KjR4/oGC+77DJZvnx59LPXB3v27Kkhz+v+g9bfoEGDTIjOww8/LE888YR56Rjmz58vEyZMyMpwdu/ebYwY2vmkSZOyIqOuTsMqv7i4WNasWRNFo+E8mnOGAgEIQAACEIAABCAAAQi4J0BoiXtW1IRA1gjoLjD60vCcRDklvBSu4T9aNKxFPXNyXcIsv379+sbjaezYsbJ69erQeSDleq0hDwIQgAAEIAABCECg8AjgkVF4c+p6REuXLnVd18uK7dq1k+pqE9HkZbeB70sTp8ZLnpqNgdn8FFdddZWrJKNe6xBW+eXl5V6jpD8IQAACEIAABCAAAQiEjgA5MkI35QwYAhCAAAQgAAEIQAACEIAABCAQXAKElgR37tAcAhCAAAQgAAEIQAACEIAABCAQOgIYMkI35QwYAhCAAAQgAAEIQAACEIAABCAQXAIYMoI7d2gOAQhAAAIQgAAEIAABCEAAAhAIHQEMGaGbcgYMAQhAAAIQgAAEIAABCEAAAhAILgEMGcGdOzSHAAQgAAEIQAACEIAABCAAAQiEjgCGjNBNOQOGAAQgAAEIQAACEIAABCAAAQgElwCGjODOHZpDAAIQgAAEIAABCEAAAhCAAARCRwBDRuimnAFDAAIQgAAEIAABCEAAAhCAAASCS6BBcFVH80wJ7N69Ww4dOlSrm8aNG0v79u1rnffqxPHjx2Xr1q1xu+vYsaMUFRXFvRaWk5WVlWZe2rRpI82aNQvLsEMxzoqKCjl27Ji0bt1amjRpEooxM0gIQAACEIAABCAAAQh4TQCPDK+JBqi/G264QXr06FHrNXHixKyOYs+ePbVkWj1eeeWVrMrO186rqqrkpptuMje47dq1k+7du8vjjz+er+qiV5oEiouLpWvXrsZA1atXL1m0aFGaPdEMAhCAAAQgAAEIQAAC4SWAR0Z4556R5wmBo0ePypAhQ6S8vDxPNEKNbBOorq6W9evXS0lJiahnVGlpabZF0j8EIAABCEAAAhCAAAQKhgAeGQUzlekPZNSoUaI3Vva1fPlyV51t2rRJzj77bKlXr555nXfeea7aqceBlaXv+/btc9WuUCstXrw4asQoKyuTnTt3Gj4TJkyoc8jp8q+zU5cXN27cKNddd52cccYZ0rBhQzn11FOlf//+Mnv2bDly5IjLXjKr5uf4VfN05KuxSvm88cYb0rt3bwPg1ltvlS+++CIzGLSGAAQgAAEIQAACEIBAiAhgyPBpsjU3xdtvv22exvqkQkZiV6xYIRdeeKG8//77GfVDY4kaMTSc5K677nKVn8RP/mro0rCIBx980OQ60ZvwgwcPymuvvSaTJ0+WgQMHyoEDB7I6tX6OXweWifyTTz5Z+vbtKzNnzjSMNKxo8+bNWeVF5xCAAAQgAAEIQAACECgkAhgyfJrNbdu2yccff2wMAUEzBuhT9+HDhxtPig4dOphjnzAWhNgTmjoHIgAAQABJREFUJ06YcbRt29bVePzkv337dhMO8dlnn0mnTp1k4cKFxiD36quvGiOGeuesXr1aJk2a5Gos6VTyc/yqr1fynfOtnkkUCEAAAhCAAAQgAAEIQMAdAQwZ7jh5Xsu5Y4HGyAfFmHH77bebG1bdeWTQoEGydu1a6dOnj+d8wtShhmVocePF4Dd/vYlXbyLd2WblypUybtw4Offcc01Yyb333it33HGHGcuSJUtM6IX54OE/fo/fS/nqxWKLXQP2M+8QgAAEIAABCEAAAhCAQGICGDISs8nqlS5duojmirAlKMaMd99916isO2w8//zzctppp9kh8J4mgebNm5uW+/fvT9qD3/xfeOEFo+P48eOlc+fOtfSdOnWq2ZFDPQxefPHFWtczPeH3+L2U75xvDBmZrgzaQwACEIAABCAAAQiEiQC7lvg422eddZaRrkYMLfbdnjcn8+yfpk2bmm1BL7/88jzTLLjqpGLI8Ju/XaM9e/aMC1zzP2gC2Ndff1127doVt04mJ/0ev5fyrQdO/fr1xemhlQkf2kIAAhCAAAQgAAEIQCAMBDBk+DzL1mhhbxDtuz3vs3q1xM+ZM0dOOeWUWueDckKTLK5Zs8aVuvPnz5dkO4e46ihJJQ3T0PL5558nqSniN3+7u0ZdN972mq2bdFApVPB7/F7Kt/NdVFSUAgGqQgACEIAABCAAAQhAAAKEluTBGlCjxemnnx7VRI0Z+ZozI8hGjCjgPDvQpK9aWrVqlVSzsPP3e/xeyrfzrYlTrVEj6QKgAgQgAAEIQAACEIAABCAgeGTkySLQrTf1SbY1YKgxo0GDBqLnKd4RePLJJ+Xw4cOuOnTuKuGqQYqVjh49Ku+8847MnTvXtCwpKUmxB/+rP/bYY3L99ddL165dTc4Ue3Puv2b5r8Ell1wiLVu2lL1798rNN98sZWVlomtOd36hQAACEIAABCAAAQhAAAKJCWDISMwm51c0+acaMGwSQPuec0UKWKDT88WPYcYLbdG8Etdcc43MmDHDD5UykvnII4+Y3VbWrVsnq1atkuLi4oz6C1NjDSl6+umnRROnzpo1y7yc489VaJNTJscQgAAEIAABCEAAAhAIAgFCS/JoltQbw2m88PumO4/QFLQqbdq0MVvYehm2kCtguv2q7rihW/DqdryU1Ajo7kUXXHCBaMJPCgQgAAEIQAACEIAABCDgjgAeGe44Zb2WGjFsok8VpnkznNuzZl0BBOSEgDO0RZNhrl+/XkpLS2Xy5MkmlEjDNIJUxowZI/qipE5At6gdPny4rF27VkaMGCG6da1+50866R/25WyHNqWuMS0gAAEIQAACEIAABCCQHwQwZPg8D8eOHRN1yz906FBUE4wYURSeH1RUVKSUI6NZs2ae6hDrZXPOOefI1q1bTY6E++67z+Sb8FQgneUtgZdfftkYMVTBBQsWmPwYeassikEAAhCAAAQgAAEIQCCPCGDI8HEyMGLkHr7mcMi37Vc1UaaWbdu2mXf+CQcBNWBpadSoEUaMcEw5o4QABCAAAQhAAAIQ8IgAOTI8AplqNxgxUiVWuPV1LWg5ceJE3g9SE5NqcXoQxSptrwUx50fsWLL5+fjx46Z7+55NWfQNAQhAAAIQgAAEIACBQiKAR4ZPs7lp06YaN4OEk+RmIsrLy3MjKAUpBw4cMLU1aWauy6JFi6Jb/p5//vkyatSoOlXQHA67du2St956K249zfvx3nvvmWsdO3aMW8d5MlX5zrZeHPsp34YtHTlyRJSbNRJ5MS76gAAEIAABCEAAAhCAQCETwJCRB7OLESMPJsFHFfw0ZEyfPj0a0vLoo48mpTBkyBB58803ZeHChTJlyhTp3LlzjTYzZ86UgwcPSr169WTo0KE1rsX7kKr8eH1kcs5P+U7DlTJr3bp1JkOhLQQgAAEIQAACEIAABEJDAEOGT1PdvXt3adKkiTRv3ty8+6RGymI//PBD2bdvX412lZWV5vPhw4dN4lLnxZ49e0Z3YXCe5/hLAqkYMrzk/9FHH0WNGK1atUrqjaEa33jjjTJv3jz59NNPZeDAgXLbbbdJv379pKqqStS7Yfbs2WZgJSUl0qlTpy8HGecoHfl+j99L+dYjQ9FgyIizQDgFAQhAAAIQgAAEIACBBAQwZCQAk+3TDRo0kNgdLLIt04v+y8rKZPHixXG72rx5s/Tu3bvGNb3BVYMNJTEBNQpoKSoqSlzpn1e85P/SSy9F5V199dXSsGHD6OdEB+qBoQYL3XJ1+/btMm7cuFpV+/fvLw888ECt87En0pHv9/i9lO+cb7sGYhnxGQIQgAAEIAABCEAAAhCoTYBkn7WZcAYCOSWgXjlatmzZYnIl5Eq405AwceJE12JHjBhhPG+0TZcuXUxuh5YtW8pFF10kc+fOlZUrV4rT2yBRx+nKT9Rfquf9lv/BBx9EVW7atGn0mAMIQAACEIAABCAAAQhAoG4C9fbu3VutVVq0aFF3Ta4WHIHRo0fLsmXL5NJLL5U5c+ZEx9e4cWNp37599LPXB7pLg916UvtWr40+ffoYMStWrJBhw4Z5LTKv+9Mb6sGDBxsdR44cKaWlpdKhQwezJacbg0C6gzvzzDNlw4YNMmDAAFm1alW63aTdLozyKyoqTBjJunXrZNq0abJjxw7p1q2baPJfCgQgAAEIQAACEIAABCDgjgChJe44FXStZ555Rnr06BEd42WXXSbLly+Pfvb6YM+ePTXked1/0PobNGiQCdF4+OGH5YknnjAvHcP8+fNlwoQJWRnO7t27jRFDO580aVJWZNTVaVjlFxcXy5o1a6JoNJxHc45QIAABCEAAAhCAAAQgAAH3BAgtcc+KmhDIGgHdBURfGp6Ri5wiGv6hRcNa1DMn1yXM8uvXr288nsaOHSurV68OnQdSrtca8iAAAQhAAAIQgAAECo8AHhmFN6euR7R06VLXdb2s2K5dO6muNhFNXnYb+L40cWa85JnZGJjND3HVVVe5SjLqtQ5hlV9eXu41SvqDAAQgAAEIQAACEIBA6AiQIyN0U86AIQABCEAAAhCAAAQgAAEIQAACwSVAaElw5w7NIQABCEAAAhCAAAQgAAEIQAACoSOAISN0U86AIQABCEAAAhCAAAQgAAEIQAACwSWAISO4c4fmEIAABCAAAQhAAAIQgAAEIACB0BHAkBG6KWfAEIAABCAAAQhAAAIQgAAEIACB4BLAkBHcuUNzCEAAAhCAAAQgAAEIQAACEIBA6AhgyAjdlDNgCEAAAhCAAAQgAAEIQAACEIBAcAlgyAju3KE5BCAAAQhAAAIQgAAEIAABCEAgdAQwZIRuyhkwBCAAAQhAAAIQgAAEIAABCEAguAQaBFd1NM+UwO7du+XQoUO1umncuLG0b9++1nmvThw/fly2bt0at7uOHTtKUVFR3GthOVlZWWnmpU2bNtKsWbOwDDsU46yoqJBjx45J69atpUmTJqEYM4OEAAQgAAEIQAACEICA1wTwyPCaaID6u+GGG6RHjx61XhMnTszqKPbs2VNLptXjlVdeyarsfO28qqpKbrrpJnOD265dO+nevbs8/vjj+aoueqVJoLi4WLp27WoMVL169ZJFixal2RPNIAABCEAAAhCAAAQgEF4CeGSEd+4ZeZ4QOHr0qAwZMkTKy8vzRCPUyDaB6upqWb9+vZSUlIh6RpWWlmZbJP1DAAIQgAAEIAABCECgYAjgkVEwU5n+QEaNGiV6Y2Vfy5cvT9rZ+++/LxMmTJAzzjhDTjnlFGnevLkMGDBAHnzwQdHQkbqKehxYWfq+b9++uqoX/LXFixdHjRhlZWWyc+dOw0f51lU2bdokZ599ttSrV8+8zjvvvLqqe37NT/kbN26U6667zqy/hg0byqmnnir9+/eX2bNny5EjRzwfa7wO0xm/GqtUvzfeeEN69+5tur311lvliy++iCeCcxCAAAQgAAEIQAACEIBAHAIYMuJAycUpzU3x9ttvm6exuZDnpQx1h1e3+AULFphcF3pjduDAAdGwEL25HD58eM5uJr0cl199WU8MDSe56667XOUnWbFihVx44YWiBiU/ip/y1dCm60+NZpprRY0ABw8elNdee00mT54sAwcONOsxm1wyGf/JJ58sffv2lZkzZxoVNaxo8+bN2VSXviEAAQhAAAIQgAAEIFBQBDBk+DSd27Ztk48//tjciPp1M5rO0NetWyfXXHONMVR069ZNfv3rX8vatWvlueeekyuvvNJ0qTd5N998czrdh7LNiRMnzLjbtm3ravzqdaDGIvVk6dChgzl21dCjSn7K3759uwnH+Oyzz6RTp06ycOFCYxB89dVXjRFDvVNWr14tkyZN8mi0tbvxavzO+VbPJAoEIAABCEAAAhCAAAQg4I4Ahgx3nDyv5dyxQGPkg2LMuPPOO80T8K985Svy5ptvGqOGushfcskl8tvf/lauvfZaw+r+++8XvdmkJCegYRFa1KslWbn99tvNDbuG7wwaNMgYkfr06ZOsmWfX/ZavRgT1ZtKddVauXCnjxo2Tc88914SV3HvvvXLHHXeYsS5ZskQ09MPr4uX41YvEFrsG7GfeIQABCEAAAhCAAAQgAIHEBDBkJGaT1StdunQRzRVhSxCMGeo58OyzzxqVp0yZIk2bNrXqR99//OMfm+PPP/88mvchepGDuAQ0v4iW/fv3x73uPPnuu++aj7rDyfPPPy+nnXaa83LWj/2W/8ILL5gxjh8/Xjp37lxrvFOnTjU7gqiHw4svvljreqYnvBy/c74xZGQ6M7SHAAQgAAEIQAACEAgTAXYt8XG2zzrrLCNdjRha7Ls9b07m0T/qMaDhJFr69esXVzPN86Du/XojWVlZGbcOJ2sSSMWQocYj3Zb18ssvr9lJjj75Ld9+R3r27Bl3xJp/QhOgvv7667Jr1664dTI56eX4rQdO/fr1xemhlYl+tIUABCAAAQhAAAIQgEAYCGDI8HmWrdHC3qDZd3veZ/VqiG/RooVojoy6ij5ltvH+rVu3rquqL9c0yeKaNWtcyZ4/f77ZmcVV5QwqaZiEFvViSVbmzJljdolJVi9b1/2Wb3f3qOvG316zdb1k4eX47XwXFRV5qSJ9QQACEIAABCAAAQhAoOAJEFqSB1OsRovTTz89qokaM4KSMyOq9D8PnnrqKXOkT5k1dwElOQFN+qqlVatWSSvrVrd+Fr/l+zl2le3l+O18ay4Za9Twe3zIhwAEIAABCEAAAhCAQBAI4JGRJ7OkIRn6JNkaMNSY0aBBA9HzQSlHjx6Nbil56aWXinNXhnwZw5NPPimHDx92pU629Vde77zzjsydO9foU1JS4kovKn1J4LHHHpPrr79eunbtanKGWOPAlzXy90gT5LZs2VL27t1rdvkpKysz3xkNzaJAAAIQgAAEIAABCEAAAokJYMhIzCbnVzT5pxowbBJA+55zRdIU+POf/9zcmOuN2PTp09PsJbvNnJ4v2ZUUv/d4oS2a10G3tJ0xY0b8RpxNSOCRRx4xu71oyNOqVaukuLg4Yd18u6AhRU8//bRo4tJZs2aZl1PHXIU2OWVyDAEIQAACEIAABCAAgSAQILQkj2ZJvTGcxgu/b7pTQaMhJbo1pZYf/OAHcvHFF6fSPNR127RpI7qFqpdhC2EBqtuv6o4fyk+3ow1a0d2LLrjgAtFQLAoEIAABCEAAAhCAAAQg4I4AHhnuOGW9lhoxbKJPFaZ5M5zbs2ZdgQwErF+/XjQsQrdn1d1M7r777gx6K+ymztAWTUap7EpLS2Xy5MkmlEjDJCjuCYwZM0b0FcSiSXGHDx8ua9eulREjRohuHavf+ZNO+od9OduhTUFkhs4QgAAEIAABCEAAAhBQAhgyfF4Hx44dMzuBHDp0KKpJkIwY27dvNzdjVVVV0rlzZ/nDH/4gDRs2jI4l3w4qKipSypHRrFkzT4cQ62VzzjnnyNatW02OhPvuu8/ke/BUIJ3lLYGXX37ZGDH+P3tnAiZVcS3+g/DEkUV2WXwsCkFFkCFIgiHAA3yRJ0mGBwqjEQMCJkbDqBH+RmMexiQijygQlIhCopEM24eJqCguEdQYGBB8BJVdHIUJCrKpCNj/PhWr6em+PX27+3bfXn71fU3fW9up+tXpZu7pU6d0gI888khWxpTJWngMDAIQgAAEIAABCECgoAlgyPBx+XPdiLF//37RoJ67d+8W3R7x7LPPZr0XicZQyLbjVzVQpaadO3ead/4pDAJqwNJ0+umnY8QojCVnlhCAAAQgAAEIQAACHhEgRoZHIBPtJteNGHryx3e+8x156623pEGDBvL0009L586dE8VA/SAB1QVNujWHVDMBDYyqKdyDKbKFLcv2mCMnTpwwQ7fvkfPgHgIQgAAEIAABCEAAAhBwJoBHhjOXtOdu3bq12sNYLm0n0Qfu733ve6Ku8bqNROM+6GkcuZAqKiqybpgHDhwwY9KglZlO5eXloSN/u3btKsOGDcvoEBKVrzEk1APozTffdBynxh1R45qmNm3aONYJz0xUfnjbVK/ttqWjR4+KjtsaaVLtl/YQgAAEIAABCEAAAhDIdwIYMrJghXPJiKG4brrpJlmyZIk5aWH+/PkyYMCALKCYu0Pw05Chx+TaLS2PP/54xiEmKl917Y033pC5c+fKLbfcYuKyhA966tSpcvDgQdEjgAcOHBhe5HidqHzHTpLMDDdc6ZibNWuWZE80gwAEIAABCEAAAhCAQGERwJDh03p37NhR6tevL40aNTLvPg0jYbGzZ8+WGTNmmHY/+clPpFu3bqLeJU5J55crJ684jT9TeYkYMt59913R2CThqaqqytzqdp/169eHF5n1sadgVCsI3rz33nshI0bTpk1deWP4Lf/GG28U1cEjR45I3759ZfLkyeakHA02q94VVjf1FJ22bdtGTrnavd/ztx4ZOigMGdWWhhsIQAACEIAABCAAAQjUSABDRo140ldYp04diTzBIn3SvOs5fGvGlClTRF+xkm5TWLx4caxi8r8koA/lmoqKir7Mif02adIkWbBggWOFbdu2SXFxcbUyfcBXg5JTevnll0PZo0aNcnXajN/y9WQcNVjokat6Ys7o0aNDc7AXvXv3lgcffNDexnz3e/7h6211IOZgKYAABCAAAQhAAAIQgAAEQgQI9hlCwQUE/CGgXjmatm/fbmIlZGoU4Q/y48aNy5TYkJxk5Q8ZMsR4nuiY27dvb2JLNGnSRC6++GKZNWuWrFy5UsK9HUICIy6SlR/RTdK377zzTqitBswlQQACEIAABCAAAQhAAALuCNTat29fQKs2btzYXQtq5Q2B4cOHm1gXeoTqzJkzQ/OqV6+etGrVKnTv9YWe0mCPntS+1WugR48eRsyKFStk0KBBXovM6v70gbp///5mjEOHDpWysjJp3bq1OZLTzQN5spPTU2Y2b94sffr0kVWrViXbTdLtClF+ZWWl2UaiW4AmTpwo77//vpxzzjkxt2clDZeGEIAABCAAAQhAAAIQyGMCbC3J48V1O7Xly5dLp06dQtUvu+wyWbZsWeje64u9e/dWk+d1/7nWX79+/cwWiXnz5snSpUvNS+cwZ84cGTt2bFqms2fPHmPE0M7Hjx+fFhk1dVqo8ktKSmTt2rUhNHrqj8b8IEEAAhCAAAQgAAEIQAAC7gmwtcQ9K2pCIG0E9BQOfen2iFgxLbwUrtsvNOm2FvXMyXQqZPm1a9c2Hk8jR46U1atXF5wHUqZ1DXkQgAAEIAABCEAAAvlHAI+M/FtT1zPyKxCnnmQSCJgdTa7HWggVNXClU/DKdMzdxoe4+uqrXQUZ9XoMhSo/PFiu10zpDwIQgAAEIAABCEAAAoVCgBgZhbLSzBMCEIAABCAAAQhAAAIQgAAEIJAHBNhakgeLyBQgAAEIQAACEIAABCAAAQhAAAKFQgBDRqGsNPOEAAQgAAEIQAACEIAABCAAAQjkAQEMGXmwiEwBAhCAAAQgAAEIQAACEIAABCBQKAQwZBTKSjNPCEAAAhCAAAQgAAEIQAACEIBAHhDAkJEHi8gUIAABCEAAAhCAAAQgAAEIQAAChUIAQ0ahrDTzhAAEIAABCEAAAhCAAAQgAAEI5AEBDBl5sIhMAQIQgAAEIAABCEAAAhCAAAQgUCgEMGQUykozTwhAAAIQgAAEIAABCEAAAhCAQB4QqJMHc2AKSRLYs2ePHD58OKp1vXr1pFWrVlH5XmWcOHFCduzY4dhdmzZtpKioyLGsUDKrqqrMujRv3lwaNmxYKNMuiHlWVlbK8ePHpVmzZlK/fv2CmDOThAAEIAABCEAAAhCAgNcE8MjwmmgO9XfDDTdIp06dol7jxo1L6yz27t0bJdOO49VXX02r7Gzt/NChQ3LzzTebB9yWLVtKx44dZeHChdk6XMaVJIGSkhLp0KGDMVB1795dysvLk+yJZhCAAAQgAAEIQAACEChcAnhkFO7aM/MsIXDs2DEZMGCAVFRUZMmIGEa6CQQCAdmwYYOUlpaKekaVlZWlWyT9QwACEIAABCAAAQhAIG8I4JGRN0uZ/ESGDRsm+mBlX8uWLYvZ2ezZs6VWrVpxXyNHjozZh3ocWFn6vn///ph1C6FgwYIFISPGpEmT5IMPPjB8xo4dW+P0t27dKuedd15oLS644IIa63tdWMjyt2zZItddd52cffbZUrduXTnjjDOkd+/eMmPGDDl69GhM1Gqs0vI1a9ZIcXGxqXfnnXfK559/HrMNBRCAAAQgAAEIQAACEIBAdQIYMqrzyNidxqbYuHGj+TU2Y0IRlJUErCeGbie55557XMUnWbFihfTq1UvefvttX+ZUyPLV0KfbQh566CET60WNEAcPHpTXX39dJkyYIH379pUDBw7EXJdTTz1VevbsKVOnTjV1dFvRtm3bYtanAAIQgAAEIAABCEAAAhCoTgBDRnUeGbvbuXOnfPjhh+ZB1K+H0WQme+WVV4r+Gu30evTRR413gPY7cODAZLovyDZffPGFmXeLFi1czV9/9R88eLDxZGndurW5dtXQo0qFLH/Xrl1mO8gnn3wibdu2lblz5xqD5GuvvWaMGOqttHr1ahk/fnxc2uHrrZ5JJAhAAAIQgAAEIAABCEDAHQEMGe44eV4r/MQC3SOfK8YMPUVDPQciX3rSyMSJE82WCA0Wmu6AoZ4viI8d6rYETTX9im+Hd9ddd5kHZj35pV+/frJu3Trp0aOHLU77e6HLVyOOelPpyT4rV66U0aNHS5cuXcy2kvvvv19+8YtfmDVYtGiR6NabmpJ6cdhkdcDe8w4BCEAAAhCAAAQgAAEIxCaAISM2m7SWtG/fXjRWhE25ZMywY7bvn332mQwdOtRsk/nGN74hv/3tb20R7y4INGrUyNT6+OOP49betGmTqaMnnDz//PNy5plnxm3jZYVCl//iiy8anGPGjJF27dpFob311lvNiSTqYfHSSy9FlYdnhK83hoxwMlxDAAIQgAAEIAABCECgZgKcWlIzn7SWnnvuuaZ/NWJosu8232TmwD/qRq/BC8866yxZsmSJaAwAknsCiRgyGjRoYI5lvfzyy90L8LBmocu3n9Fu3bo5UlXd1wCsf//732X37t2OdWym9cCpXbu2hHto2XLeIQABCEAAAhCAAAQgAAFnAhgynLlkLNcaLewDkn23+RkbSJKCpk2bJo899pjo1pInnngi4x4CiQ5bgyyuXbvWVbM5c+ZIvJNDXHUUp5JuU9D06aefxqkpMnPmTDnttNPi1ktXhUKXb08XqcnwYMts3VhrYddbPzskCEAAAhCAAAQgAAEIQMA9AbaWuGeVtppqtFBvBpvUmJELMTPUzV6PC9WksRP0JAdS4gQ06Kumpk2bxm3spxFDB1fo8uMuUAIV7Hpr4FBr1EigOVUhAAEIQAACEIAABCBQsAQwZGTJ0mvwzHAvDDVmxAsW6PfQ1ZChQSc1aWyAxo0by7XXXiv//Oc//R5aTPnqNeJ04opT3hVXXBGzHy8Kjh07JuvXr5dZs2aZ7kpLS73olj4ySGD+/PmiW4OKi4vlo48+SkjyJZdcIk2aNBE9teb222+XqqoqEyw3oU6oDAEIQAACEIAABCAAgQIkgCEjixZdg3/aeAk6rPBggFk0zJhDOXTokDmOslevXuahLGZFHwvU8yXyxJVY93pCi9dJt7boEZ360ngK+gC8fft2ueaaa2TKlClei6O/NBPQI4c11oUapFatWpWQNN1S9Mwzz5hTT+677z4T/PeUU04J6cfDDz+cUH9UhgAEIAABCEAAAhCAQKEQwJCRRSut20nCjRfh202yaJihodx9993mF2T1LNi8ebPxytAHsXfffVfKyspC9biomUDz5s3NEap+b9uoeZSUOhHQ41f1xBE9AlePw0006elFF154oWjATxIEIAABCEAAAhCAAAQg4I4AwT7dcUp7LTVi2ECfKky3mYQfz5r2AaQgoE6dOtKpUye59957RY0a999/vyxevFg0WKYNfJhC93nVVLe26HG1mjQY5IYNG4zRZ8KECaIcr7/++ryab75PZsSIEaKvZJIe0Tp48GBZt26dDBkyxBgC9TOvxkBNLVq0SKZb2kAAAhCAAAQgAAEIQCDvCWDI8HmJjx8/btzSDx8+HBpJLhkxQoP+8uLKK680hgyd11tvvSUXXXRRZBVf7ysrK0OGhHgD0QdJr7eXRHrZnH/++bJjxw4TI2H69OkYMuItSh6Vv/LKK8aIoVN65JFHMFzk0doyFQhAAAIQgAAEIACB9BLAkJFevjX2nm9GDJ2susrbdPDgQXuZNe8lJSVZd/xqhw4dDJ+dO3dmDScGkn4CasDSdPrpp2PESD9uJEAAAhCAAAQgAAEI5BEBDBk+LWYuGjH27dtngnkqslGjRjk+fNlTTLQO+/6VQvykuqBJT68gZTcBDdCqKdyDKnLEtixezBP7WbHvkf1wDwEIQAACEIAABCAAAQg4E8CQ4cwl7bl6tKp94FFhubCdRB+09ZhVTRoT47vf/a65Dv8n/MjY1q1bhxdlxXVFRUVWjCN8EHrqhSYNGpnpVF5eLhqfRVPXrl1l2LBhGR1CrsnXGBa7d++WN99805GTxj3RLVWa2rRp41jHZtptS0ePHjXxUqyRxJbzDgEIQAACEIAABCAAAQg4E8CQ4cwlo7m5YMRQIM2aNZPOnTvLO++8IzNnznQ0ZEybNs2w04e4c845J6Mcc1WYn4aM2267TeyWlscffzzjCHNN/oABA+SNN94wnkm33HKLtGvXrhqzqVOnim6p0uN1Bw4cWK0s8ibccKVt9PNFggAEIAABCEAAAhCAAATiE8CQEZ9RWmp07NjRnOjRqFGjnDrZY9KkSTJmzBh54YUXZNCgQaKnbWhcjPfee08eeOABeeqppwyviRMnsrXEpeYkYsjQo233799freeqqipzr6ehrF+/vlpZt27dQqdgVCsI3uiaWSNG06ZNXXljFLr8G2+8UWbPni1HjhyRvn37yuTJk01A20OHDol6l8yYMcNgLi0tlbZt20Yir3ZvPTI0E0NGNTTcQAACEIAABCAAAQhAoEYCGDJqxJO+Qj1qM/IEi/RJ867n0aNHy8aNG+U3v/mNMWaoQSMy/fCHP5Qf//jHkdncxyCgD8WaioqKYtQ4ma2GpAULFpzMCLvatm2bFBcXh+WI6AN2rCNwX3755VBdjXlSt27d0H2si0KXrx4YarDQI1d37dol+nmITL1795YHH3wwMjvqPny9rQ5EVSIDAhCAAAQgAAEIQAACEIgicEpUDhkQiENAt48899xzMnToUBMHQPf2azwMjZnx9NNPG8+MOF1QHEZAvXI0bd++3cRKCCtK62W4IWPcuHFpleXUea7KHzJkiPF8UWbqjaT636RJE7n44otl1qxZsnLlSlfH9uoWLZsaNGhgL3mHAAQgAAEIQAACEIAABOIQqBU8iSKgdRo3bhynKsX5RmD48OGyZMkSufTSS03MCzu/evXqSatWreyt5+96SoM9elI7V6+BHj16GDkrVqwwW1Y8F5rFHeoDff/+/c0I1ThUVlZmDEMtWrRw9UCc7NQ03snmzZulT58+smrVqmS7SbpdIcqvrKw020h0C5Buv3r//fdNLJnwILlJA6UhBCAAAQhAAAIQgAAECoQAW0sKZKFrmuby5cvNKSS2zmWXXSbLli2zt56/7927t5o8zwXkWIf9+vUzWxTmzZsnS5cuNS+dwpw5c2Ts2LFpmc2ePXuMEUM7Hz9+fFpk1NRpocovKSmRtWvXhtDodh6NuUGCAAQgAAEIQAACEIAABNwTYGuJe1bUhEDaCMydO9echKHbE2LFtPBSuG5/0KTbWtQzJ9OpkOXXrl3beDyNHDlSVq9eXXAeSJnWNeRBAAIQgAAEIAABCOQfATwy8m9NXc9o8eLFrut6WbFly5YSCJgdTV52m/N9aeBIp+CR6ZiYjU9x9dVXuwoy6vUYClV+RUWF1yjpDwIQgAAEIAABCEAAAgVHgBgZBbfkTBgCEIAABCAAAQhAAAIQgAAEIJC7BNhakrtrx8ghAAEIQAACEIAABCAAAQhAAAIFRwBDRsEtOROGAAQgAAEIQAACEIAABCAAAQjkLgEMGbm7dowcAhCAAAQgAAEIQAACEIAABCBQcAQwZBTckjNhCEAAAhCAAAQgAAEIQAACEIBA7hLAkJG7a8fIIQABCEAAAhCAAAQgAAEIQAACBUcAQ0bBLTkThgAEIAABCEAAAhCAAAQgAAEI5C4BDBm5u3aMHAIQgAAEIAABCEAAAhCAAAQgUHAEMGQU3JIzYQhAAAIQgAAEIAABCEAAAhCAQO4SqJO7Q2fkEIAABCCQKIGqqio5fPiwNG/eXBo2bJhoc0m1fcICaZAxApWVlXL8+HFp1qyZ1K9fP2NyExGE/iVCK7fqon+5tV75Nlr0L99WNLfmk6r+pdo+t2idHC0eGSdZcAUBCEAgLwkcOnRIbr75ZvOA2rJlS+nYsaMsXLjQ9VxTbe9aEBV9JVBSUiIdOnQwBq7u3btLeXm5r+OxwtE/SyK/39G//F7fbJ8d+pftK5Tf40tV/1Jtn6t08cjI1ZVj3BCAAARcEDh27JgMGDBAKioqXNSOrpJq++geycl2AoFAQDZs2CClpaWyZ88eKSsr823I6J9v6H0TjP75hh7BQQLoH2rgJ4FU9S/V9n7OPSnZ+/btC+iLlBqBv/3tb4HgAsR87d+/PzUBtPaFwKuvvhoI/kIZqFevXmDixIlpH8O1115rdGjgwIFJyUq1fVJCaZTVBB577LHQ99KkSZMCH3zwQULjTab95s2bA+PHjzefnVNPPTUQ3MIS+PrXvx6YPn164LPPPktIfjKVkZ88/6NHjwbWrFkTKC4uNnrToEGDgOb5ldC/xMnnsv7ng/7pim3ZsiVw7rnnhr57u3TpkvhCptDCT/noXwoLF9E0me8/7cLP9fdbfiHrX7Z9f0aoc1puBUOGN1zz0ZBxyy23mP+Ev/rVr3oDKQd7+cEPfhD6Q6R27dqBEydOpHUWqRoiUm2f1snRuS8EJkyYYHQ4uJ0kKfmJtn/yyScDp59+euhzE2ng7dWrV+Djjz9OaixuGiHfG/7PP/98aA03bdrkBn1a6qB/iWHNF/3PVf3T1XruuecCjRs3Dn1+9Dswk4YMP+Wjf4l9XuPVTvT7D/3z5v+/eOsSq9wr/U/1+y/V9rHml435xMhIyo8lulHw1ysJWkCrvebOnRtdkZycInDVVVdJu3btJOiRYdyrTzmFj0xOLSCDlS+++MJQaNGiRVI0Emm/a9cusx3hk08+kbZt24p+B27cuFFee+01Cf5BJrVq1ZLVq1dL0FsjqbHEa4R87/iH60vwj5d46NNWjv65R5tP+p+L+qcrNWPGDBk8eLAEvXCldevW5tr9CqZe00/56F/q6xfZQyLff9rWz/X3Wz76d1J7suX78+SI0niFR0b67EvPPPNMyCKfi1tL8MhIn27E6jlVj4pU28caF/m5S+COO+4w30PJ/iKYSHv7naFbsXbu3BkF7e677zZjCRo0jOtrVIUUM5D/Ly86L/i/8sorof+/gtHQU1yZ5Jujf+7Z5ZP+56L+TZ48OfSZ6devXyAYXyZw++23p/T96371AwG/5aN/iayWu7qJfP/5vf5+y0f/TupUtnx/nhxR+q74eTmNRiK6hoBfBPSXbxIElECjRo0MiOB2jqSAJNL+xRdfNDLGjBljPJkiBd56663mRIzgf2ny0ksvRRanfI987/iH68sZZ5yR8tok2wH6555cPul/LupfcAuWWSw9ISro2i1nnnmm+8XzoKbf8tE/DxYxootEvv/8Xn+/5aN/J5UnW74/T44ofVd5Y8gIBpBLmFIybRIWkmSDYLAaGTdunDkKr27duuaP/6997Wty3333STCYS9xe//znP8u3vvUtc9xiMLaD1KlTx/Q1fPhwWbt2rWN7jUyvD8D2NW3aNFNP69u88Pegpdixn1Qyx44da2QNGjRINFr9vffeK8GAWXLaaacZN019QFL3sXhJ69x0003SuXNnCe7XNxy++c1vypw5c0Ku9k59bN261XGuOu/vf//7Tk0c85566inp37+/BAPlSZMmTeSSSy6RYBwVCf5KHep//fr1jm1tZirz1zVXl8QHHnhAunbtahjosZujRo2SHTt2WBEx35PVv5EjR5r56TFQTunDDz8MzV//0ItMeg621THdkhAMtmpO3ND/zJWlruGiRYsim0XdJ6P/UZ3kSUYifwg5TTmR9nrChaZu3bo5dSXBwJ9y3nnnmbLdu3c71kklE/ne8T9w4IBZCv0uqV+/firLklJb9M89vnzS/1zUP/0/So+11r+d9G+uTCe/5aN/3q94It9/fq+/3/LRv5P6ly3fnydHlL6rzH/TpmEu+sCjD0j6oKYPvW6SPrDqQ5P+gdazZ083TTJWRx+CL7/8cvn0009DMj///HOzt1z3l//pT38y1v7gSQCh8vCLe+65R2677bbwLHOtD9H6Wrp0qSxevFiGDh0aVSebMvTX2+ApB6Eh6YPPvHnzRPmoUeDss88OlYVf/PWvfzVzC7dIKsugq5V5lZeXy7Jly6SoqCi8mWfXs2fPlh/+8IfV+tOH9lWrVsnjjz9eLb+mm2Tnr33qw8dPf/pTmTJlSkiEMghGwJann37ajMU+UIYqfHmRqv5F9pfsvR7/qMa88M+BXcOf/exnctdddzl27af+63dJLENh5GDVqKaGu3Qnje+iKZxjIjITaa/fU5pqevC1ZbZuImOJV9f2aWU41bdltq5TnWTzbJ9WhlM/tszWdaqTbJ7t08pw6seW2bpOdTTP6ku6vidjyY3MR/8iicS+t2tq19ippi2zdZ3qJJtn+7QynPqxZbauUx3Ny0X9mzlzpvnRJdac0p3vt3y7pnaNneZry2xdpzrJ5tk+rQynfmyZretUR/PQv1hkYuejf979/ZOq/qXaPvYqZ1/JKdk3pMRHpEYMTWqNe/vtt+N2oHXUiKHp8OHDkk2eGVVVVSZYniqhGmZ+97vfmQcjdZm6/vrrRYNNBo/GkxtuuMFxnsGYJ/I///M/pix4OoB5aH3rrbfknXfekeXLl0ufPn3ML/XqXRA5b31wfuONN0Iv/fVe0/nnnx/KCy+PNQbTKMV/dF3+8Ic/iD6UqvFGjRMaIFB/rf/nP/8pP/rRjxwlqC5cccUVokaM4CkNpo9169bJyy+/LP/v//0/84uwstS5OiUN7BkZtFW9ANym999/3wQF1frNmzcXNWqofGX/n//5n+aXGjd96fzVaPOrX/1K/v73vxs3fPVG0VTT/G3fqj8PPfSQMWQoP3XjV+OK8vvoo4+MgcDWDX9PVf/C+0r1eurUqRI8MUf+8pe/iHqvzJ8/X8455xzTbTDWgjFmRcpIRf8j+8qXe/v92LRp06SmlGr7pITSyHcCVl80cKv9o8iPQaF/flD3X2Yu6p96jvqZ/Jbv59y9lo3+JU4U/UucWawWqepfqu1jjSsb8/PCkBHuhRHPmKEGDOt+pAuixoJs+vA9/PDDcujQIfPAbR/ee/ToIf/xH/8hs2bNkkmTJhk90l/29YE2MqmRw249+eMf/2giZiufr3zlK2ariT4UqhFDvTHUOyM8tWnTRrp37x566YO4Jv1FLjzfXiu7dCX9VVtPPND5XnTRRRIMnGWMOva0g2effdY8kEfKV+PH3r17zXYO3Zagxhg9UaZv377y61//2kR01jaPPPKIMXZEtv+3f/s3YwBRI4h96dYUt0m9ZZS/GgzUeHHdddcZ+brNR9m73Wuu81dDhHrWqEFKt6nomK0xI9b87Th17spv4sSJhp+2120meq9Jy9UrKTKlqn+R/aV6r5+Bb3/723LhhRcaA5+OW90XNcaCjjUypaL/kX0lc//EE09EGcIiDWP2Xg1u6Uy6NUkNQPq9oam0tDQhcam2V2FqfFLXWP0MqgEt0wn5yfPX7XC6LU63qAUDFooaOfVzl6mE/qVOOpf1Px/0L/UVzO0e0L/k18+L77/kpedHy0LWP7+/PzOpQXlhyIjcUhLLmKH54Q9vke0yCT6WLN0yoUmVUOM7RCb1ytCkf1zqL+2RSb/8bNI/QiNT8Gxz80v/73//e9fbcCL7yMS9GlGctr7YB3n9g1ofCCOTbt/QpA+/4ccP2XrXXHON8WpRbxQnfrZesu/qsaJJjS9qgIpMdv0i8yPv1Zo6YsSIyOyQJ0Ws+dsGys8pTkW4F41u3YhMqepfZH+p3KvXjW6RCU8aPG3YsGEmy2kLh9/6f9ZZZ4UMYNYQFus91taw8Pkmeq1bW2yMEY1HoQaE7du3i+p9+DajWP2m2j6y30cffVR0r6YaVOxnM7JOOu+Rnzx/3dIRPHlLgqfdmNhM+v+legRa/XIyJKa6luhfqgSrt89l/c8H/au+GoV3h/4ltuZef/8lJj3/ahey/vnx/emXBuWFIUPhRRolIo0ZkfeR9f1agEi51o02VvwH9ZrQBxRN6nkQmTSwo00TJkyQdATUs/2n891uIYiU0b59+1DWkSNHQtf2QtdZk24RcUrqfWMjiaeDjZ4drynW+nXq1MlpWFF5+vDrlDp06BDKdpq/LYzFT/VHg8dqssGAbBt9T1X/wvtK9ToWKzs3yzpcTr7of/icUr1Wo5Ya1ZL1PEul/ejRo40XkspXr6pMJ+Snxl+/b9UbKtKgmMl1RP+Sp53r+p/r+pf8yuVHS/Qv9XVM5fsvdem53UOh6182fH9mQoPqZEJIpmSocUJ/abdbJuxDrbo2h8fOyFYjhnI6fvy4wWWNFZHs9Ncw3f6ggYpOnDgRWWwe4PXXV91iodtP9KUP1RdccIHZHqIPE/ry8w/TqEE7ZNiH7cgi/UXQJic3Z8tPA0HGCgZp24f/em/zUn1XTxlNscbv9mEyVr3wdXOavx2/6ohTUv3RaOq6/cWONbye5Zes/oX3lep1LAbqkaFf0DYIYLgcNWDlg/6HzymRa93aYmPf6HeEet3oaURq1NR1j+cRlGr7yLGqV5GTZ1FkvXTdIz95/vr9MnjwYBPjZ8iQISaukP7fab+DnTzeUl1H9C9VgtXb57L+54P+VV+NwrtD/xJbc6+//xKTnn+1C1n//Pj+9EuD8sqQoRD1AUf/kLdGDH2311qezUYMHZ8XSWMpaFyMGTNmGI8MdS3Xl8Zo0KRbVnTvmNPWBy/k0wcE0klAT1uJdeKKyvVT/zUGjzUkxGOgD4Jeby/RrS3hSQP16nG7GuNATwCKZ8hItX24bK5zm4CeEKSBijXpZyodhotIQuhfJJHCvUf/Cnfts2Hm6F82rELhjiFV/Uu1fS6RzztDhsK3wT/DDRiaXwhGDJ2n/mqvJ3RoYMd//OMfZn+6HlGrJ3foCRh6gsmll15qYky4DT6p/eZSuvHGG+XHP/5xjUNOxx/m9tdK69kQOYB0eIFEyij0ez/1X+OSOMXucFqTTB2/arcjWU81p7HUlJdq+5r6pix7CagBTJMGO07Hd6XbmaN/bknlVz30L7/WM9dmg/7l2orl13hT1b9U2+cSzbw0ZOgCRBozcsWIoe7fmmKdca3uQvYh2dY1DRz+0YdqjRkQHjdgwYIFMnLkSBNf489//rM51cOhac5mWSb6S3esOBPpnJyeqKHp3XffdRRjv1wcCz3MjGUwCdcfa3QJF2v5Jat/tr09OSe8b70Oz4+1/SWyTbL3haj/Tqzs94XTViKn+pF5ibS3W5L0+OBYyZbF2joUq52bfOT/K36SZezEzJbF42+3Ltp3p74ykYf+uaecT/pv9c6+u6fgbc1E9M9bybnXG/rn/Zqhf+6Zon8nWdnvTft+siT/rvLWkKFLpcYMjY+hXwSRLquZWEqNR5BoatasmWmiW0Gc0vvvvx96GNQgQIkm3TOm3hr662yyv9AmKjOT9Vu1amXExeKnhfY/Bv3lPpk1qmk+Gotk4cKF5kQUHUNk0E89LSYTadu2bY5iwvXHyRsnVf2zOhlLfvipQX78yptu/a+oqHDk7memDerqtN5uxpVIezUYaxDdN99807FrNZC99dZbpkwDz8ZL5eXlofhGapC1J9bEaod87/jbbU9qfNR1s38kxmLvlJ/o+jn1gf69bbAUmv7nov456W8qeV58fjIpP5++f9E/EfTPv78/UtW/VNun8r2R8bb79u0L6IvkPYHgNo5AcEHNK/iHvSsBv/rVr0z94B+NgWCA0qg2t912mykPPoQHgqeWRJVr++BxeYH/+q//CgR/gY0qP3ToUKB+/fqmj+Ce+ajy8Iw77rjD1At6NoRnp/X62muvNTIHDhzoKEfnbJmuWLEiqs5vfvMbU65zDMYriCoP7hsLtX/ttdeiyp0yvvWtb5k2wSCSTsXV8oLbdgJBTwBTPxjHIfDCCy8EDh48GAg+2AduuummQNDQEZIfPKq1Wlu9SXX+tn3QQBNYunRpVP9Wf5Th5s2bo8pT1b9FixaF5vfcc89F9R98EDXlQYNJIGgpjip/7733Qu2DR8FGlcfL8FL/48nKlfK7777bMA0a1ZIaciLtb7nlFiMrGIg1EDSURsmzfal+Br2WosojM4Ixj0L6EAxcHFkcdY987/jr96v9rnX6vyYKvkNGouvn0EXA6owb/WX9vVt/XYtE189L/rmof076G4xPZD5H+ndZoilR/k79Z1K+l+uvc0l0/l7KR/8S54/+eff9m6r+pdreaS2zNU8wZKRvaYJB/wKNGzc2/4n1798/oIaNLVu2VHsFj9CsNoCqqqpA0JJm2gS9CwK/+93vAsGAa4GXXnop8KMf/Sj0kBw8VqhaO3uzfPny0B+f//3f/23a6QNr8FfQwNNPPx3o27evKdcHiWD8DNvM8T3oWRDq69577w0E9/4H9OHbvtQo4nWyD+LJGjKCx4cGgr/0m3Hrf4Lz5s0z412zZk1ADTf6AK1/nAd/3XI09OiDdOQaffOb3zRtlGdk2ccffxyFINxYYB8E7Pu0adNCTNNpyCguLjZ6NGXKlIDOPRgfJXDDDTeE9Kd3795R49aMVPUv+MttILin3cxR9fj+++83eqNfqldccUVo7r/+9a8d5adqyPBS/x0HmIOZt956q+GuOpFMSqS9Gi/UiKH63rZtW/P5C8bnCahRKnhySkC/d7TsyiuvjDuUXbt2hfSladOmAf0+jZeQ7x3/cEO8GmITTcmsn5MM9E8Chaj/uap/9u8j+z527FjzPRY8Njz0t5MtczLm289AMp8f/f6zfdv3TMvPl+9/9C+5/3+t3tl39C+5v39S1b9U29vvoVx4x5CR5lVSQ4R9iHV6f/LJJ6NG8MwzzwSCAdZitvva175mfuWPavhlxpgxY2K2tWNQy3W8FHQpDgRPPYjZlz6cep1SNWToeP76178GgluKYo773//9341hx2nsX/3qV2O2s+zC3++77z6nbswDfNB1PtSXynz00UcD6rFh2+sXfWRKdf7h7X/wgx+EZFmZ+q7GNX24jJVS1T81eOkf3uEyw6+HDx8eCG7vcRSfqiFDO/VK/x0HmIOZwZNKzFpcfPHFSY0+0fb6nVbT95ca0YLbBeKO5bHHHgvpkHozuU3I94a/ehHaz61bj8LwNUp2/cL70Gv0T4w3XySXWPf5ov+5qH/BrYuhz4z97NT0XtOPQcl8fvyWrzqJ/v3rk5nM+jl9phP5/vN7/f2Wj/6d1KBUvz9P9pT9VxgyMrBG6m7fs2fPQN26daP+k9MvfaekXhRqyVSvAt1molslevXqFdAHZze/TOpDs3oSWO8O3e6gD7ADBgwI/OlPf3IS6ZgXPPkloFsqgrEPQr+m2v+Ys9WQoRNRt3X9BbhTp06BoqIi8yux/iI9efLkGh+ivDJk6Bh0a08wXkBAvURsUs8Yyy/dhgz1jlCPjGCsmEAwsJ/xVLnqqqsCwTgVdjgx31PVP93WEzw5JqDu4Kq/qoeqj3/4wx8cPWHsQLwwZGhfXum/HVcuv//0pz81OhfcvxxQ42SiKZn2qj/jxo0LfX81adIkoIaUWbNmBYKBaF0Nwf6So5+XTZs2uWpjKyE/df7h28SCQYotWtfvqaxfuBD0rzD1Pxf1z8sHuWQ+P37Lt5/bfPj+Rf/+5UmUyP+/6N+/PgFe6H+q+pdqe/tZzoV3DBm5sEo5MkbdZhG59SLevVMcjxyZblLD1Acya8jYsGFDUn3QCAKJEFAPJatzQ4cONduM9HPpxitC5aTaPpGxhtf9yle+Ysbdp0+f8OyMXReifDUk6pZDjUdiPcrUJT6Z5BU/9K9w9B/9O/lJ8+rzc7LHxK4KUT76d1JHCnH9T84+EPBj/qnqX6rtw+efS9cYMnJptbJ8rOotYh+Y3L7X5FqZ5dNNanjLli0LMfrggw+S6oNGEEiUgMbUifxMzpkzx3U3qbZ3LejLiurJZMer3jWZToUqP9IjTb0Ik/G885of+pfZT4DX6+d29Ojfv0j5xd+uU6HKR//QPyXgl/6nqn+ptref/1x7PyX4xyIJAhDwmEDQMip61Kh9BX8Bl2effVaCgeuMpGDsEbFHxXosmu4gEEVg7ty5oq/g9g4JblOLKo+XkWr7eP1Hlq9cudJk6fHZwZgqkcVpvy9k+XostX43jRw50hwjPWjQoIR5e80P/Ut4CVJq4PX6JTIY9E/ET/66VoUsH/0r7PX3W/9T1b9U2yfyXZ0tdetky0AYR+4TKCsrE32RRL797W9LcOuII4o6depI8DQPxzIyIZAuAsFftUVfyaZU2yciN3jKjql+9dVXSzDGTSJNPalbqPIrKiqylh/658nSuOrEL/1H//61PH7xt8pRqPLRP/RPCfil/6nqX6rt7ec/195r6fGrOuhgIMhcGzvjhUDWEujevXuUIUN/XdZfxO+44w4JntyQtWNnYBCAAAQgAAEIQAACEIAABLKZAIaMbF4dxgYBCEAAAhCAAAQgAAEIQAACEIBANQLEyKiGgxsIQAACEIAABCAAAQhAAAIQgAAEspkAhoxsXh3GBgEIQAACEIAABCAAAQhAAAIQgEA1AhgyquHgBgIQgAAEIAABCEAAAhCAAAQgAIFsJoAhI5tXh7FBAAIQgAAEIAABCEAAAhCAAAQgUI0AhoxqOLiBAAQgAAEIQAACEIAABCAAAQhAIJsJYMjI5tVhbBCAAAQgAAEIQAACEIAABCAAAQhUI4AhoxoObiAAAQhAAAIQgAAEIAABCEAAAhDIZgJ1snlwjC29BPbs2SOHDx+OElKvXj1p1apVVL5XGSdOnJAdO3Y4dtemTRspKipyLCuUzKqqKrMuzZs3l4YNGxbKtAtinpWVlXL8+HFp1qyZ1K9fvyDmzCQhAAEIQAACEIAABCDgNQE8MrwmmkP93XDDDdKpU6eo17hx49I6i71799V1j+8AAEAASURBVEbJtON49dVX0yo7Wzs/dOiQ3HzzzeYBt2XLltKxY0dZuHBhtg6XcSVJoKSkRDp06GAMVN27d5fy8vIke6IZBCAAAQhAAAIQgAAECpcAHhmFu/bMPEsIHDt2TAYMGCAVFRVZMiKGkW4CgUBANmzYIKWlpaKeUWVlZekWSf8QgAAEIAABCEAAAhDIGwJ4ZOTNUiY/kWHDhok+WNnXsmXL4na2ZcsWue666+Tss8+WunXryhlnnCG9e/eWGTNmyNGjR2tsrx4HVpa+79+/v8b6+V64YMGCkBFj0qRJ8sEHHxg+Y8eOjTn1VPjH7DSBAuQnp/9qrNLPx5o1a6S4uNgQv/POO+Xzzz9PgD5VIQABCEAAAhCAAAQgUNgEau3bty+gCBo3blzYJDI8e41NsXPnztBWggyLN+KGDx8uS5YsETVkLF682PUQ1NAxYsQI+eSTTxzb9OrVS5577jlj3HCsEJH58ccfh/RvxYoVMmjQoIga+X2rv8ZPnz7dbCdRA0G85DX/ePIiy5Hvjf6/8MILIV3ftGmTnHfeeZGouYcABCAAAQhAAAIQgAAEHAjgkeEAJRNZasT48MMP5e233zavTMj0QsauXbuMO7waMdq2bStz586VjRs3ymuvvSYTJkyQWrVqyerVq2X8+PFeiCuIPr744gszzxYtWsSdr9/8ke+d/oevt3omkSAAAQhAAAIQgAAEIAABdwSIkeGOk+e19MQCNWRo0j3yms4991zzns3/6NYR9SbRk01Wrlwp7dq1Cw1Xt5boSRt33HGHLFq0SH75y18aL4NQBS4cCei2HE0HDhxwLA/P9Js/8r3T/4MHD4aW1upAKIMLCEAAAhCAAAQgAAEIQCAmATwyYqJJb0H79u1FY0XYpMYM9c7I9vTiiy+aIY4ZM6aaEcOO+9ZbbzUnMugvzC+99JLN5r0GAo0aNTKlusUmXvKbP/K90//w9caQEU/zKYcABCAAAQhAAAIQgMBJAhgyTrLI+JV6YOSaMcN6j3Tr1s2R16mnnhra6797927HOmRWJ5CIIcNv/sj/l/eUF/pvPXBq164t6qFFggAEIAABCEAAAhCAAATcEcCQ4Y5T2mrlmjHDnq5Q04OXLbN10wYviY579uxp4nhoLI94r4cffjgJCYk30W06mj799NO4jS1Ty9ipgS2zdZ3qJJtn+7QynPqxZbauU51k82yfVoZTP7bM1nWqk2ye7dPKcOrHltm6TnU0z653UVFRrCrkQwACEIAABCAAAQhAAAIOBDBkOEDJdJYaM84666yQ2FzZZhIaMBcpEbCxUpo2bZpSPzTOLQJ2vTVwrjVq5NYMGC0EIAABCEAAAhCAAAT8IYAhwx/uUVI7duxYLdinGjO2bt0aVS/bMubPny+6NaK4uFg++uijbBte1HieeOIJ0SNO3byuuOKKqPZeZhw7dkzWr18vs2bNMt2WlpYm3L3f/JGfvP5fcskl0qRJE9FTa26//XapqqoSTi9J+CNAAwhAAAIQgAAEIACBAiSAISOLFl3jZdh4CTqs8GCAWTTMakN59NFHzWkb+kC+atWqamXZeKOeL2o0cvNq2LCh51MI39qi8UTUALR9+3a55pprZMqUKQnL85s/8pPXf91S9Mwzz0iXLl3kvvvuM/FyTjnllNCWp0xtbUpY6WgAAQhAAAIQgAAEIAABnwlgyPB5AcLF66kl4caL8O0m4fWy6Xr06NGiJy706NFD+vXrl01Dy5mx6JG1yu+0005LeMx+80d+avqvpxddeOGFogE/SRCAAAQgAAEIQAACEICAOwJ13FWjVroJqBHDngihsiKDgKZbfrL9jxgxQvRFckdAt7Z89tlnprIGg9ywYYOUlZXJhAkTpE6dOnL99de76+jLWn7zR37y+q/bSAYPHizr1q2TIUOGiB5drF5Z6pWhqUWLFl+uMm8QgAAEIAABCEAAAhCAQDgBDBnhNHy4Pn78uImTcPjw4ZD0XDFihAacQxeVlZUhQ0K8YeuDpNfbSyK9bM4//3zZsWOHiZEwffr0hA0Z8eZAefYSeOWVV4wRQ0f4yCOPYLjI3qViZBCAAAQgAAEIQAACWUYAQ4aPC4IRI/PwS0pKZO3ata4Ez5kzR8aOHeuqbiqVOnToYJrv3LkzlW5om2ME1ICl6fTTT8eIkWNrx3AhAAEIQAACEIAABPwlQIwMn/jnqhFDA1RqCvcgiURoy5KJ+RDZVyHcqy5o0tMr4iW/+SPfO/0/ceKEWW77Hm/tKYcABCAAAQhAAAIQgAAE/kUAjwyfNEGPVrUP/DqEXNlOonv4d+/eLW+++aYjOY378NZbb5myNm3aONbxM7OiosJP8Y6yDxw4YPI1aGq85DX/8vJy0fgsmrp27SrDhg2rcQjI907/7balo0ePin5urJGoxgWgEAIQgAAEIAABCEAAAhAQPDKyQAlyxYihqAYMGGCIzZ07V959990oelOnTpWDBw+aIyQHDhwYVU5GNIFEDBle87/ttttk8uTJ5qUP1PES8r3T/3DDlX5mSBCAAAQgAAEIQAACEICAOwIYMtxx8rxWx44dRV89e/Y0JxV4LiBNHd54441Sr149OXLkiPTt21d+//vfyz/+8Q95/fXXzekbP/vZz4zk0tJSadu2bZpGkV/dJmLI8JL/e++9JzYuR9OmTeN6Yyh15Hun/9YjQ7liyFAKJAhAAAIQgAAEIAABCLgjwNYSd5w8r6VHbUaeYOG5kDR02K5dO9HtCHrs5q5du2T06NFRUnr37i0PPvhgVD4ZzgTUKKSpqKjIuUJYrpf8X3755VDPo0aNkrp164buY10g3zv9D19vqwOxuJMPAQhAAAIQgAAEIAABCJwkgEfGSRZcuSQwZMgQc2TsuHHjpH379mZvf5MmTeTiiy+WWbNmycqVKz0/ttTl0HKyWqNGjcy4t2/fbmIlxJuEV/zDDRm6lm4T8r3R/3feeSeEvEGDBqFrLiAAAQhAAAIQgAAEIACBmgnU2rdvX0CrNG7cuOaalOYdgeHDh8uSJUvk0ksvlZkzZ4bmp1tHWrVqFbr3+kJPabBHT2rfhw4dkh49ehgxK1askEGDBnktMqv7U4NC//79zRiHDh1qtui0bt3aHMkZvv3A60l07txZNm/eLH369JFVq1Z53X3c/gpRfmVlpdlGsn79epk4caK8//77cs4554gG/yVBAAIQgAAEIAABCEAAAu4IsLXEHae8rrV8+XLp1KlTaI6XXXaZLFu2LHTv9cXevXuryfO6/1zrr1+/fmaLzrx582Tp0qXmpXOYM2eOjB07Ni3T2bNnjzFiaOfjx49Pi4yaOi1U+SUlJbJ27doQGt3OM3v27NA9FxCAAAQgAAEIQAACEIBAfAJsLYnPiBoQSDsBPQVGX7o9p379+mmXp9t/NOm2FvXMyXQqZPm1a9c2Hk8jR46U1atXF5wHUqZ1DXkQgAAEIAABCEAAAvlHAI+M/FtT1zNavHix67peVmzZsqUEAmZHk5fd5nxfGjjVKXhqOiZm42NcffXVroKMej2GQpVfUVHhNUr6gwAEIAABCEAAAhCAQMERIEZGwS05E4YABCAAAQhAAAIQgAAEIAABCOQuAbaW5O7aMXIIQAACEIAABCAAAQhAAAIQgEDBEcCQUXBLzoQhAAEIQAACEIAABCAAAQhAAAK5SwBDRu6uHSOHAAQgAAEIQAACEIAABCAAAQgUHAEMGQW35EwYAhCAAAQgAAEIQAACEIAABCCQuwQwZOTu2jFyCEAAAhCAAAQgAAEIQAACEIBAwRHAkFFwS86EIQABCEAAAhCAAAQgAAEIQAACuUsAQ0burh0jhwAEIAABCEAAAhCAAAQgAAEIFBwBDBkFt+RMGAIQgAAEIAABCEAAAhCAAAQgkLsE6uTu0Bl5qgT27Nkjhw8fjuqmXr160qpVq6h8rzJOnDghO3bscOyuTZs2UlRU5FhWKJlVVVVmXZo3by4NGzYslGkXxDwrKyvl+PHj0qxZM6lfv35BzJlJQgACEIAABCAAAQhAwGsCeGR4TTSH+rvhhhukU6dOUa9x48aldRZ79+6NkmnH8eqrr6ZVdrZ2fujQIbn55pvNA27Lli2lY8eOsnDhwmwdLuNKkkBJSYl06NDBGKi6d+8u5eXlSfZEMwhAAAIQgAAEIAABCBQuATwyCnftmXmWEDh27JgMGDBAKioqsmREDCPdBAKBgGzYsEFKS0tFPaPKysrSLZL+IQABCEAAAhCAAAQgkDcE8MjIm6VMfiLDhg0TfbCyr2XLlrnqbOvWrXLeeedJrVq1zOuCCy5w1U49Dqwsfd+/f7+rdvlaacGCBSEjxqRJk+SDDz4wfMaOHRtzylu2bJHrrrtOzj77bKlbt66cccYZ0rt3b5kxY4YcPXo0ZjuvCpCfHH81Vun6rFmzRoqLi81y3HnnnfL55597tTT0AwEIQAACEIAABCAAgbwnUGvfvn0BnWXjxo3zfrLZNEGNTbFz587QVgI/xjZ8+HBZsmSJqCFj8eLFCQ1hxYoVMmLEiGpGiC5dusjGjRsT6kcrf/zxxyH9034HDRqUcB+53EB/jZ8+fbrZTqIGgnhJDU3K/pNPPnGs2qtXL3nuueeMccOxQoqZyPeG/wsvvBDS9U2bNhmjYIpLQ3MIQAACEIAABCAAAQgUBAE8MnxaZjVifPjhh/L222+bl0/DSEqs/uo/ePBgY8Ro3bq1uU6qIxoZAl988YV5b9GiRVwiu3btMtsR1IjRtm1bmTt3rjEevfbaazJhwgTjGbN69WoZP3583L6SqYB87/iHr7d6JpEgAAEIQAACEIAABCAAAXcEiJHhjpPntfTEAjVkaNI98prOPfdc857N/9x1113y85//3AyxX79+otsiZs6cKc8880w2Dzurx6bbQjQdOHAg7jjViKTePHqyzMqVK6Vdu3ahNrq1RE86ueOOO2TRokXyy1/+0nh5hCp4cIF87/gfPHgwtCJWB0IZXEAAAhCAAAQgAAEIQAACMQngkRETTXoL2rdvLxorwiY1Zqh3RrYndYHXpCdsPP/883LmmWdm+5CzfnyNGjUyY9QtNvHSiy++aKqMGTOmmhHDtrv11lvNiRj6C/9LL71ksz17R753/MPXG0OGZypKRxCAAAQgAAEIQAACBUAAQ4aPi6weGLlmzGjQoIE5FnTatGlSpw4OPV6oTyKGDOu9061bN0fRp556aijWwu7dux3rpJKJ/H95T3nB33rg1K5dW9RDiwQBCEAAAhCAAAQgAAEIuCOAIcMdp7TVyjVjhm4jufzyy9PGI90d9+zZM3TKij1tJdb7ww8/nO7hmP51m4imTz/91LzX9I893aKmB19bZuvW1F+iZbZPK8OpvS2zdZ3qJJtn+7QynPqxZbauU51k82yfVoZTP7bM1nWqo3l2vYuKimJVIR8CEIAABCAAAQhAAAIQcCCAIcMBSqaz1Jhx1llnhcRm8zaT0047LTROLrwhYGOlNG3a1JsO6SUnCNj11sCt1qiREwNnkBCAAAQgAAEIQAACEPCZAIYMnxfAiu/YsWO1YJ9qzNi6dast5t0jAk888YToEaduXldccYVHUp27OXbsmKxfv15mzZplKpSWljpXrCF3/vz5oltTiouL5aOPPqqhZnqKkJ88/0suuUSaNGkiemrN7bffLlVVVcLpJenRU3qFAAQgAAEIQAACEMgvAhgysmg9NV6GjZegwwoPBphFw8zpoajnixqN3LwaNmzo+VzDt7ZoPAs1QGzfvl2uueYamTJlSsLyHn30UXPaiRpEVq1alXD7VBsgP3n+uqVIT/vp0qWL3HfffSZezimnnBLa+pSprU2p6gDtIQABCEAAAhCAAAQgkGkCGDIyTbwGeXpqSbjxIny7SQ3NKMpxAnpkao8ePSSZbTujR48WPfFC2+txuJlOyE+Nv55edOGFF4oG/CRBAAIQgAAEIAABCEAAAu4IcOyEO05pr6VGDHsihAqLDAKa9gEgICMEdGvLZ599ZmRpMMgNGzZIWVmZTJgwwZwCc/311yc0jhEjRoi+/ErIT56/biMZPHiwrFu3ToYMGSJ6dK56ZalXhqYWLVr4tazIhQAEIAABCEAAAhCAQFYTwJDh8/IcP37cxEk4fPhwaCQYMUIoPL+orKwMGRLida4Pkl5vL4n0sjn//PNlx44dJkbC9OnTJVFDRrw5UJ69BF555RVjxNARPvLIIxgusnepGBkEIAABCEAAAhCAQJYRwJDh44JgxMg8/JKSElm7dq0rwXPmzJGxY8e6qptKpQ4dOpjmO3fuTKUb2uYYATVgaTr99NMxYuTY2jFcCEAAAhCAAAQgAAF/CRAjwyf+GDF8Ap+FYlUXNOnpFfGSBgjVFO7BE9nGliUTcyOyr8h75HvH/8SJEwavfY9kzT0EIAABCEAAAhCAAAQg4EwAjwxnLmnP1aNV7QOnCmM7SdqRGwEVFRWZEZSAlAMHDpjaGrQzXtIYCrt375Y333zTsarG3XjrrbdMWZs2bRzrhGeWl5eLxmfR1LVrVxk2bFh4cdQ18r3jb7ctHT16VHTdrJEoCjoZEIAABCAAAQhAAAIQgEA1AnhkVMPhzw1GDH+4Z4vURAwZAwYMMMOeO3euvPvuu1FTmDp1qhw8eNAc4Tlw4MCo8siM2267TSZPnmxe+kAdLyHfO/7hhitdMxIEIAABCEAAAhCAAAQg4I4AHhnuOHleq2PHjlK/fn1p1KiRefdcQJo61Ifn/fv3V+u9qqrK3OtpHOvXr69W1q1bt9ApDNUKuAkRSMSQceONN8rs2bPlyJEj0rdvX2OAuOiii+TQoUOi3hUzZsww/ZaWlkrbtm1DMpwu3nvvPbFxOZo2bRrXG0P7QL53/K1HhnJVQ0azZs30kgQBCEAAAhCAAAQgAAEIxCGAISMOoHQV16lTRyJPsEiXLC/7nTRpkixYsMCxy23btklxcXG1Mn3AVoMNKTYBNUpoKioqil3py5J27doZg4Uee7pr1y4ZPXp0VJvevXvLgw8+GJUfmfHyyy+HskaNGiV169YN3ce6QL53/MPX2+pALO7kQwACEIAABCAAAQhAAAInCbC15CQLriDgCwH1ytG0fft2Eysh3iCGDBliPF/GjRsn7du3N7EVmjRpIhdffLHMmjVLVq5c6erY2HBDhvblNiHfG/7vvPNOCHmDBg1C11xAAAIQgAAEIAABCEAAAjUTqLVv376AVmncuHHNNSnNOwLDhw+XJUuWyKWXXiozZ84Mza9evXrSqlWr0L3XF3pKgz16UvtWr40ePXoYMStWrJBBgwZ5LTKr+1ODQv/+/c0Yhw4dKmVlZdK6dWtzJGf49gOvJ9G5c2fZvHmz9OnTR1atWuV193H7K0T5lZWVZhuJbsGaOHGivP/++3LOOeeIBv8lQQACEIAABCAAAQhAAALuCLC1xB2nvK61fPly6dSpU2iOl112mSxbtix07/XF3r17q8nzuv9c669fv35mi8i8efNk6dKl5qVzmDNnjowdOzYt09mzZ48xYmjn48ePT4uMmjotVPklJSWydu3aEBrdzqMxT0gQgAAEIAABCEAAAhCAgHsCbC1xz4qaEEgbAT2FRF+6PSQTMUV0+4km3dainjmZToUsv3bt2sbjaeTIkbJ69eqC80DKtK4hDwIQgAAEIAABCEAg/wjgkZF/a+p6RosXL3Zd18uKLVu2lEDA7Gjystuc70sDdzoF70zHxGx8jKuvvtpVkFGvx1Co8isqKrxGSX8QgAAEIAABCEAAAhAoOALEyCi4JWfCEIAABCAAAQhAAAIQgAAEIACB3CXA1pLcXTtGDgEIQAACEIAABCAAAQhAAAIQKDgCGDIKbsmZMAQgAAEIQAACEIAABCAAAQhAIHcJYMjI3bVj5BCAAAQgAAEIQAACEIAABCAAgYIjgCGj4JacCUMAAhCAAAQgAAEIQAACEIAABHKXAIaM3F07Rg4BCEAAAhCAAAQgAAEIQAACECg4AhgyCm7JmTAEIAABCEAAAhCAAAQgAAEIQCB3CWDIyN21Y+QQgAAEIAABCEAAAhCAAAQgAIGCI4Aho+CWnAlDAAIQgAAEIAABCEAAAhCAAARyl0Cd3B06I0+VwJ49e+Tw4cNR3dSrV09atWoVle9VxokTJ2THjh2O3bVp00aKioocywols6qqyqxL8+bNpWHDhoUy7YKYZ2VlpRw/flyaNWsm9evXL4g5M0kIQAACEIAABCAAAQh4TQCPDK+J5lB/N9xwg3Tq1CnqNW7cuLTOYu/evVEy7TheffXVtMrO1s4PHTokN998s3nAbdmypXTs2FEWLlyYrcNlXEkSKCkpkQ4dOhgDVffu3aW8vDzJnmgGAQhAAAIQgAAEIACBwiWAR0bhrj0zzxICx44dkwEDBkhFRUWWjIhhpJtAIBCQDRs2SGlpqahnVFlZWbpF0j8EIAABCEAAAhCAAATyhgAeGXmzlMlPZNiwYaIPVva1bNmyuJ29/fbbMnbsWDn77LPltNNOk0aNGkmfPn3koYceEt06UlNSjwMrS9/3799fU/W8L1uwYEHIiDFp0iT54IMPDB/lW1PaunWrnHfeeVKrVi3zuuCCC2qq7nmZn/K3bNki1113ndG/unXryhlnnCG9e/eWGTNmyNGjRz2fa2SHycpXY5WOb82aNVJcXGy6vfPOO+Xzzz+PFME9BCAAAQhAAAIQgAAEIBCDAB4ZMcCkO1tjU+zcuTO0lSDd8rzsX93hv//971d7YNSHM90Woq/FixfLk08+KfqASYpPwHpi6HaSe+65J36DYI0VK1bIiBEjfDMC+SlfDW06908++STESg0Br7/+unk9/vjj8txzzxnjRqiChxepyj/11FOlZ8+eMnXqVBk0aJDotqJt27YZo5SHw6QrCEAAAhCAAAQgAAEI5C0BPDJ8Wlo1Ynz44Yeing36ypW0fv16ueaaa4wR45xzzpHf//73sm7dOvPgeNVVV5lp6EPu7bffnitT8n2cX3zxhRlDixYtXI1FvQ4GDx5sjBitW7c2164aelTJT/m7du0y2zHUiNG2bVuZO3eubNy4UV577TWZMGGC8UxZvXq1jB8/3qPZVu/GS/nh662eSSQIQAACEIAABCAAAQhAwB0BDBnuOHleK/zEAt0jnyvGjLvvvtu4wf/7v/+7vPHGG8aooS7yl1xyifzxj3+Ua6+91rB64IEHqv1i7jnAPOpQt0VoOnDgQNxZ3XXXXeaBXbfv9OvXzxiRevToEbedVxX8lq9GFPVm0pN1Vq5cKaNHj5YuXbqYbSX333+//OIXvzBTXbRokejWF6+Tl/IPHjwYGp7VgVAGFxCAAAQgAAEIQAACEIBATAIYMmKiSW9B+/btRWNF2JQLxgz1HHj22WfNkG+55RZp0KCBHX7o/Sc/+Ym5/vTTT0NxH0KFXDgS0Pgimj7++GPH8vDMTZs2mVs94eT555+XM888M7w47dd+y3/xxRfNHMeMGSPt2rWLmu+tt95qTgRRD4eXXnopqjzVDC/lh683hoxUV4b2EIAABCAAAQhAAAKFRIAYGT6u9rnnnmukqxFDk323+SYzi/5RjwHdTqLpoosuchyZxnnQ4JP6IFlVVeVYh8zqBBIxZKjxSI9lvfzyy6t3kqE7v+Xbz0i3bt0cZ6zxJzQA6t///nfZvXu3Y51UMr2Ubz1wateuLeEeWqmMj7YQgAAEIAABCEAAAhAoBAIYMnxeZWu0sA9I9t3m+zy8auIbN24sGiOjpqS/Mtv9/s2aNaupqi9lGmRx7dq1rmTPmTPHnMziqnIKlXSbhCb1YomXZs6caU6JiVcvXeV+y7ene9T04G/LbF0vWdg+rQynvm2ZretUR/PsehcVFcWqQj4EIAABCEAAAhCAAAQg4ECArSUOUDKdpUaLs846KyRWjRm5EjMjNOgvL5566ilzpb8ya+wCUnwCGvRVU9OmTeNW1qNu/Ux+y/dz7l7LtuutgUutUcNrGfQHAQhAAAIQgAAEIACBfCSAISNLVlW3ZIR7YagxIx3BCtM53WPHjpkjJVXGpZdeKuGnMqRTbiJ9P/HEE7JlyxZXryuuuCKRrhOuq7zUw2XWrFmmbWlpacJ9FHqD+fPni27N0YCzH330UcZxpCJfA+Q2adJENPaMnvKjW7GsN1PGJ4JACEAAAhCAAAQgAAEI5BABDBlZtFga/NPGS9BhhQcDzKJhxhzKr371K/nHP/5hYmTcdtttMev5WaCeL2o0cvNq2LCh50PVrS0aQ0RfGs9BH8C3b99uTn+ZMmWK5/LyvcNHH33UnPaiBqFVq1ZlfLqpyNctRc8884zxXLrvvvtM8N9TTjklpB8PP/xwxueDQAhAAAIQgAAEIAABCOQCAQwZWbRKup0k3HgRvt0ki4bpOBTdUqJHc2r60Y9+JN/4xjcc65EZTaB58+aiR6iybSOaTbwcPX5VT/xQfnocbaZTqvL19KILL7xQdCsWCQIQgAAEIAABCEAAAhBwR4Bgn+44pb2WGjFsoE8VpttMwo9nTfsAUhCwYcMG0W0R6iKvp5n87//+bwq95XdT3dry2WefmUlqMEhlV1ZWJhMmTJA6derI9ddfn98APJ7diBEjRF9+pVTk6zaSwYMHy7p162TIkCGiR8fqZ169MjRl49YsvzgjFwIQgAAEIAABCEAAAuEEMGSE0/Dh+vjx4yZOwuHDh0PSc8mIsWvXLvMwdujQIWnXrp385S9/kbp164bmkm0XlZWVIUNCvLHpg6TX20sivWzOP/982bFjh4mRMH36dAwZ8RYlj8pfeeUVY8TQKT3yyCMYLvJobZkKBCAAAQhAAAIQgEB6CWDISC/fGnvPdSPG/v37TVDP3bt3i26PePbZZ7Pei6SkpCTrjl/t0KGD0ZOdO3fWqC8U5hcBNWBpOv300zFi5NfSMhsIQAACEIAABCAAgTQTIEZGmgHH6j7XjRi6PeI73/mOvPXWW9KgQQN5+umnpXPnzrGmS34NBFQXNOnWHFLNBDRAqqZwD6bIFrYsHTFHvJR/4sQJM3T7HjkP7iEAAQhAAAIQgAAEIAABZwJ4ZDhzSXuuHq1qH7hUWC5tJ9EH7u9973uirvG6jUTjPuhpHLmQKioqsm6YBw4cMGPSoJWZTuXl5aLxWTR17dpVhg0bltEhJCpfY0ioB9Cbb77pOE6NO6LGNU1t2rRxrBOe6ad8u23p6NGjouO2RpLw8XENAQhAAAIQgAAEIAABCEQTwJARzSTjOblkxFA4N910kyxZssSctDB//nwZMGBAxpnlk0A/DRl6TK7d0vL4449nHGui8lXX3njjDZk7d67ccsstJi5L+KCnTp0qBw8eNEeYDhw4MLzI8dpP+eGGKx1zs2bNHMdIJgQgAAEIQAACEIAABCBQnQCGjOo8MnbXsWNHqV+/vjRq1Mi8Z0xwioJmz54tM2bMML385Cc/kW7duol6lzglnV+unLziNP5M5SViyHj33XdFY5OEp6qqKnOr233Wr18fXmTWx56CUa0gePPee++FjBhNmzZ15Y3ht/wbb7xRVAePHDkiffv2lcmTJ5uTcjTYrHpXWN3UU3Tatm0bOeVq98nM30v51iNDB4Uho9rScAMBCEAAAhCAAAQgAIEaCWDIqBFP+gr1qM3IEyzSJ827nsO3ZkyZMkX0FSvpNoXFixfHKib/SwL6UK6pqKjoy5zYb5MmTZIFCxY4Vti2bZsUFxdXK9MHfDUoOaWXX345lD1q1ChXp834LV9PxlGDhR57qifmjB49OjQHe9G7d2958MEH7W3M92Tm76X88PW2OhBzsBRAAAIQgAAEIAABCEAAAiECBPsMoeACAv4QUK8cTdu3bzexEjI1ivAH+XHjxmVKbEhOsvKHDBliPE90zO3btzexJZo0aSIXX3yxzJo1S1auXOnq2Fy/5b/zzjshFhowlwQBCEAAAhCAAAQgAAEIuCNQa9++fQGt2rhxY3ctqJU3BIYPH25iXVx66aUyc+bM0Lzq1asnrVq1Ct17faGnNNijJ7Vv9Rro0aOHEbNixQoZNGiQ1yKzuj99oO7fv78Z49ChQ6WsrExat25tjuQM337g9ST0lJnNmzdLnz59ZNWqVV53H7e/QpRfWVlptpHoFqCJEyfK+++/L+ecc07M7VlxIVIBAhCAAAQgAAEIQAACBUiArSUFuOiRU16+fLl06tQplH3ZZZfJsmXLQvdeX+zdu7eaPK/7z7X++vXrZ7ZIzJs3T5YuXWpeOoc5c+bI2LFj0zKdPXv2GCOGdj5+/Pi0yKip00KVX1JSImvXrg2h0VN/NOYHCQIQgAAEIAABCEAAAhBwT4CtJe5ZURMCaSOgp3DoS7dHxIpp4aVw3X6hSbe1qGdOplMhy69du7bxeBo5cqSsXr264DyQMq1ryIMABCAAAQhAAAIQyD8CeGTk35q6npFfgTj1JJNAwOxocj3WQqiogSudglemY+42PsTVV1/tKsio12MoVPnhwXK9Zkp/EIAABCAAAQhAAAIQKBQCxMgolJVmnhCAAAQgAAEIQAACEIAABCAAgTwgwNaSPFhEpgABCEAAAhCAAAQgAAEIQAACECgUAhgyCmWlmScEIAABCEAAAhCAAAQgAAEIQCAPCGDIyINFZAoQgAAEIAABCEAAAhCAAAQgAIFCIYAho1BWmnlCAAIQgAAEIAABCEAAAhCAAATygACGjDxYRKYAAQhAAAIQgAAEIAABCEAAAhAoFAIYMgplpZknBCAAAQhAAAIQgAAEIAABCEAgDwhgyMiDRWQKEIAABCAAAQhAAAIQgAAEIACBQiGAIaNQVpp5QgACEIAABCAAAQhAAAIQgAAE8oBAnTyYA1NIksCePXvk8OHDUa3r1asnrVq1isr3KuPEiROyY8cOx+7atGkjRUVFjmWFkllVVWXWpXnz5tKwYcNCmXZBzLOyslKOHz8uzZo1k/r16xfEnJkkBCAAAQhAAAIQgAAEvCaAR4bXRHOovxtuuEE6deoU9Ro3blxaZ7F3794omXYcr776alplZ2vnhw4dkptvvtk84LZs2VI6duwoCxcuzNbhMq4kCZSUlEiHDh2Mgap79+5SXl6eZE80gwAEIAABCEAAAhCAQOESwCOjcNeemWcJgWPHjsmAAQOkoqIiS0bEMNJNIBAIyIYNG6S0tFTUM6qsrCzdIukfAhCAAAQgAAEIQAACeUMAj4y8WcrkJzJs2DDRByv7WrZsWczOZs+eLbVq1Yr7GjlyZMw+1OPAytL3/fv3x6xbCAULFiwIGTEmTZokH3zwgeEzduzYGqe/detWOe+880JrccEFF9RY3+tCP+Vv2bJFrrvuOjn77LOlbt26csYZZ0jv3r1lxowZcvToUa+nGtVfsvLVWKXjW7NmjRQXF5t+77zzTvn888+jZJABAQhAAAIQgAAEIAABCDgTwJDhzCXtuRqbYuPGjebX2LQLQ0BWE7CeGLqd5J577nEVn2TFihXSq1cvefvtt32Zm5/y1dCm2zIeeughE2tFjQAHDx6U119/XSZMmCB9+/aVAwcOpI1LqvJPPfVU6dmzp0ydOtWMUbcVbdu2LW3jpWMIQAACEIAABCAAAQjkGwEMGT6t6M6dO+XDDz80D6J+PYwmM/Urr7xS9Ndop9ejjz5qvAO034EDBybTfUG2+eKLL8y8W7Ro4Wr+6nUwePBg48nSunVrc+2qoUeV/JS/a9cusx3jk08+kbZt28rcuXONQfC1114zRgz1Flq9erWMHz/eo9lW78ZL+eHrrZ5JJAhAAAIQgAAEIAABCEDAHQEMGe44eV4r/MQC3SOfK8YMPUVDPQciX3rSyMSJE82WCA0Wmu6AoZ4viI8d6rYITW68CO666y7zwK4nv/Tr10/WrVsnPXr0yNjo/ZavRhT1ZtKTdVauXCmjR4+WLl26mG0l999/v/ziF78wLBYtWiS69cXr5KV89SKxyeqAvecdAhCAAAQgAAEIQAACEIhNAENGbDZpLWnfvr1orAibcsmYYcds3z/77DMZOnSo2SbzjW98Q37729/aIt5dEGjUqJGp9fHHH8etvWnTJlNHTzh5/vnn5cwzz4zbxssKfst/8cUXzXTGjBkj7dq1i5rarbfeak4EUQ+Hl156Kao81Qwv5YevN4aMVFeG9hCAAAQgAAEIQAAChUQAQ4aPq33uuefmhTFD3fg1eOFZZ50lS5YsEY0BQHJPIBFDRoMGDcyxrNOmTZM6dTJ/6JDf8tXgp6lbt26OgFX3NACqpt27dzvWSSXTS/nWA6d27doS7qGVyvhoCwEIQAACEIAABCAAgUIgkPknoUKgmsAc1ZihyT4g2Xebn0BXvlTVB+rHHntMdGvJE088kXEPgUQnrUEW165d66rZnDlzJN7JIa46ilNJt0lo+vTTT+PUFJk5c6acdtppceulq4Lf8u3pHjU9+NsyW9dLFrZPK8Opb1tm6zrV0Ty73vrZIUEAAhCAAAQgAAEIQAAC7gngkeGeVdpqqtFCvRlsUmNGLsTMUDd7PS5Uk8ZO0JMkSIkT0KCvmpo2bRq3sZ9GDB2c3/LjAsqhCna9NXCpNWrk0PAZKgQgAAEIQAACEIAABHwjgCHDN/TVBWvwzHAvDDVmpCNYYXWpqd2pIUODTmrS2ASNGzeWa6+9Vv75z3+m1nEaW6vXiNOJK055V1xxRRpHInLs2DFZv369zJo1y8gpLS1Nq7x87Hz+/PmiW3OKi4vlo48+yvgUU5F/ySWXSJMmTURPrbn99tulqqrKBMvN+CQQCAEIQAACEIAABCAAgRwjgCEjixZMg3/aeAk6rPBggFk0zJhDOXTokDkOs1evXuahLGZFHwvU8yXyxJVY93pCi9dJt7boEaH60ngO+gC+fft2ueaaa2TKlClei8v7/vTIX401oQahVatWZXy+qcjXLUXPPPOMOXXlvvvuM/FyTjnllJB+PPzwwxmfDwIhAAEIQAACEIAABCCQCwQwZGTRKul2knDjRfh2kywaZmgod999t/kFWT0LNm/ebLwy9EHs3XfflbKyslA9Lmom0Lx5c3OEKts2aubkVKrHr+qJH3oErR5Hm+mUqnw9vejCCy8UDfhJggAEIAABCEAAAhCAAATcESDYpztOaa+lRgwb6FOF6TaT8ONZ0z6AFATo6RmdOnWSe++912yXuP/++2Xx4sWiwTJt4MMUus+rprq1RY+r1aTBIDds2GCMPhMmTDCnkFx//fV5Nd90T2bEiBGiL79SKvL1iNjBgwfLunXrZMiQIcYQqJ95NQZqatGihV/TQi4EIAABCEAAAhCAAASymgCGDJ+X5/jx48Yt/vDhw6GR5JIRIzToLy+uvPJKUUOGzuutt96Siy66KLKKr/eVlZUhQ0K8geiDpNfbSyK9bM4//3zZsWOHiZEwffp0wZARb1Xyp/yVV14xRgyd0SOPPILhIn+WlplAAAIQgAAEIAABCKSZAIaMNAOuqft8M2LoXNVV3qaDBw/ay6x5LykpybrjVzt06GD47Ny5M2s4MZD0E1ADlqbTTz8dI0b6cSMBAhCAAAQgAAEIQCCPCGDI8Gkxc9GIsW/fPhPMU5GNGjXK8eHLnmKiddj3rxTiJ9UFTXp6BalmAhogVVO4B1NkC1uWjpgjXsq3nxX7HjkP7iEAAQhAAAIQgAAEIAABZwIYMpy5pD1Xj1a1D1wqLBe2k+iDth6zqkljYnz3u9811+H/hB8Z27p16/CirLiuqKjIinGED0JP3dCkQSszncrLy0Xjs2jq2rWrDBs2LKNDSFS+xpDYvXu3vPnmm47j1LgjuqVJU5s2bRzrhGf6Kd9uWzp69KiJl2KNJOHj4xoCEIAABCAAAQhAAAIQiCbAqSXRTDKekwtGDIXSrFkz6dy5s+Ezc+ZMR07Tpk0z+foQec455zjWIbM6AT8NGbfddptMnjzZvPSBOtMpUfkDBgwwQ5w7d645HSdyvFOnThXd0qTH2w4cODCyOOreT/nhhqts3IYVBYsMCEAAAhCAAAQgAAEIZAkBPDJ8WoiOHTuaEz0aNWqUUyd7TJo0ScaMGSMvvPCCDBo0SPS0DY2L8d5778kDDzwgTz31lCE6ceJEtpa41K1EDBl6tO3+/fur9VxVVWXu9TSU9evXVyvr1q1b6BSMagXBG10zG5ejadOmrrwx/JZ/4403yuzZs+XIkSPSt29fY4DRgLKHDh0S9a6YMWOGmWZpaam0bds2csrV7pOZv5fyrUeGDkoNGWooJEEAAhCAAAQgAAEIQAAC8QlgyIjPKC019MjSyBMs0iLI405Hjx4tGzdulN/85jfGmKEGjcj0wx/+UH784x9HZnMfg4A+lGsqKiqKUeNkthqSFixYcDIj7Grbtm1SXFwcliPmAT/WEbgvv/xyqK7GPKlbt27oPtaF3/LbtWtnDBZ67OmuXbtE9TEy9e7dWx588MHI7Kj7ZObvpfzw9bY6EDVIMiAAAQhAAAIQgAAEIACBKAJsLYlCQkY8Arp95LnnnpOhQ4eaOAS6t1/jYWjMjKefftp4ZsTrg/KTBNQrR9P27dtNrISTJem9Cn+QHzduXHqFOfSerPwhQ4YYzxMds3oDqf41adJELr74Ypk1a5asXLnS1bG5fst/5513QlQaNGgQuuYCAhCAAAQgAAEIQAACEKiZQK3gSRQBrdK4ceOaa1KadwSGDx8uS5YskUsvvVTCY17Uq1dPWrVqlbb56ikN9uhJFaLbAnr06GHkrVixwmxZSZvwLOxYH6j79+9vRqbGobKyMmMYatGihasH8mSnpPFONm/eLH369JFVq1Yl203S7QpRfmVlpdlGoluAdPvV+++/b2LJhAfJTRooDSEAAQhAAAIQgAAEIFAgBNhaUiALXdM0ly9fbk4hsXUuu+wyWbZsmb31/H3v3r3V5HkuIMc67Nevn9kiMW/ePFm6dKl56RTmzJkjY8eOTcts9uzZY4wY2vn48ePTIqOmTgtVfklJiaxduzaERrfzaMwPEgQgAAEIQAACEIAABCDgngBbS9yzoiYE0kZAT+HQl26PiBXTwkvhuv1Ck25rUc+cTKdCll+7dm3j8TRy5EhZvXp1wXkgZVrXkAcBCEAAAhCAAAQgkH8E8MjIvzV1PaPFixe7rutlxZYtW0ogYHY0edltzvelgSudglemY2I2PsTVV1/tKsio12MoVPkVFRVeo6Q/CEAAAhCAAAQgAAEIFBwBYmQU3JIzYQhAAAIQgAAEIAABCEAAAhCAQO4SYGtJ7q4dI4cABCAAAQhAAAIQgAAEIAABCBQcAQwZBbfkTBgCEIAABCAAAQhAAAIQgAAEIJC7BDBk5O7aMXIIQAACEIAABCAAAQhAAAIQgEDBEcCQUXBLzoQhAAEIQAACEIAABCAAAQhAAAK5SwBDRu6uHSOHAAQgAAEIQAACEIAABCAAAQgUHAEMGQW35EwYAhCAAAQgAAEIQAACEIAABCCQuwQwZOTu2jFyCEAAAhCAAAQgAAEIQAACEIBAwRHAkFFwS86EIQABCEAAAhCAAAQgAAEIQAACuUugTu4OnZFDAAIQgECuEaiqqpLDhw9L8+bNpWHDhgkPP9X2CQukQcYIVFZWyvHjx6VZs2ZSv379jMlNRBD6lwit3KqL/uXWeuXbaNG/fFvR3JpPqvqXavtkaeGRkSw52kEAAhCAgCsChw4dkptvvtk8oLZs2VI6duwoCxcudNVWK6Xa3rUgKvpKoKSkRDp06GAMXN27d5fy8nJfx2OFo3+WRH6/o3/5vb7ZPjv0L9tXKL/Hl6r+pdo+Wbp4ZCRLjnYQgAAEIBCXwLFjx2TAgAFSUVERt65ThVTbO/VJXnYTCAQCsmHDBiktLZU9e/ZIWVmZbwNG/3xD75tg9M839AgOEkD/UAM/CaSqf6m2T3ju+/btC+iLlB0Err322oB+jw0cODA7BpRlo9ixY4fho4zWrFmTZaPzfjivvvpqIPgLZaBevXqBiRMnei8gosdU9S/V9hHD4TYPCDz22GOhz+ykSZMCH3zwQUKzSqb95s2bA+PHjzefnVNPPTUQ3MIS+PrXvx6YPn164LPPPktIfjKVkZ88/6NHj5rv9uLiYqM3DRo0CGieXwn9S5x8Lus/+pf4eke2yOX1j5xLsvdbtmwJnHvuuaH/+7p06eKqK/TPFaYaK/mtfzq4ZNe/xom5LExl/qnqX6rtXU6xWjXBkFGNh+83PAjWvASFZsj4wQ9+EPqPsHbt2oETJ07UDCjF0lT1L9X2KQ6f5llIYMKECUaHg9tJkhpdou2ffPLJwOmnnx763KjRM/zVq1evwMcff5zUWNw0Qr43/J9//vnQum3atMkN+rTUQf8Sw5ov+o/+Jbbutna+rL+dTzLvzz33XKBx48ah7y/9/8etIcPKQ/8sicTe/dY/Ha0X65/YrE/W9mr+qepfqu1Pzij+FTEygt8wJAhkK4GrrrpK2rVrJ0GPDONefcopfGSzda0YlzOBL774whS0aNHCuUKc3ETa79q1y2xH+OSTT6Rt27Yyd+5c2bhxo7z22msSfCCVWrVqyerVqyXorRFHanLFyPeOf7i+BP+USW5BPGiF/rmHmE/6j/65X3dbM5/W384p0fcZM2bI4MGDZf/+/dK6dWtznWgfWh/9S5ya3/qnI/Zq/ROfvYiX809V/1Jtn9D88ciIb+3JZA1+0a6ZdqF5ZNRMw/vSVPUv1fbez4ge/SZwxx13mF+mEv1Fyo47kfa33HKLkaVbsXbu3Gm7CL3ffffdpjxo0DCun6ECjy6Q7x3/V155xaxV8A+aQDAaukcrlHg36J97Zvmk/+if+3W3NfNp/e2cEnmfPHly6DurX79+gWB8n8Dtt99u8hL9/w/9S4T8v+r6rX9ern/isw8EvJx/qvqXavtE5s/PuwmZfajsNwH9RZWU/QRYp+xfo0yNsFGjRkZUcDtHUiITaf/iiy8aGWPGjDGeTJECb731VnMiRvA/SXnppZcii1O+R753/MP15Ywzzkh5bZLtAP1zTy6f9B/9c7/utmY+rb+dUyLvwS1wprqe0BV0rZczzzwzkebV6qJ/1XC4uvFb/7xcf1cTjqjk5fxT1b9U20dMrcbbvDFkBAO41ThRp8Jk2jj145T35z//Wb71rW+Z4waDsQ2kTp065li54cOHy9q1a52aROVptPR7771XggGD5LTTTjNuavoHuroPxUvBQDPywx/+UDp16mTa6taEbt26yc9//nM5cOBAzOZ6DrA+hOpLXbKDwSbNiQP6x1ww6Jp885vflEWLFsVsbwt0jDfddJN07txZgvvVDQdtO2fOHLGuurau07vKuPjii6V+/frSvHlzGTJkiIlin+6tFWPHjjVzHzRokKTCP9n5b926NcTfroN9//73v++EyjHvqaeekv79+5s1a9KkiVxyySXyt7/9TYK/Uof6X79+vWNbm5nK/FXndZ0feOAB6dq1q9EBPXZz1KhREvSqsSJivgeDFcm4cePMZ6Zu3brm4fNrX/ua3HfffRIMJhSz3ciRI8389Bgop/Thhx+G5q9/aEQmr/Tfi89/5Nhy9T6RB0GnOSbSXk+40KTfdU4pGPhTzjvvPFO0e/dupyop5SHfO/72/yn9LtH/B/xK6J978vmk/+if+3W3NfNp/e2cEnnXv5H1WPFp06aZv/kTaRtZF/2LJBL/3m/983L94882uoaX809V/1JtHz272Dl5cfyqPnDrA4o+KOlDv5ukD4z60KJ/IPXs2dNNE9d17rnnHrntttui6utDpL6WLl0qixcvlqFDh0bVCc/QXw+DUfZDWfqH97x580QfUvWh9Oyzzw6VhV/oF6k+MEY+8P3f//2f6Ovxxx+XlStXGsNIeLvIaz3+Th8mP/3001BR0F1I9PWzn/1M7rrrrlB++MVf//pXM7dwi5z2YduWl5fLsmXLpKioKLxZ6Fr7VYOLTUeOHDFz1jEvWbLEZqf9PVn+qc4/1YnNnj3bGLHC+9GH9lWrVpm1D8+v6TrZ+Wuf+vDx05/+VKZMmRISoToQPAFAnn76aTMW+0AZqvDlher35ZdfXk3vPv/8cxPbQOMb/OlPfzK/dgRPoohs6ul9svrv1ec/mcnod5lbQ6kaFdVwl+6kRlRN4d8jichMpL3qiaaaHnxtma2byFji1bV9WhlO9W2ZretUJ9k826eV4dSPLbN1neokm2f7tDKc+rFltq5THc2z+hLr/4lY7bzOR//cE7VratfYqaUts3Wd6iSbZ/u0Mpz6sWW2rlMdzUP/YpGJnW+ZWsZONW2ZretUJ9k826eV4dSPLbN1/z97ZwImRXX1/YMQcWSRXRbDIuACigwuyRAEwxIl4usQCDDxQwOyJG6MGiG8btGoEQka4CUa2QwmBBCCC4qKioAQAwOCQVFkF4QRBVlcELC/+l9zy5rq6q2ququ763+fp+nqu517f/d2M3XqnHOd6rjNmzhxonpw6La9tR33n5VGctd6TfUaO7XSZbquUx23eX6uv5sx6DnpOTr1oct0Xac6yPO6/7y2jzUup/wTnDJzLQ9KDCRoo957772Ew0cdKDGQDh8+LH5aZhgxR+R3v/ud6tuIjq9u2jZs2CDvv/++vPjii9KpUyf1pBpP1+PJxbigtHjggQfk3//+tzKDhjUG0scffyzXX3+9urb/s337drnmmmuUEsPwyZMZM2YInrwj2B0UBLCO2Lx5s1JQ2NvaP48dO1bOP/98efbZZ1UfM2fOlJYtW6pqhq+5UqbY22At+vXrJ1BiGKcUyF//+ldZs2aNLFmyRH77298KnojC/Ak3yU4JN4+aHxRTjz/+uGr/0ksvCawkHn74YadmvueBP8aOm1LcPEM5gQCBsI6Ix9/r/BHYE9Y01hcsWZJNu3btUkFBUR+WLFBqgD/23k9+8hP1pCCZvtzuP903fsSwdlBkgB/M+GEhBH6ffvppzP1XXl6ugjWiPdb/L3/5i7oxx5657rrrBBY5xrG7csMNN2hRaXt3s//9+v6nbVIBdKx/n+vWretKutf2roSyUeAE9H5B4Fb9R1EQg+L+C4J68DK5/4Jfg1wbASyn/Urcf36RzFw/fq5/5kbtLMnr/vPa3nlUzrl5ociwWmEkUmZAgaHNb4AEN0t+bj7cZGlLiL/97W8qYjHGd8YZZyhXEygFoMSANQasM2IlPFXFjSAsO6AQgZvA1KlTRSszcGOPG0J7gsUCnoY3adJEKS8GDhwo5513nhQVFSkrCq0IWLhwoboht7e3f8YN/BVXXKH6KCkpUa4mMJ+Cj/mUKVPs1dXN/969ewXuDHBLgWVIYWGhdO7cWf7whz+oiL5ohLlYLTZ0R1C8oG8oPKD8gEUI2uMm/J///GdMKw7d3q938MeJB6NGjZILL7xQjMBN6qZan3YQiz+UH17m/73vfU8pgKAE0i8on5JNsFbA/oPCAMqL4cOHK35wc8LeS9bX3O3+0+PE2oPfyJEjFT/sX7iZ4DMSymEVZU/YU4cOHVLrr5VHHTp0kB//+McyadIktR5oA6siKJTSnVLd/359/93O6+mnn66gBLMqxOzXUDimM8E1CUpUrBsSfj9SSV7bQxaUr3ANwG+I0+9lKuNxU5fy3fOHOxz+H4GLmhEwT6DkxP8NmUrcf95J5/L+5/4L9/p7n723Hrj/vPFD66B/f7zPwFsPXubvdf95bZ/KzPNCkWF3KYmlzEC+9ebJ3i4VcLHq4o8fnfBHmD0ZZ0srS4snnngirhsMtFn9+/e3NzefZOMPOtyY2BOCDOFpOhQ2Tqb3l112mWoSq721P1h9QCliTQhe1KdPH5XlZMIO9wUkKD+sx++oTOMfWIvgqTqsUfCk3p5gkYGELwGUP/YExUYmEqwZnFx/tCIpFj+v8/c6t7feekt1AeULFAD2BKuGZJLb/af7Bj+nOBVNmgGpAABAAElEQVRWSwq91roN3uEyhYT1R3wVe9Ljx82N0/6x1/fy2c3+9+v773bcp512mqkA04qwWO9Ovw9u5ep2cG3RMV2gjIQCYcuWLep7b3Uz0vXt717b2/uDYhS+mlCo6O+mvU46P1O+e/5w6YDCHZaFiI2D/6/xf4feX06KdK9ryf3nlWDF9rm8/7n/Kq6lm0+5vP5u5utnG+4/7zSD3n/eZ+CtBy/z97r/vLZPZeZ5ocjAhO1KCbsyw/7ZXj8VaPHqIrChTiNGjBC3AeVw8+GUWrRoYWYjdkSqCZtLp0TmuggU6pS0ewnOybYncEaCi4RTgvWLjuTsxObgwYOqmZZh7yNWvr2e18+x5DRv3tzs2om/1/mbnbu80GsSK35KrDW1i/O6/2Lxg6UQgnci6WBAVtnajDvW+NEeN8hIsHxJZ4rFSs9Ns7aOwa/vv7XPXL+GUgtKNbeWb17aDxo0SFkhQT6sqjKdKN8bf/zewqLQrlDP5Dpy/7mnnev7n/vP/dqjZa6vv7fZe2/N/eeNYdD7z9vovbf2On+v+89r+2QJVEm2Yi7Ug3ICT/q1y4a+qYRpsTV2RrqUGGCEG3hYHcDFAObveOGm7JxzzpH27durP6bxB3WiP8xi/dFvbRfLzBZPH+HGAdcM3Owlc0qI0/rGGgMsMrBBrUoR3f7YsWPqEvE4YgUD1XWtT691nh4rXCyckr6JdSrzM0/fbNv7tJ6a4sTf6/zt8lL9rPnFGn+sNbXLiVUvmf2HvmKtH56m4gQfuL/osVpla36x1hnt0TcCFR0/ftza1PfrWAzi7X+/vv++TyZDHcK1Rcf+wRrB6qa0tFSg1MW6a4uaWMPx2t7eL6zanCzb7PXS9Zny3fPH72vPnj1VjB+cWoW4Svi/W/8GO1n8eV1H7j+vBCu2z+X9z/1XcS3dfMrl9XczXz/bcP95pxn0/vM+A289eJm/1/3ntX0qM88rRQYmjhts/CGtlRh419coT6cSA/0jIf4D4mJMmDBBWWTAtBovxChAgsk8fJecTP9VBQ//IC7ClVdeqW70PHQTtylOm4h14kTchiwkgTwgkGj/B/n9h0uZViQkQo0bQb/dS+DaYk1t2rRRx+0ixgFOYEqkyPDa3iqb17lNAKdcIVAxEr5T6VBc2Alx/9mJhPcz91941z4bZs79lw2rEN4xeN1/XtunQj7vFBmYvA7+aVVgID8TSgzIwVNrnNCBwIbvvPOO8s/GEbGwkMAJJDjBBLEqEOMi2eCL6DdRwhNqxJDAk9Dvf//76sQN+Khbn47DHB7BQ9OdbrzxRrnpppviisnEH6ZxB5DGwqDmr59WassG+xSdrGDsdfjZG4Ggvv8YNeKSOMWucZpRpo5f1e5w2lLOaSzx8ry2j9c3y7KXwNatW9XgEOw4yP8ruP+yd4+kc2Tcf+mky74TEeD+S0SI5ekk4HX/eW2fytzyUpEBAHZlRqaUGFb4uKmEz7zVb3727NkyYMAA5fLxzDPPqFM9rG28XOPplT5WFq4tOOnBnnQMAnu+X59hPo6EJ72x4izEk6VvxGPdcCc6+zhe35ko8zp/r2PEiTJIOIbXKekfF6cyP/NirR/MzbSSRa+1Va7mF2udre11Xaf2+uQgaxmurflWBZ+9nh+fM/3992PM6ehDr7eTK1Ey8lJpr12SEPA4VtJlsVyHYrVLJp/yv41foxk7MdNlifhr1zH97tRXJvK4/5KnnE/7X+87/Z48BX9rcv8lzzPo/Zf8SBPX1PtOvydukZ4a3H/p4ZqOXv3c/3rf6fdUx6vb6fdU26dSP28VGYAAZQbiY+CLaDcZTQWSn3XhswRrDTyddPuEMtZ4rMdRWpUn1vpOAQqt5V6vGzVqpLqAK02spH8Y8eQaMQ+sSVuobN682ZptXsfKNysEfOF1/l6Hj1gsc+bMUSd6YA3sQTNxWk4mUqx12rVrl6lM0GttHU+9evXUx1j7x9oeQfjsSefFkm89tSiIp7zp/P6DRVlZmR1J4J91UFen9U5mcKm0h8IaQYTffvttx66hINuwYYMqQ+DYRGnWrFlmfCX8puoTm2K1o3z/+Gu3JygfsW76j7RY7J3yU10/pz64/95TWMK2/7n/RFL9/oT998/p98NtHvdf7u0/t2sdq12Q3z+v+89r+1hMHPP37dsXwYvJHwIPPPBAxDguLvLTn/40YjyBjOr00KFDkerVq0eMxYgYPuNR5ddee60q69atW1QZMozgnaoc7RctWlShjnEcpVlmWH5UKNMfhg8fbtaxt0edDz/80Cw3jsLUzZJ+f/jhh1V7zNGwDolqZ/hNmf2vWLEiqvzWW29V5UawysjGjRujyo2gb2b7VatWRZV7zfDCH7K9zt9p/JdeeqmasxFE1qm4Qp7hthQxLAFUfSOWQ+TVV1+NGCfBRIwb+8jNN98cMRQdJj/jqNYKbfHB6/x1e0NBFZk/f35U/6NHjzblO60vvj/Y28ZNS8QI0BuzvaEEU98Fe4WnnnrK7P/ll1+2F0eMG1FVbihMIoamOKrc6/73+v2PGlAeZNx3332KuaFUczWbVNrr3w8jEHHEUBRHydN9YX8aVktR5fYMI+aSuZ+MwM324qjPlP/t77cf/PH/E34L8ML/e25SquvnJEPvmWT2L9ffv/XHWqS6fn7y5/4Lln/Q6+9GPtrYkxEfSv2G4b4glcT9l3v7z2l93a4/+srl3z8/9q8TT6c8oSLDCYv7PCPYpvnH189+9rPI4sWL1Q258RQw8sILL0Q6d+6syvGHtBE/I0qQvhF0o8gwLB0ihuWJ6t94+hl58MEHI2+++WYEN6yGZk/JNk5OMceHjWZPXm/kDNeViPGkW8nAl3D69OlKPpQOUNzgBhJ/mBpPdxwVPcYpBxGwQR3jiWlkypQpEcNlJoKb0t69e0d+8IMfmOPPRkWG1/mDvxE7pcLr4osvVnPGfrKXffbZZ/YljFiVBfpGQL+PGzfO5JdORYYRmyViaGQjY8aMiWCdjPgwkRtuuMFUshQVFUWNGxnl5eWqHcZrWLdE/vKXv6j1x/fo+uuvN9sbx0o5tjee3EYMn3Y1R8j/05/+FDFiRiilX79+/cy5G6f6OLb3uv+9fv8dB5XjmcZpE4o79oSblEp7KC9wE43907RpU/X7Y8QnikApa5ycYv62/OIXv0g4lB07dpj7pW7duhEjiGrCNpTvH38jnpTJH4rYVJOb9XOSwf0nkTDuf+4//v7pv5tS2f/4u8r6GjJkiPodM45tr5CPOk4PU/RvEPdfbu4/69rj2u36u/n/y8+/P7zuP6/t9fcgmXcqMpKhlGKdwYMHm3+A6R9C+zueHDglL4oM9Ldw4UL1NNsuD5/xlPv55583x5YORQbG8Prrr0cMlx5Tjn0sRiDSCBQ7sZJxbKtjW8OnOgJLE91fNioyvM7//PPPN+en5xnv/ZFHHnHEiBt4KIJ0WzCfMWNGBBYbOg8/svbkdf9Z2//qV78yZWmZeK9du3YEN5exEvawEeDPsS3aQ5kFK5NYCYoL/OFhlWm97tu3bwRKP6fkVZGBPr18/53GlOt5xkklai06duzoaiqptn/uuefi7h8o0Qx3gYRjefLJJ809BGumZBPl+8PfcA8y+eM61eR2/exyuP9EWfPZucT6nC/7n/uPv3/674Zkf/8N11HzN0u3jfcOC+1Yifsv9/afn+vv9v8vv35/ve4/r+1jfS+c8qnIcKLiQx5uGvEkHU+F8UMGc3/cwHXt2jXyj3/8I6YE642gU6V4riW6Pm5Q8fT51FNPjRgBDSO4icUXbO3atZEvv/zS/KFNlyID44DZNp6Atm7dOlJQUKCekuKJ7D333JPUTYQR5yGCGw7c0NapUyfSo0ePCFxRjGCV5vizVZHhZf5+KTIwBrg2GfECIrAS0QkKJP0fa7oVGbCOgEWGEasmAiUULHWuuuqqiBGnQg8n5jvcTqDJhlUPFHBwVTJO24lAcZPMk3G4NRknx0RgDo72+B7i+2gEwXW0BNID8UORgb7cfv/1OPLp/X//93/VnjP8pyNGvIOUp+amPfaPcYKTuX/wGwJFyqRJkyJGINqkxqCfpOD78u677ybVRleifO/8rW5i+N1PNXlZP6ss7r9w7n/uv28tCfj7l/z+9/NGlvsv9/afn+vv5f8vP/7+8Lr/vLa3/h+c6JqKjESEWJ4zBOBmYXe9SPTZKY5JzkzYxUBxQ6YVGXDjYSKBdBOAhZbec3APg5sRvpfJWEVgbF7bu53fGWecocbdqVMnt114ahdG+VAkwuUS8Ui0RRlMst0kv/hx/4Vn/3P/ffdN8+v7812PqV2FUT7333d7JIzr/93sI5Eg5u91/3ltb51/KtdUZKRCi3WzmgCe1usbpmTf45n2ZfVkXQ5uwYIFJqOPPvrIZS9sRgKpEUBME/t3cvLkyUl34rV90oL+WxGWTHq8sK7JdAqrfLtFGoI+O1kOJloPv/lx/yUi7m+53+uX7Oi4/74lFRR/vU5hlc/9x/0HAkHtf6/7z2t7/f1P9f0E4481JhIggTwjYGhGBUeN6pfxBFxeeuklMQLXqZm2adNG9FGxeTZ1TicLCUybNk3wMtw7xHATSnmEXtunKnDp0qWqCY7vNmKqpNrcc/0wy8ex3PhtGjBggDpGunv37inz9Jsf91/KS+Cpgd/rl8pguP9EguSPtQqzfO6/cK9/0Pvf6/7z2j6V32pdt4q+4DsJ5DqB0tJSwYtJ5IorrhDDdcQRRZUqVcQIBupYxkwSSBcB46m24OU2eW2filzD/UVVHzhwoBgxflJp6kvdsMovKyvLWn7cf74sTVKdBLX/uf++XZ6g+OvNEVb53H/cfyAQ1P73uv+8ttff/1TfK+H4VTQyAlGm2pb1SYAEspSAccxulCIDT5fxRPyOO+4QI5Bqlo6cwyIBEiABEiABEiABEiABEiCB+ASoyIjPh6UkQAIkQAIkQAIkQAIkQAIkQAIkQAJZRIAxMrJoMTgUEiABEiABEiABEiABEiABEiABEiCB+ASoyIjPh6UkQAIkQAIkQAIkQAIkQAIkQAIkQAJZRICKjCxaDA6FBEiABEiABEiABEiABEiABEiABEggPgEqMuLzYSkJkAAJkAAJkAAJkAAJkAAJkAAJkEAWEaAiI4sWg0MhARIgARIgARIgARIgARIgARIgARKIT4CKjPh8WEoCJEACJEACJEACJEACJEACJEACJJBFBKjIyKLF4FBIgARIgARIgARIgARIgARIgARIgATiE6gSv5il+Uxgz549cvjw4agpVqtWTRo1ahSV71fG8ePHZevWrY7dNWnSRAoKChzLwpJZXl6u1qV+/fpSs2bNsEw7FPPcuXOnHDt2TOrVqyfVq1cPxZw5SRIgARIgARIgARIgARLwmwAtMvwmmkP93XDDDdK6deuo19ChQ9M6i71790bJ1ONYvnx5WmVna+eHDh2SW265Rd3gNmzYUFq1aiVz5szJ1uFyXC4JFBcXS4sWLZSCqn379jJr1iyXPbEZCZAACZAACZAACZAACYSXAC0ywrv2nHmWEDh69Kh07dpVysrKsmREHEa6CUQiEVm3bp2UlJQILKNKS0vTLZL9kwAJkAAJkAAJkAAJkEDeEKBFRt4spfuJ9OnTR3BjpV8LFixI2NkHH3wgw4cPl9NPP12qVq0qp5xyihQVFcmECRPkyJEjcdvD4kDLwvv+/fvj1s/3wtmzZ5tKjFGjRslHH32k+AwZMiTm1L3wj9lpCgWU727/Q1mF78eqVauksLBQEb/rrrvk66+/ToE+q5IACZAACZAACZAACZBAuAlU2rdvXwQIateuHW4SGZ49YlNs27bNdCXIsHglrm/fvjJv3jyBImPu3LlJDwGKjv79+8sXX3zh2Oaiiy6Sl19+WSk3HCvYMj/77DNz/y1atEi6d+9uq5HfH/E0fvz48cqdBAqCRMlv/onk2csp35/9/+qrr5p7/d1335Wzzz7bjpqfSYAESIAESIAESIAESIAEHAjQIsMBSiayoMT45JNP5L333lOvTMj0Q8aOHTuUOTyUGE2bNpVp06bJ+vXrZcWKFTJixAipVKmSrFy5UoYNG+aHuFD08c0336h5NmjQIOF8g+ZP+f7tf+t6wzKJiQRIgARIgARIgARIgARIIDkCjJGRHCffa+HEAigykOAjj3TWWWep92z+B64jsCbBySZLly6VZs2amcOFawlO2rjjjjvkqaeekvvvv19ZGZgVeOFIAG45SAcOHHAst2YGzZ/y/dv/Bw8eNJdW7wEzgxckQAIkQAIkQAIkQAIkQAIxCdAiIyaa9BY0b95cECtCJygzYJ2R7em1115TQxw8eHAFJYYe92233aZOZMAT5sWLF+tsvschUKtWLVUKF5tEKWj+lO/f/reuNxUZiXY+y0mABEiABEiABEiABEjgOwJUZHzHIuNXsMDINWWGth5p166dI68TTzzR9PXfvXu3Yx1mViSQiiIjaP6U/631lB/7X1vgVK5cWWChxUQCJEACJEACJEACJEACJJAcASoykuOUtlq5pszQpyvEu/HSZbpu2uC56PiCCy5QcTwQyyPRa8qUKS4kpN4EbjpIX375ZcLGmqlm7NRAl+m6TnXc5uk+tQynfnSZrutUx22e7lPLcOpHl+m6TnXc5uk+tQynfnSZrutUB3l6vQsKCmJVYT4JkAAJkAAJkAAJkAAJkIADASoyHKBkOgvKjNNOO80UmytuJuaAeeGJgI6VUrduXU/9sHFuEdDrjcC5WqmRWzPgaEmABEiABEiABEiABEggGAJUZATDPUpqq1atKgT7hDJj06ZNUfWyLWPmzJkC14jCwkL59NNPs214UeN5+umnBUecJvPq169fVHs/M44ePSpr166VSZMmqW5LSkpS7j5o/pTvfv/36NFD6tSpIzi15vbbb5fy8nLh6SUpfwXYgARIgARIgARIgARIIIQEqMjIokVHvAwdLwHDsgYDzKJhVhjKjBkz1GkbuCFftmxZhbJs/ADLFyiNknnVrFnT9ylYXVsQTwQKoC1btsg111wjY8aMSVle0Pwp3/3+h0vRwoULpW3btvLII4+oeDknnHCC6fKUKdemlDcdG5AACZAACZAACZAACZBAwASoyAh4AazicWqJVXlhdTex1sum60GDBglOXOjQoYN06dIlm4aWM2PBkbXgd9JJJ6U85qD5U763/Y/Ti8477zxBwE8mEiABEiABEiABEiABEiCB5AhUSa4aa6WbAJQY+kQIyLIHAU23fLf99+/fX/BiSo4AXFu++uorVRnBINetWyelpaUyYsQIqVKlilx33XXJdfTfWkHzp3z3+x9uJD179pQ1a9ZIr169BEcXwyoLVhlIDRo0+O8q840ESIAESIAESIAESIAESMBKgIoMK40Aro8dO6biJBw+fNiUnitKDHPAOXSxc+dOU5GQaNi4kfTbvcRuZdOmTRvZunWripEwfvz4lBUZiebA8uwl8MYbbyglBkY4depUKi6yd6k4MhIgARIgARIgARIggSwjQEVGgAtCJUbm4RcXF8vq1auTEjx58mQZMmRIUnW9VGrRooVqvm3bNi/dsG2OEYACC+nkk0+mEiPH1o7DJQESIAESIAESIAESCJYAY2QExD9XlRgIUIlktSCxI9RlbmI+2PsKw2fsBSScXpEoBc2f8v3b/8ePH1fLrd8TrT3LSYAESIAESIAESIAESIAEviVAi4yAdgKOVtU3/BhCrriTwId/9+7d8vbbbzuSQ9yHDRs2qLImTZo41gkys6ysLEjxjrIPHDig8hE0NVHym/+sWbME8VmQzj33XOnTp0/cIVC+f/tfuy0dOXJE8L3RSqK4C8BCEiABEiABEiABEiABEiABoUVGFmyCXFFiAFXXrl0VsWnTpsn27duj6I0dO1YOHjyojpDs1q1bVDkzogmkosjwm//o0aPlnnvuUS/cUCdKlO/f/rcqrvCdYSIBEiABEiABEiABEiABEkiOABUZyXHyvVarVq0ErwsuuECdVOC7gDR1eOONN0q1atXk888/l86dO8sTTzwh77zzjrz55pvq9I0777xTSS4pKZGmTZumaRT51W0qigw/+X/44Yei43LUrVs3oTUGqFO+f/tfW2SAKxUZoMBEAiRAAiRAAiRAAiRAAskRoGtJcpx8r4WjNu0nWPguJA0dNmvWTOCOgGM3d+zYIYMGDYqSUlRUJI8++mhUPjOcCUAphFRQUOBcwZLrJ/8lS5aYPV999dVStWpV83OsC8r3b/9b11vvgVjcmU8CJEACJEACJEACJEACJPAdAVpkfMeCV0kS6NWrlzoydujQodK8eXPl21+nTh3p2LGjTJo0SZYuXer7saVJDi0nq9WqVUuNe8uWLSpWQqJJ+MXfqsjAWiabKN+f/f/++++byGvUqGFe84IESIAESIAESIAESIAESCA+gUr79u2LoErt2rXj12Rp3hHo27evzJs3Ty677DKZOHGiOT+4jjRq1Mj87PcFTmnQR0+i70OHDkmHDh2UmEWLFkn37t39FpnV/UGhcMkll6gx9u7dW7noNG7cWB3JaXU/8HsSZ555pmzcuFE6deoky5Yt87v7hP2FUf7OnTuVG8natWtl5MiRsmvXLmnZsqUg+C8TCZAACZAACZAACZAACZBAcgToWpIcp7yu9eKLL0rr1q3NOV5++eWyYMEC87PfF3v37q0gz+/+c62/Ll26KBed6dOny/z589ULc5g8ebIMGTIkLdPZs2ePUmKg82HDhqVFRrxOwyq/uLhYVq9ebaKBO89jjz1mfuYFCZAACZAACZAACZAACZBAYgJ0LUnMiDVIIO0EcAoMXnDPqV69etrlwf0HCW4tsMzJdAqz/MqVKyuLpwEDBsjKlStDZ4GU6b1GeSRAAiRAAiRAAiRAAvlHgBYZ+bemSc9o7ty5Sdf1s2LDhg0lElEeTX52m/N9IXCqU/DUdExMx8cYOHBgUkFG/R5DWOWXlZX5jZL9kQAJkAAJkAAJkAAJkEDoCDBGRuiWnBMmARIgARIgARIgARIgARIgARIggdwlQNeS3F07jpwESIAESIAESIAESIAESIAESIAEQkeAiozQLTknTAIkQAIkQAIkQAIkQAIkQAIkQAK5S4CKjNxdO46cBEiABEiABEiABEiABEiABEiABEJHgIqM0C05J0wCJEACJEACJEACJEACJEACJEACuUuAiozcXTuOnARIgARIgARIgARIgARIgARIgARCR4CKjNAtOSdMAiRAAiRAAiRAAiRAAiRAAiRAArlLgIqM3F07jpwESIAESIAESIAESIAESIAESIAEQkeAiozQLTknTAIkQAIkQAIkQAIkQAIkQAIkQAK5S6BK7g6dI/dKYM+ePXL48OGobqpVqyaNGjWKyvcr4/jx47J161bH7po0aSIFBQWOZWHJLC8vV+tSv359qVmzZlimHYp57ty5U44dOyb16tWT6tWrh2LOnCQJkAAJkAAJkAAJkAAJ+E2AFhl+E82h/m644QZp3bp11Gvo0KFpncXevXujZOpxLF++PK2ys7XzQ4cOyS233KJucBs2bCitWrWSOXPmZOtwOS6XBIqLi6VFixZKQdW+fXuZNWuWy57YjARIgARIgARIgARIgATCS4AWGeFde848SwgcPXpUunbtKmVlZVkyIg4j3QQikYisW7dOSkpKBJZRpaWl6RbJ/kmABEiABEiABEiABEggbwjQIiNvltL9RPr06SO4sdKvBQsWJNXZpk2b5Oyzz5ZKlSqp1znnnJNUO1gcaFl4379/f1Lt8rXS7NmzTSXGqFGj5KOPPlJ8hgwZEnPKH3zwgQwfPlxOP/10qVq1qpxyyilSVFQkEyZMkCNHjsRs51cB5bvjD2UV1mfVqlVSWFioluOuu+6Sr7/+2q+lYT8kQAIkQAIkQAIkQAIkkPcEKu3bty+CWdauXTvvJ5tNE0Rsim3btpmuBEGMrW/fvjJv3jyBImPu3LkpDWHRokXSv3//CkqItm3byvr161PqB5U/++wzc/+h3+7du6fcRy43wNP48ePHK3cSKAgSJSiawP6LL75wrHrRRRfJyy+/rJQbjhU8ZlK+P/xfffVVc6+/++67SinocWnYnARIgARIgARIgARIgARCQYAWGQEtM5QYn3zyibz33nvqFdAwXInFU/+ePXsqJUbjxo3VtauO2EgR+Oabb9R7gwYNEhLZsWOHckeAEqNp06Yybdo0pTxasWKFjBgxQlnGrFy5UoYNG5awLzcVKN8//tb1hmUSEwmQAAmQAAmQAAmQAAmQQHIEGCMjOU6+18KJBVBkIMFHHumss85S79n8z7333it33323GmKXLl0EbhETJ06UhQsXZvOws3pscAtBOnDgQMJxQokEax6cLLN06VJp1qyZ2QauJTjp5I477pCnnnpK7r//fmXlYVbw4YLy/eN/8OBBc0X0HjAzeEECJEACJEACJEACJEACJBCTAC0yYqJJb0Hz5s0FsSJ0gjID1hnZnmACj4QTNl555RU59dRTs33IWT++WrVqqTHCxSZReu2111SVwYMHV1Bi6Ha33XabOhEDT/gXL16ss317p3z/+FvXm4oM37YoOyIBEiABEiABEiABEggBASoyAlxkWGDkmjKjRo0a6ljQcePGSZUqNOjxY/ukosjQ1jvt2rVzFH3iiSeasRZ2797tWMdLJuV/az3lB39tgVO5cmWBhRYTCZAACZAACZAACZAACZBAcgSoyEiOU9pq5ZoyA24kP//5z9PGI90dX3DBBeYpK/q0lVjvU6ZMSfdwVP9wE0H68ssv1Xu8f/TpFvFufHWZrhuvv1TLdJ9ahlN7XabrOtVxm6f71DKc+tFluq5THbd5uk8tw6kfXabrOtVBnl7vgoKCWFWYTwIkQAIkQAIkQAIkQAIk4ECAigwHKJnOgjLjtNNOM8Vms5vJSSedZI6TF/4Q0LFS6tat60+H7CUnCOj1RuBWrdTIiYFzkCRAAiRAAiRAAiRAAiQQMAEqMgJeAC2+VatWFYJ9QpmxadMmXcx3nwg8/fTTgiNOk3n169fPJ6nO3Rw9elTWrl0rkyZNUhVKSkqcK8bJnTlzpsA1pbCwUD799NM4NdNTRPnu+ffo0UPq1KkjOLXm9ttvl/LycuHpJenZp+yVBEiABEiABEiABEggvwhQkZFF64l4GTpeAoZlDQaYRcPM6aHA8gVKo2ReNWvW9H2uVtcWxLOAAmLLli1yzTXXyJgxY1KWN2PGDHXaCRQiy5YtS7m91waU754/XIpw2k/btm3lkUceUfFyTjjhBNP1KVOuTV73ANuTAAmQAAmQAAmQAAmQQKYJUJGRaeJx5OHUEqvywupuEqcZi3KcAI5M7dChg7hx2xk0aJDgxAu0x3G4mU6U740/Ti8677zzBAE/mUiABEiABEiABEiABEiABJIjwGMnkuOU9lpQYugTISDMHgQ07QOggIwQgGvLV199pWQhGOS6deuktLRURowYoU6Bue6661IaR//+/QWvoBLlu+cPN5KePXvKmjVrpFevXoKjc2GVBasMpAYNGgS1rJRLAiRAAiRAAiRAAiRAAllNgIqMgJfn2LFjKk7C4cOHzZFQiWGi8P1i586dpiIhUee4kfTbvcRuZdOmTRvZunWripEwfvx4SVWRkWgOLM9eAm+88YZSYmCEU6dOpeIie5eKIyMBEiABEiABEiABEsgyAlRkBLggVGJkHn5xcbGsXr06KcGTJ0+WIUOGJFXXS6UWLVqo5tu2bfPSDdvmGAEosJBOPvlkKjFybO04XBIgARIgARIgARIggWAJMEZGQPypxAgIfBaKxV5AwukViRIChCJZLXjsbXSZm5gb9r7snynfP/7Hjx9XePW7nTU/kwAJkAAJkAAJkAAJkAAJOBOgRYYzl7Tn4mhVfcMJYXQnSTtyJaCsrCwzglKQcuDAAVUbQTsTJcRQ2L17t7z99tuOVRF3Y8OGDaqsSZMmjnWsmbNmzRLEZ0E699xzpU+fPtbiqGvK94+/dls6cuSIYN20kigKOjNIgARIgARIgARIgARIgAQqEKBFRgUcwXygEiMY7tkiNRVFRteuXdWwp02bJtu3b4+awtixY+XgwYPqCM9u3bpFldszRo8eLffcc4964YY6UaJ8//hbFVdYMyYSIAESIAESIAESIAESIIHkCNAiIzlOvtdq1aqVVK9eXWrVqqXefReQpg5x87x///4KvZeXl6vPOI1j7dq1FcratWtnnsJQoYAfTAKpKDJuvPFGeeyxx+Tzzz+Xzp07KwXEhRdeKIcOHRJYV0yYMEH1W1JSIk2bNjVlOF18+OGHouNy1K1bN6E1BvqgfP/4a4sMcIUio169erhkIgESIAESIAESIAESIAESSECAiowEgNJVXKVKFbGfYJEuWX72O2rUKJk9e7Zjl5s3b5bCwsIKZbjBhsKGKTYBKCWQCgoKYlf6b0mzZs2UwgLHnu7YsUMGDRoU1aaoqEgeffTRqHx7xpIlS8ysq6++WqpWrWp+jnVB+f7xt6633gOxuDOfBEiABEiABEiABEiABEjgOwJ0LfmOBa9IIBACsMpB2rJli4qVkGgQvXr1UpYvQ4cOlebNm6vYCnXq1JGOHTvKpEmTZOnSpUkdG2tVZKCvZBPl+8P//fffN5HXqFHDvOYFCZAACZAACZAACZAACZBAfAKV9u3bF0GV2rVrx6/J0rwj0LdvX5k3b55cdtllMnHiRHN+1apVk0aNGpmf/b7AKQ366En0DauNDh06KDGLFi2S7t27+y0yq/uDQuGSSy5RY+zdu7eUlpZK48aN1ZGcVvcDvydx5plnysaNG6VTp06ybNkyv7tP2F8Y5e/cuVO5kcAFa+TIkbJr1y5p2bKlIPgvEwmQAAmQAAmQAAmQAAmQQHIE6FqSHKe8rvXiiy9K69atzTlefvnlsmDBAvOz3xd79+6tIM/v/nOtvy5duigXkenTp8v8+fPVC3OYPHmyDBkyJC3T2bNnj1JioPNhw4alRUa8TsMqv7i4WFavXm2igTsPYp4wkQAJkAAJkAAJkAAJkAAJJE+AriXJs2JNEkgbAZxCghfcQzIRUwTuJ0hwa4FlTqZTmOVXrlxZWTwNGDBAVq5cGToLpEzvNcojARIgARIgARIgARLIPwK0yMi/NU16RnPnzk26rp8VGzZsKJGI8mjys9uc7wuBO52Cd6ZjYjo+xsCBA5MKMur3GMIqv6yszG+U7I8ESIAESIAESIAESIAEQkeAMTJCt+ScMAmQAAmQAAmQAAmQAAmQAAmQAAnkLgG6luTu2nHkJEACJEACJEACJEACJEACJEACJBA6AlRkhG7JOWESIAESIAESIAESIAESIAESIAESyF0CVGTk7tpx5CRAAiRAAiRAAiRAAiRAAiRAAiQQOgJUZIRuyTlhEiABEiABEiABEiABEiABEiABEshdAlRk5O7aceQkQAIkQAIkQAIkQAIkQAIkQAIkEDoCVGSEbsk5YRIgARIgARIgARIgARIgARIgARLIXQJUZOTu2nHkJEACJEACJEACJEACJEACJEACJBA6AlRkhG7JOWESIAESIAESIAESIAESIAESIAESyF0CVXJ36By5VwJ79uyRw4cPR3VTrVo1adSoUVS+XxnHjx+XrVu3OnbXpEkTKSgocCwLS2Z5eblal/r160vNmjXDMu1QzHPnzp1y7NgxqVevnlSvXj0Uc+YkSYAESIAESIAESIAESMBvArTI8JtoDvV3ww03SOvWraNeQ4cOTess9u7dGyVTj2P58uVplZ2tnR86dEhuueUWdYPbsGFDadWqlcyZMydbh8txuSRQXFwsLVq0UAqq9u3by6xZs1z2xGYkQAIkQAIkQAIkQAIkEF4CtMgI79pz5llC4OjRo9K1a1cpKyvLkhFxGOkmEIlEZN26dVJSUiKwjCotLU23SPZPAiRAAiRAAiRAAiRAAnlDgBYZebOU7ifSp08fwY2Vfi1YsCBhZ++9954MGTJETj/9dDnppJOkVq1a0qlTJ3n88ccFriPxEiwOtCy879+/P171vC+bPXu2qcQYNWqUfPTRR4oP+MZKH3zwgQwfPlzxr1q1qpxyyilSVFQkEyZMkCNHjsRq5lt+2OUD5KZNm+Tss8+WSpUqqdc555yTkC+UVVifVatWSWFhoap/1113yddff52wLSuQAAmQAAmQAAmQAAmQAAl8S6DSvn37IrisXbs2mWSQAGJTbNu2zXQlyKBoU1Tfvn1l3rx5AkXG3LlzzfxEFzCH/+UvfxnzhrlHjx7y3HPPCW6wk0mfffaZuf8WLVok3bt3T6ZZ3tTB0/jx48crdxIoCBIlKJr69+8vX3zxhWPViy66SF5++WWl3HCs4DEz7PKBD/sUa2BVwrVt21bWr1+fNN1XX33V3OvvvvuuUook3ZgVSYAESIAESIAESIAESCDEBGiREdDiQ4nxySefCCwb8MqVtHbtWrnmmmuUEqNly5byxBNPyJo1a9SN81VXXaWmgZu822+/PVemFPg4v/nmGzWGBg0aJBzLjh07lDsClBhNmzaVadOmqZvnFStWyIgRI5RlwMqVK2XYsGEJ+3JTIezywQxWLz179lRKjMaNG6trNyyt6w3LJCYSIAESIAESIAESIAESIIHkCDBGRnKcfK+FEwugyECCjzzSWWedpd6z+Z/77rtPmcF///vfl7feektq1KhhDheWGHAzmTp1qvz5z3+We++9V04++WSznBfOBOAWgnTgwAHnCpZc3ETDmgcnyyxdulSaNWtmlsK1BCed3HHHHfLUU0/J/fffr6w8zAo+XIRdPvb03XffrUh26dJF4BY0ceJEWbhwYcp0Dx48aLbRe8DM4AUJkAAJkAAJkAAJkAAJkEBMArTIiIkmvQXNmzcXxIrQCcqMbLfMgOXASy+9pIZ86623VlBi6Hn85je/UZdffvmlGfdBl/HdmQDiiyDBxSZReu2111SVwYMHV1Bi6Ha33XabOhEDT/gXL16ss317D7t8uIAg4YSZV155RU499VTXbK3rTUWGa4xsSAIkQAIkQAIkQAIkEEICVGQEuOiwwMglZQYsBuBOct5558mFF17oSA7HhiL4IVJ5ebljHWZWJJCKIkNb77Rr165iJ//9dOKJJ5qxFnbv3u1Yx0tm2OXDAgnH4o4bN06qVPFm0KYtcCpXriyw0GIiARIgARIgARIgARIgARJIjoC3v8STk8FacQhodxJ9g6jfdX6cphkvQkBYxMiIl/CUWfv716tXL17VQMouuOACWb16dVKyJ0+erE5mSaqyh0pwE0GCFUuipE+3iHfjq8t03UR9plKu+9QynNrqMl3XqY7bPN2nluHUjy7TdZ3quM2DGwncp/xIer0LCgr86I59kAAJkAAJkAAJkAAJkEBoCNAiIwuWGkqL0047zRwJlBnZ7mZiDtZ28fzzz6scPGXGKQ5MiQnoWCl169ZNXJk1AiXglxIDk9DrjcCtWqkR6OQonARIgARIgARIgARIgARyhAAVGVmyUHDJsFphQJmxadOmLBldcsM4evSojB07VlW+7LLLxHoqQ3I9pL/W008/LTjiNJlXv3790jog8IKFy6RJk5SckpKSlOXNnDlT4JpSWFgon376acrtvTYIu3wv/BAct06dOoLYMzjlB65Y2prJS79sSwIkQAIkQAIkQAIkQAL5ToCKjCxaYcTL0PESMCxrMMAsGmbMoTzwwAPyzjvvqBgZo0ePjlkvyAJYvkBplMyrZs2avg8Vri2IIYIX4llAAbFlyxZ1pO2YMWNSljdjxgx12gkUIsuWLUu5vdcGYZfvhR9cinDaCSyXHnnkERUv54QTTjD3x5QpU7x0z7YkQAIkQAIkQAIkQAIkkLcEqMjIoqWFO4lVeWF1N8miYToOBS4lOJoS6frrr5cf/ehHjvWYGU0AR6Z26NDBVeyFQYMGCU68QHscB5rpFHb5Xnnj9CIEz4UrFhMJkAAJkAAJkAAJkAAJkEByBBjsMzlOaa8FJYYO9AlhcDOxnmiS9gF4ELBu3TqBWwRM5HGayR//+EcPveV3U7i2fPXVV2qSCEYJdqWlpTJixAh1CsZ1112XEoD+/fsLXkGlsMv3wh1uJD179pQ1a9ZIr169BEfn4jsPqwykbHTN8jJftiUBEiABEiABEiABEiABvwhQkeEXSZf9HDt2TMVJOHz4sNlDLikxduzYoW7GDh06JM2aNZNnn31Wqlatas4l2y527txpKhISjQ03kn67l9itbNq0aSNbt25VMRLGjx8vqSoyEs2B5dlL4I033lBKDIxw6tSpVFxk71JxZCRAAiRAAiRAAiRAAllGgIqMABck15UY+/fvFwT13L17t8A94qWXXsp6K5Li4uKsO361RYsWahdu27YtwN1I0ZkmAAUW0sknn0wlRqbhUx4JkAAJkAAJkAAJkEBOE2CMjICWL9eVGHCP+J//+R/ZsGGD1KhRQ1544QU588wzA6KZ22KxF5DgmpMoIUAoktWCx95Gl/l5VKiWEXb5moMf78ePH1fd6Hc/+mQfJEACJEACJEACJEACJBAGArTICGiVcbSqvuHEEHLJnQQ33P/v//0/gWk83EgQ9wGnceRCKisry7phHjhwQI0JQTsTJcRQgAXM22+/7VgVcTegXEJq0qSJYx1r5qxZswTxWZDOPfdc6dOnj7U46jrs8qOAeMjQbktHjhwRrJtWEnnokk1JgARIgARIgARIgARIIBQEaJGRBcucS0oM4Lr55ptl3rx56qSFmTNnSteuXbOAYu4OIRVFhmY9bdo02b59e9Skx44dKwcPHlRHeHbr1i2q3J6BY3Lvuece9cINdaIUdvmJ+KRSblVcYc2YSIAESIAESIAESIAESIAEkiNAi4zkOPleq1WrVlK9enWpVauWevddQJo6fOyxx2TChAmq99/85jfSrl07gXWJU8L8cuXkFafxZyovFUXGjTfeKFiDzz//XDp37qwUEDgpBsFWYV2h1wanyDRt2jTuFD788EPRcTnq1q2b0BoDnYVdPpRHiA1jTeXl5eoj3K3Wrl1rLVLfD30KSYUC44O2yEA+FBn16tWzV+FnEiABEiABEiABEiABEiABBwJUZDhAyURWlSpVxH6CRSbkepVhdc0YM2aM4BUrwU1h7ty5sYqZ/18CUEogFRQU/Dcn9htOhoHCAsee4sSYQYMGRVUuKiqSRx99NCrfnrFkyRIz6+qrr07qtJmwyx81apTMnj3b5Ga92Lx5sxQWFlqzlIIJCj2nZF1vvQec6jGPBEiABEiABEiABEiABEigIgG6llTkwU8kkHECsMpB2rJli4qVkGgAvXr1Uk/+hw4dKs2bN1exFerUqSMdO3aUSZMmydKlSys87Y/Vn1WRgb6STWGXnyynRPXef/99swoC5jKRAAmQAAmQAAmQAAmQAAkkR6DSvn37Iqhau3bt5FqwVt4Q6Nu3r4p1gSNUJ06caM6rWrVq0qhRI/Oz3xc4pUEfPYm+4RbRoUMHJWbRokXSvXt3v0VmdX9QKFxyySVqjL1795bS0lJp3LixOpLT6n7g9yRwyszGjRulU6dOsmzZMr+7T9hfGOXv3LlTuZHABWXkyJGya9cuadmyZUz3rIQQWYEESIAESIAESIAESIAEQkiAriUhXHT7lF988UVp3bq1mX355ZfLggULzM9+X+zdu7eCPL/7z7X+unTpolxEpk+fLvPnz1cvzGHy5MkyZMiQtExnz549SomBzocNG5YWGfE6Dav84uJiWb16tYkGp/4g5gkTCZAACZAACZAACZAACZBA8gToWpI8K9YkgbQRwCkkeME9JFZMBT+Fw/0ECW4tsMzJdAqz/MqVKyuLpwEDBsjKlStDZ4GU6b1GeSRAAiRAAiRAAiRAAvlHgBYZ+bemSc8oqECcOMkkElEeTUmPNQwVEbjTKXhnOuau42MMHDgwqSCjfo8hrPKtwXL9Zsr+SIAESIAESIAESIAESCAsBBgjIywrzXmSAAmQAAmQAAmQAAmQAAmQAAmQQB4QoGtJHiwip0ACJEACJEACJEACJEACJEACJEACYSFARUZYVprzJAESIAESIAESIAESIAESIAESIIE8IEBFRh4sIqdAAiRAAiRAAiRAAiRAAiRAAiRAAmEhQEVGWFaa8yQBEiABEiABEiABEiABEiABEiCBPCBARUYeLCKnQAIkQAIkQAIkQAIkQAIkQAIkQAJhIUBFRlhWmvMkARIgARIgARIgARIgARIgARIggTwgQEVGHiwip0ACJEACJEACJEACJEACJEACJEACYSFARUZYVprzJAESIAESIAESIAESIAESIAESIIE8IFAlD+bAKbgksGfPHjl8+HBU62rVqkmjRo2i8v3KOH78uGzdutWxuyZNmkhBQYFjWVgyy8vL1brUr19fatasGZZph2KeO3fulGPHjkm9evWkevXqoZgzJ0kCJEACJEACJEACJEACfhOgRYbfRHOovxtuuEFat24d9Ro6dGhaZ7F3794omXocy5cvT6vsbO380KFDcsstt6gb3IYNG0qrVq1kzpw52TpcjsslgeLiYmnRooVSULVv315mzZrlsic2IwESIAESIAESIAESIIHwEqBFRnjXnjPPEgJHjx6Vrl27SllZWZaMiMNIN4FIJCLr1q2TkpISgWVUaWlpukWyfxIgARIgARIgARIgARLIGwK0yMibpXQ/kT59+ghurPRrwYIFMTt77LHHpFKlSglfAwYMiNkHLA60LLzv378/Zt0wFMyePdtUYowaNUo++ugjxWfIkCExp//BBx/I8OHD5fTTT5eqVavKKaecIkVFRTJhwgQ5cuRIzHZ+FQQtH/PYtGmTnH322eZePOecc/yaXsJ+3M4fyiqsz6pVq6SwsFDJueuuu+Trr79OKJMVSIAESIAESIAESIAESIAEviVAi4yAdgJiU2zbts10JQhoGBSbBQS0JQbcSR588MGEI4KiqX///vLFF1+YdXEj/Oabb6rX3//+d3n55ZeVcsOs4ONF0PIxlUWLFikGQSjBvM7/xBNPlAsuuEDGjh0r3bt3F7gVbd68WSllfFwmdkUCJEACJEACJEACJEACeUuAFhkBLS2UGJ988om899576hXQMFIW+4tf/ELwNNrpNWPGDPV0HJ1269Yt5b7D2uCbb75RU2/QoEFCBDt27FDuCFBiNG3aVKZNmybr16+XFStWyIgRIxT/lStXyrBhwxL25aZC0PIxZlid9OzZU1nyNG7cWF27mYubNn7O37resExiIgESIAESIAESIAESIAESSI4ALTKS4+R7LZxYAEUGEnzkkc466yz1ns3/4BQNp5M0du3aJSNHjlQuEQgWmu6AodnMKNWxwS0E6cCBAwmb4iYe1jw4WWbp0qXSrFkzsw1cS3DSyR133CFPPfWU3H///SpoqFnBh4ug5d97771y9913q5l06dJF4JYzceJEWbhwoQ+zS9yFn/M/ePCgKVDvATODFyRAAiRAAiRAAiRAAiRAAjEJ0CIjJpr0FjRv3lwQK0InKDNgnZGL6auvvpLevXsrhcyPfvQj+b//+79cnEZgY65Vq5aS/dlnnyUcw2uvvabqDB48uIISQze87bbblKIJT/gXL16ss317D1r+u+++q+aCE15eeeUVOfXUU32bWzId+Tl/63pTkZEMfdYhARIgARIgARIgARIggW8JUJER4E6ABUY+KDPgxoDghaeddprMmzdPEAOAKXkCqSgytPVOu3btHAWAPQJgIu3evduxjpfMoOXXqFFDHUs7btw4qVIl8wZlfs5fW+BUrlxZYKHFRAIkQAIkQAIkQAIkQAIkkBwBKjKS45S2WrmuzMAN5ZNPPikFBQXy9NNPZ/wJeaoLgyCLyZy6gjpTpkxJtXtX9eEmgvTll18mbK9Pt4h346vLdN2EnaZQQfepZTg11WW6rlMdt3lwI/n5z3/utrnndnpOeo5OHeoyXdepDvL0euO7w0QCJEACJEACJEACJEACJJA8ASoykmeVtppQZsCaQadccTOBmT2OC0VC7IL27dvrKfA9BQI6VkrdunVTaBXOqieddFLeTFyvNwK3aqVG3kyOEyEBEiABEiABEiABEiCBNBKgIiONcFPpGkdvWoN9QpmxadOmVLrIeF0oMo4fP67kIjZD7dq15dprr5WPP/4442NJViCsRpxOXHHK69evX7Lduqp39OhRWbt2rUyaNEm1LykpSbmfmTNnClxTCgsL5dNPP025vdcGQcv3On6v7b3Mv0ePHlKnTh3BqTW33367lJeXq2C5XsfE9iRAAiRAAiRAAiRAAiSQ7wSoyMiiFUa8DB0vAcOyBgPMomHGHMqhQ4fUcaAXXXSRuimLWTHAAli+QGmUzMvpdBavQ7e6tiCeBRQQW7ZskWuuuUbGjBmTcvc48haxFqAQWbZsWcrtvTYIWr7X8Xtt72X+cCnCaStt27aVRx55RMXLOeGEE0zXp0y5NnllwPYkQAIkQAIkQAIkQAIkkGkCVGRkmngceTi1xKq8sLqbxGkWWNF9992nniDDsmDjxo0CqwzciG3fvl1KS0sDG1euCcaRqR06dBA3bhODBg0SnHiB9jiONNMpaPmZnq9dntf54/Si8847TxDwk4kESIAESIAESIAESIAESCA5ApkP+5/cuEJXC0oMfSICJm8PAprNQHB6ROvWreWhhx4SKDX+9Kc/ydy5c2Xy5Mk8jcG2cHBtwXG1SAgGuW7dOqX0GTFihDqF47rrrrO1iP+xf//+gldQKWj5Qc1by/UyfxyR27NnT1mzZo306tVLKQJhlQVlIFKDBg20GL6TAAmQAAmQAAmQAAmQAAlYCFCRYYERxOWxY8eUW8Dhw4dN8bmkxDAH/d+LX/ziF0qRgXlt2LBBLrzwQnuVQD/v3LnTVCQkGghuJP12L7Fb2bRp00a2bt2qYiSMHz9eUlVkJJoDy7OXwBtvvKGUGBjh1KlTqbjI3qXiyEiABEiABEiABEiABLKMABUZAS5IvikxgBKm8jodPHhQX2bNe3FxsaxevTqp8cCiZMiQIUnV9VKpRYsWqvm2bdu8dMO2OUYACiykk08+mUqMHFs7DpcESIAESIAESIAESCBYAlRkBMQ/F5UY+/btU8E8gezqq692vPnSp5igDv3+QSFxwl5AwukViRIChCJZLXjsbXSZm5gb9r7sn4OWbx9Ppj/7OX/9XdHvmZ4L5ZEACZAACZAACZAACZBArhKgIiOglcPRqvqGE0PIBXcS3GgjoCcSYmJceeWV6tr6j/XI2MaNG1uLsuK6rKwsK8ZhHQROHUFC0M5ECTEUdu/eLW+//bZjVcTdgEsPUpMmTRzrWDNnzZoliM+CdO6550qfPn2sxVHXQcuPGpDHjCDnr92Wjhw5ouKlaCWJxymxOQmQAAmQAAmQAAmQAAnkPQGeWpIFS5wLSgxgqlevnpx55pmK2MSJEx3JjRs3TuXjJrply5aOdZhZkUAqioyuXbuqxtOmTVOnw1TsSWTs2LECl55KlSpJt27d7MVRn0ePHi333HOPeuGGOlEKWn6i8aVaHuT8rYqrbHTDSpUl65MACZAACZAACZAACZBApgjQIiNTpG1yWrVqpU70qFWrVk6d7DFq1CgZPHiwvPrqq9K9e3fBaRuIi/Hhhx/Kn//8Z3n++efVTEeOHEnXEtuax/qYiiLjxhtvlMcee0w+//xz6dy5s1JAIKDqoUOHBNYFEyZMUGJKSkqkadOmsUSqfKyZjstRt27dhNYYaBS0fBztu3///grzKi8vV59xGszatWsrlLVr1848BaRCgfEh6PlriwyMC4oMKAqZSIAESIAESIAESIAESIAEEhOgIiMxo7TUwJGl9hMs0iLI504HDRok69evzHBTAwAAQABJREFUl4cfflgpM6DQsKdf//rXctNNN9mz+TkGASglkAoKCmLU+C67WbNmSmGBYz937NghWA97KioqkkcffdSeHfV5yZIlZh5inlStWtX8HOsiaPlQpM2ePdtxeJs3b5bCwsIKZVDwVK9evUKe/hD0/K3rrfeAHhvfSYAESIAESIAESIAESIAEYhOga0lsNiyJQQDuIy+//LL07t1bxWGAbz/iYSBmxgsvvKAsM2I0ZbYDAVjlIG3ZskXFSnCoUiGrV69eyvJg6NChyhoG/OvUqSMdO3aUSZMmydKlS5M6NtZ6I4++kk1By092nInqBT3/999/3xxijRo1zGtekAAJkAAJkAAJkAAJkAAJxCdQyTiJIoIqtWvXjl+TpXlHoG/fvjJv3jy57LLLxBrzolq1atKoUaO0zRenNOijJyEET807dOig5C1atEi5rKRNeBZ2jBvqSy65RI0MyqHS0lKlGGrQoEFSCgm3U0K8k40bN0qnTp1k2bJlbrtx3S6M8nfu3KncSOACA/erXbt2qVgy1iC5roGyIQmQAAmQAAmQAAmQAAmEhABdS0Ky0PGm+eKLL6pTSHSdyy+/XBYsWKA/+v6+d+/eCvJ8F5BjHXbp0kW5iEyfPl3mz5+vXpjC5MmTZciQIWmZzZ49e5QSA50PGzYsLTLidRpW+cXFxbJ69WoTDdx5EPOEiQRIgARIgARIgARIgARIIHkCdC1JnhVrkkDaCOAUErzgHhIrpoOfwuF+ggS3FljmZDqFWX7lypWVxdOAAQNk5cqVobNAyvReozwSIAESIAESIAESIIH8I0CLjPxb06RnNHfu3KTr+lmxYcOGEokojyY/u835vhC40yl4ZzompuNDDBw4MKkgo36PIazyy8rK/EbJ/kiABEiABEiABEiABEggdAQYIyN0S84JkwAJkAAJkAAJkAAJkAAJkAAJkEDuEqBrSe6uHUdOAiRAAiRAAiRAAiRAAiRAAiRAAqEjQEVG6JacEyYBEiABEiABEiABEiABEiABEiCB3CVARUburh1HTgIkQAIkQAIkQAIkQAIkQAIkQAKhI0BFRuiWnBMmARIgARIgARIgARIgARIgARIggdwlQEVG7q4dR04CJEACJEACJEACJEACJEACJEACoSNARUbolpwTJgESIAESIAESIAESIAESIAESIIHcJUBFRu6uHUdOAiRAAiRAAiRAAiRAAiRAAiRAAqEjQEVG6JacEyYBEiABEiABEiABEiABEiABEiCB3CVQJXeHzpGTQDgJlJeXy+HDh6V+/fpSs2bNcELI01nv3LlTjh07JvXq1ZPq1avn6Sw5LRIgARIgARIgARIgARLwRoAWGd74sTUJZITAoUOH5JZbblE3uA0bNpRWrVrJnDlzMiKbQjJHoLi4WFq0aKEUVO3bt5dZs2ZlTjglkQAJkAAJkAAJkAAJkECOEKBFRo4sFIcZXgJHjx6Vrl27SllZWXghhGzmkUhE1q1bJyUlJbJnzx4pLS0NGQFOlwRIgARIgARIgARIgARiE6BFRmw2gZQMGTJEKlWqJN27dw9EfrYL3bZtm+IDRmG5sZ89e7Y511GjRslHH30kuNHFXomVPvjgAxk+fLicfvrpUrVqVTnllFOkqKhIJkyYIEeOHInVzLf8oOVjIps2bZKzzz7b3C/nnHOOb/NLpiM38rGnsT6rVq2SwsJCJeauu+6Sr7/+OhmRrEMCJEACJEACJEACJEACoSCQt4oMxBBYv369epoZipXkJPOWgFbYwJ3kwQcflEaNGsWd64IFCwRuCY8//rhs3bpV3QQfPHhQ3nzzTRkxYoR07txZDhw4ELcPL4VBy8fYFy1aJBdddJG89957Xqbiuq0X+SeeeKJccMEFMnbsWCUfbkWbN292PRY2JAESIAESIAESIAESIIF8I5C3igw8uf/kk0/UjUxQNzP5tlk4n2AIfPPNN0pwgwYNEg5gx44dyh3hiy++kKZNm8q0adOUQm/FihVKiQFLlpUrV8qwYcMS9uWmQtDyMWZYnfTs2VP2798vjRs3Vtdu5uK2jV/yresNCxwmEiABEiABEiABEiABEiCBbwnkrSLDGvEfPuZUZnDL5yoBuIUgJWNFgZtoWCNVq1ZNli5dKoMGDZK2bdsqt5I//elP8vvf/1719dRTTynXC/XBx3+Cln/vvfcqhc3x48elS5cusmbNGunQoYOPM4zflZ/yYUWjk94D+jPfSYAESIAESIAESIAESCDMBPJWkdG8eXPB6Q46UZmhSeT2OywKwpZq1aqlpvzZZ58lnPprr72m6gwePFiaNWsWVf+2225TJ2LgCf/ixYujyr1mBC3/3XffVVPACS+vvPKKnHrqqV6nlFJ7P+Vb15uKjJSWgZVJgARIgARIgARIgATynEDeKjKwbmeddVZgyoxnnnlGLr30UnVcZuXKlaVKlSrqWMW+ffvK6tWrk9pWOK3ioYceUvM46aSTlJk8blBhvp8oIdjir3/9a2ndurWgLZ7Qt2vXTu6+++64T/Z37txpBkdEjJHly5erEzNwM12jRg25+OKLBU/zEyWM8eabb5YzzzxTTj75ZMUBbSdPnizaVSJeH5DRsWNHgWVN/fr1pVevXuoUhxNOyOst64gkFUUGFHZIWGunhPgLCICJtHv3bqcqnvKClo89imNpx40bp75znibjorGf8rUFDn4/rBZmLobFJiRAAiRAAiRAAiRAAiSQVwTy/vhVKDOQ9A2Wftf56VhNBGQcPXp0VNeI24HX/PnzZe7cudK7d++oOtYMPD0fP368mYUbz+nTp8vzzz8v//rXv9SJFGah5QI3cldffXXU6RT/+c9/BK+///3vyu0A8QPiJRz/OHToUPnyyy/Nam+88YbgdeeddwrM6J3S66+/ruZmfaKMPnTbWbNmCQJCFhQUODVX/ULhotPnn3+u5gxXiXnz5unstLwjyGKyiiYoZeKdHOLXAKGEQrKuQ6y+9ekW8W58dZmuG6svN/m6Ty3DqQ9dpus61XGbN3HiRKW4c9veazs/5ev1jvU98TpWticBEiABEiABEiABEiCBXCUQisfbUFqcdtpp5hpBmZGumBn79u2T3/3ud0oWTk144YUXZMOGDfL+++/Liy++KJ06dVIWCb/85S/lq6++Msdkv0CcAygtHnjgAfn3v/+t3ABgjYH08ccfy/XXX29voj5v375drrnmGqXEQGyEGTNmyNq1awXBHqF4gHUETkCAgiJRwqkJ559/vjz77LOqj5kzZ0rLli1Vs/vuu08pU+x9IMBqv379BEoMnLLx17/+VcUpWLJkifz2t78VWATA/QBKGqcE5YnmB9cgnLyBOAcvvfSSOpL24YcfdmqW13lgilS3bt28nqcfk4P1UZDJT/l6vRG4VSs1gpwbZZMACZAACZAACZAACZBAthDIe4sMDRo31XgSrBUYUGbA3QP5fqZVq1aZlhB/+9vflGuH7v+MM85QR0LCfx8xCmCdEcsyBFYBaN+/f3/dXC655BJ1jZMocGP/6aefRt3cwmIBpuhNmjRRyouaNWua7YuKigQnIfzqV7+ShQsXKoWI9WQEs6LlAtYV6A/pvPPOU24mcFfBkZBTpkxRQSQt1ZXiYu/evVKnTh3llmLtH8d+InYJ5E+dOlWgDNFuE7oPKF7ABgoPKD/ATKef/OQn8rOf/Ux/TMv7008/HVfBZBVqnZs1369ruBa98847MmnSJNVlSUlJyl1D+XTdddcptybEjNA3xyl35LJB0PJdDjsrmvXo0UN9j6Acvf3222XUqFHq+xvGODFZsSAcBAmQAAmQAAmQAAmQQNYQCIVFhqaNJ/zWG2er64Ou4/UdN5864WbenmrXrq0sLZ544omYSgy0wQ2nVYmh+9GWFLjZRxwMe4KSBNYciHVhVWLoepdddpm6jNVe18M7rD60EkPnI3hinz591EcnF4xly5apsiuuuELddOl2+h3WIohzAWsUHANqT7DIQMJNnFWJoevp+evPfr/DcgfKrWReTny9jgeuLbhRxQvKnMLCQtmyZYuyshkzZkzK3UMxhFgLsMrRa5NyJx4aBC3fw9ADbwqXIigcYVn1yCOPqHg/+O7o/QFFIhMJkAAJkAAJkAAJkAAJhJFAqBQZsMawKi+s7iZ+Lf65555rdjVixAjXARVjWYq0aNHC7B+xI1JNOt4C2iUyV4flhVPS7iX79++PKtYxSJxOzEBlmN7rkyScgk3qIye1DLuAWPn2evn0GcFOcYSoG7cFHL+KEy/QHseRZjoFLT/T8/VbHiyYYAllVyj6LYf9kQAJkAAJkAAJkAAJkEAuEQiNawmUGPomGwsElw7r8ax+LRpu4GF1gNgQCKqJ1+mnny7nnHOOtG/fXt1M4oYy0Y1JrJtWaztYVTglPH3/wx/+oFwz4OaRzCkhTv3EGgMsMnCDZVWK6PbHjh1Tl4jHESsYqK5rtV7ReXqs3/ve93RWhXdYKeRzsrq2IBgmLFRKS0sFSjG4QsFNJJUEqx4ny55U+vBSN2j5XsYedFt8v3v27KlixODUHsSVwW+WPrkn3a5NQc+f8kmABEiABEiABEiABEggFoG8V2Tgxho39nC30CldSgzdP+I/QMaECROURQZcA/BC0EwkHEmK2AF4Su53QkDRK6+8UtJxIoQeK47v1Ed46rx8eYdLTrwgrNZ54kbSb/cSu5VQmzZtZOvWrSpGAk6wSVWRYR0vr3OLAE75QaBbJPymUHGRW+vH0ZIACZAACZAACZAACaSPQF4rMoJQYmCpYDWBEzpGjhypgjVCkbJ+/XplIYETSHCCCWJVIMYFzP79SsePH1enkUCJ8f3vf19wDCxiLFitG+AOgtNU0p1uvPFGuemmm+KKycYbs+Li4qw7flW7EyE4LFN4CECBhYSThrLxuxKeleBMSYAESIAESIAESIAEso1A3ioyglJiWBcYJuCImWGNmzF79mwZMGCAwOXjmWeekauvvtraxNM1nt7CogAJri0//vGPo/rTR3lGFfiUAfcHJFgqxIrzEU+UNpt3cjtBu3RamsQbV5Bl2l1Hu93EG4t2vbFaINnr67JYrkP2+ql8Dlp+KmPN9rpQTCLp92wfL8dHAiRAAiRAAiRAAiRAApkikLeKjE2bNmXUnSTZBUPMAFhr4Om630/YP/74Y3MYVuWJmWlcOAXotJZ7vW7UqJHqAq40sZK+MYfliv0oSW2hsnnzZsfmsfIdK7vILCsrc9EqvU1w6giSZhNPGmIoIIjq22+/7VgNiqANGzaoMhzRmyjNmjXLPLIYe0qfWBOrXdDyY43LbX6q83crx6mddls6cuSIUuBpJZFTXeaRAAmQAAmQAAmQAAmQQJgIhOLUknTHxLBuGATZRGDPyy+/XJyCceJpuLaKsB4Fa+3D7bXV/Py1115z7GbcuHGO+X5ldu7cWXX13HPPya5du6K6Xb58uXJ1gbvLm2++GVWOExqQXnnlFcfjZf/85z9Htcn3jFQUGV27dlU4pk2bJtu3b49CM3bsWMHJMFAgdevWLarcnjF69Gi555571As31IlS0PITjS/V8lTnn2r/8epbFVf6NJ949VlGAiRAAiRAAiRAAiRAAmEhkLcWGXBrqF69ukBZgPdMJQTw/N///V8VG6Nv376CWBF48g3zcPi8I24FlBm4kezevbuvw4JsBIuEe8mwYcOUvEsuuUSqVq2q4nJACZDuGyK4ymCOsA7p1KmT3H333eq0FlhhrFixQn7/+9+rOePp/g9/+MOo+aP9ww8/LLhphmsMbqIxLyh/Hn30UeWSE9UozzNSUWRgvz322GOCo3mhVAK/Cy+8UA4dOiSwLkAAWqSSkhJp2rRpXHIffvihaTVUt27dhNYY6Cxo+VDe2K2OysvL1TwRxBXxaqypXbt25ikg1nxcu5m/n/K1RQbGgu9tvXr1cMlEAiRAAiRAAiRAAiRAAiSwb9++CF5M/hEYPHgwzkWN+7r11lsdBV577bWqnfG03LHciK1h9rto0aKoOgsXLowYJuhmHes4kP/888+bZU7tjZs3s/xf//pXVP/JZLz++usRQ4Fk9mMdA66NQKQRw70hZlfGsa2ObY2YDhEjxohZtmrVqph95FOBcVKJmnPHjh2TmpZhDRMxAkSanOz8i4qKIoZyJGFfTz75pNnHzTffnLC+rhCkfMN1yxyzfd5Onw0Fjx521Lub+fsp33APMueCayYSIAESIAESIAESIAESIIFvCYTCtcS4gclowlGJM2bMkIsvvtg8nhNBLGvXri0wvf/HP/4hf/zjH9MyJpyGgpNR+vXrJ6eeeqpy48AJJojNsXLlSiU/LYItnXbp0kXWrVsnI0aMkNatW0tBQYFUq1ZNnaACCwGc4AJ3n1jpzjvvlDlz5ohxw61ObKhTp4706NFD4C6TiRNXYo0rqHztgoS4I8kEO+3Vq5eyPBg6dKg0b95cEFsBDA1FiEyaNEmWLl1q7st4c1qyZIlZjL6STUHLT3acieq5nX+ifpMtx+lGOtWoUUNf8p0ESIAESIAESIAESIAEQk+gEqwxQAE32UwkQALZRwA31HARQurdu7eUlpZK48aN1ZGcVvcDVcHHf84880zZuHGjchFatmyZjz0n11UY5cMtDG4kcIHB8c2IM9OyZUtB8GImEiABEiABEiABEiABEiCBbwnQIoM7gQSynAAsXAYNGqRGOX/+fMFnWLrAaiVdac+ePUqJgf4RbyXTKazyi4uLpW3btnLVVVcpJQbi2yDmCRMJkAAJkAAJkAAJkAAJkMB3BKjI+I4Fr0ggawngFBK84B6SieC1cD9BglsLgtZmOoVZPo4lxjHGAwYMUO5gfgcFzvRaUh4JkAAJkAAJkAAJkAAJ+E0gb08t8RsU+yOBoAnAKkNbZqR7LDo+xMCBA1WMk3TLs/cfVvllZWV2FPxMAiRAAiRAAiRAAiRAAiRgI8AYGTYg/EgCJEACJEACJEACJEACJEACJEACJJC9BOhakr1rw5GRAAmQAAmQAAmQAAmQAAmQAAmQAAnYCFCRYQPCjyRAAiRAAiRAAiRAAiRAAiRAAiRAAtlLgIqM7F0bjowESIAESIAESIAESIAESIAESIAESMBGgIoMGxB+JAESIAESIAESIAESIAESIAESIAESyF4CVGRk79pwZCRAAiRAAiRAAiRAAiRAAiRAAiRAAjYCVGTYgPAjCZAACZAACZAACZAACZAACZAACZBA9hKgIiN714YjIwESIAESIAESIAESIAESIAESIAESsBGgIsMGhB9JgARIgARIgARIgARIgARIgARIgASyl0CV7B0aR0YCJJCPBMrLy+Xw4cNSv359qVmzZspT9No+ZYFskDECO3fulGPHjkm9evWkevXqGZObiiDuv1Ro5VZd7r/cWq98Gy33X76taG7Nx+v+89o+t2hxtNlCgBYZ2bISHAcJ5DGBQ4cOyS233KJuUBs2bCitWrWSOXPmJD1jr+2TFsSKgRIoLi6WFi1aKAVX+/btZdasWYGORwvn/tMk8vud+y+/1zfbZ8f9l+0rlN/j87r/vLbPb7qcXboI0CIjXWTZLwmQgCJw9OhR6dq1q5SVlbki4rW9K6FsFCiBSCQi69atk5KSEtmzZ4+UlpYGNh7uv8DQByaY+y8w9BRsEOD+4zYIkoDX/ee1fZBzp+wcJLBv374IXkyZIbB169aIsU3Ua9WqVQmFLl++PGI8oYxUq1YtMnLkyIT1WYEEso3Ak08+ae75UaNGRT766KOUhuim/caNGyPDhg1T350TTzwxYriwRH74wx9Gxo8fH/nqq69Sku+mMuW753/kyJEIfhsLCwvVvqlRo0YEeUEl7r/Uyefy/uf+S3297S1yef3tc3Hz2cv8uf/cEK/Yxgv/ij25+5TL8r3uP6/t3RFnqzATkHxVZBimwJH//Oc/kd27d2fV+qaqyPjVr35l3gRWrlw5cvz48YzN59Zbb1Wyzz///IzJpKD8IzBixAi1jwx3EleTS7X9c889Fzn55JPN741WHOr3iy66KPLZZ5+5GksyjSjfH/6vvPKKuYbvvvtuMujTUof7LzWs+bL/uf9SW3ddO1/WX88n1Xe/5s/9lyr5b+v7xd+d9EgkX+R73X9e27vlz3bhI5C3MTK2bdsmn3zyibz33nvqlYPGMmrIV111lTRr1kwMiwxlXn3CCXm7ZLm6RBx3AgLffPONqtGgQYMENZ2LU2m/Y8cO5Y7wxRdfSNOmTWXatGmyfv16WbFihRg3pFKpUiVZuXKlGNYazsI85lK+f/yt+8X4r9njyrhvzv2XPLt82v/cf8mvu66ZT+uv55TKu5/z5/5Lhfy3df3kn7p0kXyS73X/eW3vhj/bhJRAvlpkwPJh8eLF5mvDhg1ZoaZK1SIjyEHTIiNI+vkj+4477lBP1tu2betqUqm013sWrliGMjNK3n333afGYig0Ih988EFUudcMyv/WissP/m+88YZpkWFEQ/e6NK7bc/8ljy6f9j/3X/Lrrmvm0/rrOaXy7uf8uf9SIf9tXT/5py49Eskn+V73n9f2bvizTTgJ5O3j/ebNmwtOR9AJAeNgnRF0whNhJhIIE4FatWqp6RruHK6mnUr71157TckYPHiwsmSyC7ztttvUiRjGz70Yik57sefPlO8ff+t+OeWUUzyvjdsOuP+SJ5dP+5/7L/l11zXzaf31nFJ593P+3H+pkP+2rp/8U5cukk/yve4/r+3d8GebcBLIW0UGlvOss84KTJnx1FNPSceOHaV69epSv3596dWrl4rCn8g1ZNOmTcr8HQoP++uXv/xl0rv0mWeekUsvvVQdd2nE1pAqVaqoYw379u0rq1evduwHJwNYZY4bN07VQ31rvr42nlQ69oNM42m3/PrXv5bWrVvLSSedpFxj2rVrJ3fffbccOHAgZrshQ4YoWd27dxecFvDQQw+pdUQfjRs3FtygwnwvUdq+fbvceOONcsYZZ0hBQYFaBxzneO+998rBgwcTNVcybr75ZjnzzDPFiLegOF588cUyefJk0abm8Tpxwz9ef7lclsqNoNM8U2kPhSUS9ppTMgJ/ytlnn62KjPg5TlU85VG+f/z17wR+v/A7GlTi/kuefD7tf+6/5Ndd18yn9ddzSuXdz/lz/6VC/tu6fvJPXbqoE7bQLh/+/vC6/7y2d8OfbcJJIO+PX4UyA0n/wOl3nZ+OZcfNMm7Ydfr888/l+eefl6VLl8q8efN0dtreH3zwQRk9enRU/4gbgtf8+fNl7ty50rt376g6fmTMmTNHrr76ajGiF1fozgi+Knj9/e9/VyygmIiX8PTcOGXCrIIbz+nTpyuW//rXv+T00083y6wXRpAh6dOnT5TCAsc54vXXv/5Vac4Re8Qpvf7664qNVaP85ZdfimEqp16zZs2SBQsWKAWJU/sg+V9wwQUxFVX2sUIpA8VRuhPiuyCBoZuUSvuvv/5aiYh346vLdF03Y4rVRvepZTjV02W6rlMdt3m6Ty3DqR9dpus61XGbp/vUMpz60WW6rlMd5On9AkVkkIn7L3n6ek31Gju11GW6rlMdt3m6Ty3DqR9dpus61UEe918sMrHzNVPN2KmmLtN1neq4zdN9ahlO/egyXdepjts83aeW4dSPLtN1neogj/svFpnY+ZqpZuxUU5fpuk513ObpPrUMp350ma7rVMdtnu5Ty3DqR5fpuk51kOd1/3ltH2tczCcBO4G8tsjQk4XS4rTTTtMflVIjXW4muFH+3e9+p2TBteXxxx+XNWvWyEsvvSSwMnj44YfNcThd4OYa1gzWFywBkk1GzBNTvnE6g7zwwgtixAeR999/X1588UXp1KmTsiiAdYdxDGWFbqE4eOutt8wXlBFIbdq0MfOs5TfccEOF9vgAS4hrrrlGKTGMmAgyY8YMWbt2rQq2CAUPrBs2b94sQ4cOjWprzTh8+LBSOEApgOCMUC4gQCOsQT7++GO5/vrrrdXN67179wqsTmB1AUuYCRMmiHGUoxjH2CoukL9lyxbp37+/OqvdbPjfCwSI7devn0CJYZyyocaA9VuyZIn89re/FTzRh/kgWDklL/yd+suHPDBFqlu3rqvpeG3vSigbBU5A7xcEbtV/FAUxKO6/IKgHL5P7L/g1CPMIuP/CvPrBz93r/vPaPngCHEGuEAiFIgOLgZtSqxUGLDPgxuF3wo07/O9xw4ubX9ywFxYWyk9+8hP55z//GfMpvh7H9773PTVWjFe/cPOdbMJNu7aE+Nvf/iY9e/ZU84aLBVxNnn32WYESA9YYsM6wpiZNmgjcL/QLigAkPBHVedZ3awwS3Q8sTmAKjr5wUsTAgQPlvPPOk6KiIrnzzjtNRc7ChQuVQkK3s7/DnQUnTowaNUouvPBC6dKli/zlL38xT5uAYujTTz+1N1OuHzBpA3/EQIB7CawU4OYDKxlYISD9+9//VgoOewew1oAypE6dOkr5AWUO1q9z587yhz/8QSlG0Gbq1KlK2WFv74W/vS83n59++ukKSjCrQsx+DYVNOhNcg6DEmjRpkhJTUlKSkjiv7SFs5syZAtcArKHTfklpQC4qU757/j169FDfQ7hy3X777VJeXu6ofHSxLEk14f5LClPcSrm8/7n/4i5tUoW5vP5JTTBBJS/z5/5LADeJYi/8k+g+YZVclu91/3ltnxAuK5DAfwmERpGB+eLGW/s747PVdQCf/UiwyEDClxjKA3tKZIlgr5/qZ/zxrRNuxu2pdu3ayj3jiSeeqKDYsddz+/mWW24RWFMYpwyooIr2fi677DKVBWUPbqxjJShRnFxfECMDKVZ7WF4ggT8sQuzp5z//ufK3h7IF1iX2tGzZMpV1xRVXiPX4KF0P1iaIcwJrFliK2FPQ/GF5pBVgid5r1qxpH77nz1Aa6RgqUCZBgQALGHAbM2ZMwv69trcLgGIRii0oVPTa2uuk8zPlu+cPlw4oPPE9fuSRR9TvN757en9NmTLF96Xj/vMXaS7vf+4/73shl9ff++xFWaS6/f+H+8/7CnD/Bff/bxD71/uOYQ+5SCBUigy4k1iVF1Z3E78WTweSbNmypWOXsfIdK7vIPPfcc81WI0aMkHQENDQFuLjAj5tO8czFY3HCaTQ6IfaIPWkz8FjtYfFy6NAhOXbsmAwfPtze3IylEit+BoKOnnrqqaqdE9ts5x814QxkQCnVoUMHFfTVjTgv7QcNGiQ48QLyYdWT6UT53vjj+w6LLigeg0rcf+7J5/r+5/5zv/Zomevr72323ufP/edtBbj/gv3/Nxv2r7cdxNa5QCDvg33qRYASQwf6RB7cTJxcI3R9t+/6RAvcMDslPKVOZ8INOJ5+w0UCQTXxQlDMc845R7mH4GYOr3TeGODpN9ww4FoDNw3NJJV5V61a1bG69dQXWGXY0/Hjx1VWLP72+vbPUHAgIZ4HXvGS1fpC18sG/nosQbzDtUXHXkEwKVgo4TQcKNVwcs51110Xd1he29s7RywUvIJKlO+eP77fcI1DjBqc+oS4NPjN1r8BThZTXteZ+88rwYrtc3n/c/9VXEs3n3J5/d3M197Gy/y5/+w0U//shX/q0qJb5LJ8r/vPa/tomswhAWcCea/IwI0pbqzh7qBTupQYuv+g3xG/AXNEoEtYDcC0Hy/Ex0DCkaLw3cNTar8TAopeeeWVkigist9ys6m/IPnDpUcrEhIxwY2g3+4ldisnBIrdunWrinGAE2gSKTK8tk80Z5bnDgGcEgQlBhK+U+lQXNhpcP/ZiYT3M/dfeNc+G2bO/ZcNqxDeMXjdf17bh5c8Z54qgbxWZIRRiYENAGsLnLAxcuRIeeedd5QiZ/369cpCAkEucYIJYlUgRgXM7v1KsIZADBAoMb7//e8LThxBjASrdcT+/fsFp6lke0KQ0JtuuinuMGPdWAXFH4MtLi7OuuNXW7RooTjag8vGhWsp9Nre0hUvc4gAFGBICHYc67uWielw/2WCcvbJ4P7LvjUJ04i4/8K02tk3V6/7z2v77CPCEWUrgbxVZASlxNBmz05uB9gEmbRUwFgQs8Eat2H27NkyYMAA5fLxzDPPiD5i1Y8NiqensAhAgmvLj3/846hudQyLqAKfMrTLTDzOOM4R7i5wX7EqWTAEuD8gwVIBwTK9pEzz9zLWdLbV7jpuXIwwrlTaa9ctqwWWfW66DPFO/E6U/63rnGbsxFeXJeKv3cT0u1Nfmcjj/kuecj7tf73v9HvyFPytyf2XPE/uv+RZJVuT+y9ZUqJOy0Nt/X+cU0tdluj/P6e2ifL83P/6d0+/J5JtL9ft9Lu9nJ9JwC8CeavIwNGq+gcDsDLlTqItHDZv3uy4RrHyHSunIRM+e7DWwNNxvPxMH3/8sdmdVXliZhoXsMhIZ6pXr57qPtbRulBw4DQXHFH72GOPRQX8bNSokWoPV5xYSf/HDqUJTlBIJaWTP8ZRVlaWynAyUhdR25H0dyNVoam0RwwFuFO9/fbbjmKw/hs2bFBlOCI4UZo1a5Ygvg4S9nSfPn3iNqF8//hrtyd8V7Fu+o+0uAtgK0x1/WzN1Ufuv3Duf+4/kVS/P/z94+8f///Nj78/vP7+eW3v9H8x80jAkcC+ffsieOVbMm5WIosXL1Yv44c1Y9O79dZbEYEyYjztj2zcuDFKrhG0TpWjzqpVq6LKnTIuvfRS1cYI4ulUXCHvgQceiBjHFUZ++tOfRown4BXK8ME4sSNSvXp11Z8RsyCq3Jpxxx13qHqGZYI1O+a1cRypOTfD8sOxnnFSiFln0aJFUXWuvfZaVd6tW7eoMmQYwUPjtr///vtVuWFpETFuZqP6MHztzfZO/B9++GFVDkaGdUlUe8Pvz2y/YsWKqHI/+Ud1nqMZ9913n2JmBJ11NYNU2uvvn3E6TsRQ1EXJ030ZCqjI9u3bo8rtGUbUbXO9jcC59uKoz5T/7e+fH/zx+4DfSbzwvXeTUl0/Jxl6zySzf7n+/q0/1iLV9fOTP/dfsPyDXv+g5XP/cf/l8u+fH/sX30EmEkhEQPJVkWG4dkQ+/PBDdeOeCIKf5cYpDRHcJOGPb+OJb2TKlCkRw+Ui8vLLL0d69+4d+cEPfmD+ce50I40xG7ErKrwuvvhi1eZnP/tZhXzUM46TrTB8I9im2T/qQ5kDhQoUOy+88EKkc+fOqhxjNOJnVGhr/zBnzhyzr4ceeiiyevXqyFtvvWW+oBSxJsNSIWIEy1NtjKfvESNGRuTNN99U9Y0nO0p2+/btzT7xQ2dPXhUZ5eXlEUMTrGTUrVs3AmUNOC9fvjxy5513RgxzPlVWVFRkF60+G64vEcMfX9XBfyLTp09X40cf6Muw+FBlxtN5R0WRn/wdB5iDmcZpE4qZES/F1ehTaQ/lBW6i8f1r2rSpWj8jPsz/b+9OgKSo7jiO/xEVUU5hQcAYKURFFASJqSAJypHE0tKlJGQhhQQEFI2CGAFjYsTSUkSCilggigmYcHjgUUCCaAlYIcpyRaKCoIigYLxgEeSQyfwe6bFZZnbOnpmd+b6qcWZ6ut97/ek3i/2fd4SWL18eCq+cEvlu9uvXL25dtmzZ4vJRXmpL4UlU4x5D+ZnzD8/nE/EP92SLa195h1SuX+U89J72V5ztn/bH3z/97c/V33/aH+2vOre/dNtvtH+L2YZANIGCDWREO9lsbQsv2xn5H3DvD5GedROtngretmiBjAsuuCDyubdfVc8TJ0486rQGDRoUNw/9chUvhbt0h8KrTsTMK1ogYuHChaFwF/Cox2j7/PnzI59FOz7dQIbO6R//+Eek10k0O/2yWtWv8a+99lqoQYMGkXpWziM8kakLDMXyy5R/rPyr2/bwSiXOsnPnzilVPdnjX3rppVB4gsiY109BrPBwgbh1mTlzZiSPm2++Oe7+3g6Unxl/9ajyvnvReld53rGeU71+lfOj/VmoGNs/7Y+/f97fn1y0f9of7a86t79022/lf4d5j0AsAQIZsWTS3K7eDLph0g1VeE6GUM+ePUMaihCeyTfyP+dBBTJU9RkzZoTUk8PrnRCeeDLUsGHDULdu3UKzZs1K+Oy2b98e0pCWkpKSyK/Z3h/XaIEIZaxeG3369Ak1bdo0pCEeuvEPzw0RCi+DG9q7d2/k/KMdn4lAhuoQnuMipBuQVq1auWE+tWvXDrVr1y505513JnQTq0CHfsFv3bp1SMfqV371KBg7dmxCx2fKX+dS3dPvfvc7d83D46dDCo4lm1I5Xr2QwivouK7pCqDpO6hAyuTJk0PqrZVIGjx4cKStvv3224kcEtmH8tP3f/rppyP++ruZbErn+vnLov1ZqBjbP+2Pv3/e/+vkov3T/mh/1bn9pdt+/f8G8xqBqgQIZFSlw2cIIJC2gHq4eP8ga3jVkiVL3BCpRHpFqPB0j0/1BM4880xX7y5duqSaRVrHFWP5GlqnIW+aj0RD89RuFIxMJWXKj/ZXPO2f9vfdNy1T35/vckzuVTGWT/v7ro0U4/X/7uxDoVycf7rtL93j/efPawQSFSCQkagU+yGAQMoCAwcOjAQzvKDGtGnTEs4v3eMTLuj/O2qCYK+e6l2T7VSs5VceWqdJk6P13Ip3PTLtR/uLJ57ZzzN9/RKtHe3vsFSu/L3rVKzl0/5ofxLIVftPt/2le7z3/ecZgWQEjgn/zzoJAQQQCFRg+vTppkd4eIeFV4RJuqx0j0+2wKVLl7pDwnOlWO/evZM9PO39i7l8LWusZZDLysosvBKS9ejRI2nPTPvR/pK+BGkdkOnrl0xlaH9mufTXtSrm8ml/xX39c93+021/6R6fzN9q9kVAAsfCgAACCGRDIPyrtumRakr3+GTKDQ9/cbv379/fwnOkJHNoRvYt1vLLy8vz1o/2l5FLk1AmuWr/tL/DlydX/l7jKNbyaX+0Pwnkqv2n2/7SPd77/vOMQDICNbT8qg4ITwSZzHHsiwACCCCAAAIIIIAAAggggAACCGRdgKElWSenQAQQQAABBBBAAAEEEEAAAQQQSFWAQEaqchyHAAIIIIAAAggggAACCCCAAAJZFyCQkXVyCkQAAQQQQAABBBBAAAEEEEAAgVQFCGSkKsdxCCCAAAIIIIAAAggggAACCCCQdQECGVknp0AEEEAAAQQQQAABBBBAAAEEEEhVgEBGqnIchwACCCCAAAIIIIAAAggggAACWRcgkJF1cgpEAAEEEEAAAQQQQAABBBBAAIFUBQhkpCrHcQgggAACCCCAAAIIIIAAAgggkHWBY7NeIgUWvcCOHTts9+7dVlJSYvXq1St6j0IC2Lp1qx08eNAaN25sderUKaRT41wQQAABBBBAAAEEEEAgTwTokZEnF6LQq1FRUWEjR450N7innHKKnXHGGTZ37txCP+2iO7/S0lJr2bKlC1Cdf/75Nnv27KIz4IQRQAABBBBAAAEEEEAgWAF6ZATrS+5hgQMHDli3bt2svLwcjyIRCIVCtnbtWuvbt69t377dRowYUSRnzmkigAACCCCAAAIIIIBA0AL0yMiw8JgxY6xGjRqmX6NJhwXmzJkTCWKMHj3aPv74Y9ON7uDBg48imjJlivOTYVWPsrKyo47NxIZcl+8/h40bN1qbNm0iDueee67/48Bfp1K+glX79u2zFStWWIcOHVwd77jjDtu/f3/g9aUABBBAAAEEEEAAAQQQKA6Bgg1kaA6GdevWuV+Di+NS5u9Zej0xNJzkvvvus2bNmuVvZfOkZi+//LJdeOGF9u677+akRumUf/zxx1unTp1s/Pjxru4aVrRp06acnAeFIoAAAggggAACCCCAQOEJFOzQks2bN9tnn33mHl999ZWdffbZhXf1qskZHTp0yNW0SZMmcWvcr18/69GjR9T9li9fbgMGDHC9Obp37x51n3Q35rp81f/hhx9284l8++231rx5c2vfvr0tXLgw3VNL+PhMle+/3uqBQ0IAAQQQQAABBBBAAAEEMiFQsD0y/CsmaIx+rn7ZzsRFqu551K9f353Czp07456KVjFRz43Kj9q1a9uoUaNcEGPIkCGmRxAp1+XfddddNnz4cFMQo2vXrrZq1Srr2LFjEKcaNc9Mlr9r165IGV4biGzgBQIIIIAAAggggAACCCCQokDBBjJOP/100+oYXiKY4Ulk/7lBgwauUPWMSSV988031qtXLzdM6KKLLrJHHnkklWxSPiab5b/99tuunlrhZfHixda0adOU653KgZks33+9CWSkcjU4BgEEEEAAAQQQQAABBKIJFGwgQyer4ST5GMzQ8AhNZKmbuy1btkS7LgW1Ld1AxtChQ93kkaeeeqo9++yzpjkYspmyWX7dunXdsrQTJkywY4/N/sivTJbv9cCpWbOm+XtIZfPaURYCCCCAAAIIIIAAAggUnkD275SybOjNjaEeGUres7c9y9Wx5557zmbMmOGK1VwEp512WkaroEkWV65cmVCe06ZNi7pySEIHJ7HTSSed5Pbeu3dvEkcd3lU39DNnzjQNLXn++eez3kMh2+VPmjTJTjjhhKSdMnVAJsv3rreuHQkBBBBAAAEEEEAAAQQQyJRAQffI8JAUtNCv+V7K1TCTHTt22LXXXuuqoaES6plRDEmTrio1atQoqdN99dVXTcu1KmnuhmwvaZuL8nMZxJBzJsv3rveePXvMC2qoDBICCCCAAAIIIIAAAgggkI5AUQQyBKTJI/29MBTM2LhxYzp2SR97zTXXuFVUtJrD1KlTkz4+kQPUa+G9995L6NGnT59Eskx5nwMHDtiaNWts8uTJLo++ffsmlZcCCZr0UunWW2+1hg0bmgw//fTTpPJJdedcl59qvfPluJ49e9rJJ59sWrXm9ttvNwXyWL0kX64O9UAAAQQQQAABBBBAoPoKFPzQEv+l0XwZCmB4kxB6z/59gnr92GOP2fz58132GtJRUlISSFH+nieBFBAn02hDWzSnhXqfjBs3Ls7RVX9cUVFh06dPt1deecXeeOONrA8zyXX5Vevk36caUqRlYwcNGmQTJ050D38tszW0yV8mrxFAAAEEEEAAAQQQQKD6CxRNjwxdKi3B6g9eZOumf9OmTXbLLbe41qKbuiuuuKL6t5wkzkBBGy0hmuywhbvvvtv9gq+eHRs2bHC9Mo455hj78MMPbcSIEUnUILVdc11+arXOr6O0elD79u1NE36SEEAAAQQQQAABBBBAAIFMCBRNjwwFMbyJPgWnYSb+FU0ygenPY+3atW5lEv823dQ9+OCD/k0F91pDW7RcqdL+/ftNDgo6DB8+3K3Ccf311yd9zlq9o3Xr1nb//febghoyfOaZZ0y/6GdjNYxcl580WJ4coGEkl156qa1atcouv/xyF4jSd07BKCUNsSIhgAACCCCAAAIIIIAAAskKFHwg4+DBg26eht27d0dsgg5iRAqq9EJLrga9pObWrVsjgYRKxR/1VjeS9erVO2p7Ohsq93I555xz7IMPPnBzJDz00EOWSiDDX59+/fq5QIau6zvvvGM/+MEP/B8H/jrX5Qd+ghks4PXXX3dBDGX5xBNPELjIoC1ZIYAAAggggAACCCBQzAIFHcjIZRCjTZs29uKLL7q29f7777tfpnVDf88995iGLASVSktL82751ZYtW7rT3bx5c9qnrV4tXtq1a5f3MmvPuS4/ayeagYLU3pVOPPFEghgZ8CQLBBBAAAEEEEAAAQQQOCxQsHNk5DKIIVpNcKmVUvT46U9/atddd50THz9+vK1fv/6wfpH8V9dCSatXVJW++OILe+CBB9wj1sok3iomyifT8y7kuvyqbKrjZ9618p6r4zlQZwQQQAABBBBAAAEEEMg/gYLtkaGlVfNhOIl3ydUTQ/M66Ab9hhtusMWLF3sfZfS5vLw8o/llIrOdO3e6bOrXr19ldgp0aJlVJc2JceWVVx61v3/J3ObNmx/1eeUNs2fPdpO8avt5551nV111VeVdIu9zXX6kIhl8kcz5Z7BYl5U3bGnfvn1uvhQF90gIIIAAAggggAACCCCAQLoCBdsjww+Tqzkx/HVo0KCBm6xS27R86KxZs/wfF/TrRAMZjRs3trPOOstZTJo0KarJhAkT3PYWLVpYq1atou7j33jbbbfZ2LFj3UM31FWlXJdfVd1S/SyZ80+1jFjH+QNXuRgGFKtebEcAAQQQQAABBBBAAIHqLVCwPTI0pEMrWiiAkI2VLRJpBldffbU9/vjjpkkQtRzrZZddlvHJNhOpR7b3STSQoXqNHj3atEStgj09evRwq51oXoqPPvrIHn30UZs/f76r/qhRo+IOLdEx3rwcjRo1qrI3hmeS6/K1tOyXX37pVcc979ixwz1rNZg1a9Yc8Vm7du0iq4Ac8UH4TSrnn8nyvR4ZqpcCGQoUkRBAAAEEEEAAAQQQQACBdAUKNpCh1UEqr6CRLla6x2vVEt2Md+zY0T755BP7wx/+YFrJo9DT119/7U6xdu3acU914MCBtm7dOvvTn/7kghkKaFROw4YNs5tuuqny5qPeL1myJLJNQaRatWpF3sd6kevyFUiZM2dO1Opt2rTJOnTocMRnFRUVMQN1qZx/Jsv3X2+vDRxRed4ggAACCCCAAAIIIIAAAikIFMXQkhRcAjtE8zTceOONLv/Jkyfb6tWrAysrXzJWrxglrd6yf//+uNXS8JFFixZZr169TENINLeC5sPQnBkLFixwwaC4mYR38N/IDxkyJJFD3D65Lj/hisbZMdXzj5Ntwh/7J7WtW7duwsexIwIIIIAAAggggAACCCBQlUCN8EoNIe3QsGHDqvbjMwRSFtAN9cUXX+yOV3BixIgRLjDRpEmTQIfWaL6NDRs2WJcuXWzZsmUp1z/VA4ux/K1bt7phJBoCo+E/27Ztc3OZ+CdpTdWT4xBAAAEEEEAAAQQQQAABCdAjg3YQuEDXrl1NQzaU5s2bZ3qvVUnmzp0bWNnbt293QQwVMHTo0MDKiZVxsZZfWlpqbdu2tV/96lcuiKHhPFOmTInFxHYEEEAAAQQQQAABBBBAIGkBAhlJk3FAKgLTp083PTp37hxzTodU8o11zNKlS91HGtbSu3fvWLsFtr2Yy69Zs6Y1a9bMysrK7M0333STtgYGTcYIIIAAAggggAACCCBQdAIFO9ln0V3JanDC6pXh9cwIurre/BD9+/c3/6STQZfr5V+s5ZeXl3sEPCOAAAIIIIAAAggggAACgQgwR0YgrGSKAAIIIIAAAggggAACCCCAAAJBCDC0JAhV8kQAAQQQQAABBBBAAAEEEEAAgUAECGQEwkqmCCCAAAIIIIAAAggggAACCCAQhACBjCBUyRMBBBBAAAEEEEAAAQQQQAABBAIRIJARCCuZIoAAAggggAACCCCAAAIIIIBAEAIEMoJQJU8EEEAAAQQQQAABBBBAAAEEEAhEgEBGIKxkigACCCCAAAIIIIAAAggggAACQQgQyAhClTwRQAABBBBAAAEEEEAAAQQQQCAQAQIZgbCSKQIIIIAAAggggAACCCCAAAIIBCFwbBCZkicCCAQnsGPHDtu9e7eVlJRYvXr1giuInLMusHXrVjt48KA1btzY6tSpk/XyKRABBBBAAAEEEEAAgeogQI+M6nCVqGPRC1RUVNjIkSPdDe4pp5xiZ5xxhs2dO7foXQoNoLS01Fq2bOkCVOeff77Nnj270E6R80EAAQQQQAABBBBAIG0BemSkTUgGCAQrcODAAevWrZuVl5cHWxC5541AKBSytWvXWt++fW379u02YsSIvKkbFUEAAQQQQAABBBBAINcC9MjI0BX417/+ZTVq1Ij5+OqrrzJUUmFnM2bMGGeoX6NJhwXmzJkTCWKMHj3aPv74Y9ON7uDBg48imjJlSsw26G+fZWVlRx2biQ2Un56/glX79u2zFStWWIcOHdwlueOOO2z//v2ZuDzkgQACCCCAAAIIIIBAQQgUbCBDcwisW7fO/ZpZEFcqByfx29/+1t0Ud+rUKQelU6Qn4PXE0HCS++67z5o1a+Z9xHMBChx//PGm79z48ePd2WlY0aZNmwrwTDklBBBAAAEEEEAAAQRSEyjYoSWbN2+2zz77zD3UG+Lss89OTSjBo/Tr6XvvvXfE3suWLbNBgwYdsY03CCQrcOjQIXdIkyZN4h7ar18/69GjR9T9li9fbgMGDHC9Obp37x51n3Q3Un7m/P3XWz1wSAgggAACCCCAAAIIIHBYoGADGZrxX4EMJY0xVwoymFGrVi03AaMr6P//2bhxo/8trxFISaB+/fruuJ07d8Y9XquYRFvJZNu2bTZq1CgXxBgyZIjpEUSi/Mz579q1K3KJvDYQ2cALBBBAAAEEEEAAAQSKWKBgh5acfvrpptUdvKRgxrvvvuu95RmBaiPQoEEDV9dU51n55ptvrFevXi6gd9FFF9kjjzyS1XOn/NT8/debQEZWmyyFIYAAAggggAACCOS5QMEGMuSuHhjVNZihYSrDhg2z1q1b2wknnGAnnXSStWvXzv74xz9aIr/Mv/DCC/azn/3MLddZs2ZNO/bYY92yjr1797aVK1dGbZZaGcE/IeSECRPcftrfv917/fvf/z5qPkFv1PAI1UE3d1u2bAm6uJznn24gY+jQoW7yyFNPPdWeffZZ0xwM2UyUn5q/9z3X91c9zEgIIIAAAggggAACCCBwWKCgAxk6xeoYzJg7d66dd955phUgNDxFqxjs2bPH3nrrLbvrrrvsggsucCtXxGrEmhCytLTUFi1aZJ9//rlpjoVvv/3WNG+IbmQvvPBCmzdvXqzD83r7c889ZzNmzHB1fPjhh+20007LaH01yaIXqIn3/Pjjj2e07FiZKYiltHfv3li7xNyuYNTMmTOtdu3a9vzzz1vTpk1j7hvEB5Sfur93vXXtSAgggAACCCCAAAIIIPCdQMEHMnSqCmbo12gv5fMwkw8//NBNyKjgRdu2bd1N+5o1a+yf//ynC2KceOKJbgWDWHMcfPHFF3bnnXe6U1XAYsGCBfbOO+/Y+vXr7e9//7t16dLFBTZ+/etfm7r8+9Ott95qq1evjjyuvvpq9/E555wT2eb//De/+Y3/8MBf79ixw6699lpXjoZKqGdGMSRvrpdGjRoldbqvvvqqablWJQXAsr2kLeWn5+9dbwUxvaBGUg2AnRFAAAEEEEAAAQQQKFCBgp3ss/L10tKV6p7tzZOhYIaGW2h7PiX1mFBX8hYtWrjghX/ixh/96EemlQyuu+46W7hwoX366afuvb/+K1ascD04tO2pp55yQ1O8z88880zXG2PkyJFu0kf10PBPgKoy9fBSSUmJe6lfhLN9E+zVwf98zTXXuAlcZTB16lT/Rxl7rV4LlQM8sTL3ryoRa590th84cMD+85//2OTJk102ffv2TSo7BRLUE0dJQSoFM37xi1/Yvffee1S7SSrjBHem/PT8e/bsaSeffLIpOHn77be7oJTanHoKkRBAAAEEEEAAAQQQKGaBouiR4V1gzZfhzTegbf7J9Lx9cv2sIMPu3btt69atUVef+PnPf+6qqOUYKy/3qg908+sl3QRVTg0bNrQnn3zS/vznPx8RxKi8X769f+yxx2z+/PmuWtOmTTMvyJLpeqrnjoJbiTz8QaZM1cM/tEVzWWhZ3/fff9/1Phk3blxaxVRUVNj06dNdMEu9W7KdKD85fw0pUsBSPbMmTpzo5vs55phjIkOfsjW0KdvthPIQQAABBBBAAAEEEIgnUFSBDPXG8Acv/MNN4kHly+fefAmqT7Tu5ppbw0vDhw+3Tz75xHtbbZ83bdpkt9xyi6v/oEGD7Iorrqi255JKxRW06dixo5v0NZnj7777btfzRsGtDRs2uF4ZuhHW8CVN7Bp0ovz0/bX6Uvv27V0vraCvF/kjgAACCCCAAAIIIFBdBIomkKEghoaTeKnyJKDe9nx41pwYvwUhS7kAAAipSURBVPzlL90vsBpm4p90Ml5PhO9///uRuSP++te/WvPmza1Vq1Z25ZVXuhVP/N398+FcY9Vh7dq1kfNW7wj1UtFN3YMPPhjrkILYrqEt6mmjh4aV/O1vf3O9bBSUevTRR1M6Rw2h0uo3999/v910000uj2eeecaZppRhkgdRfmr+6nV16aWXujag5yVLlri5brz20adPnySvBLsjgAACCCCAAAIIIFAYAgUfyDh48KCVl5dXmyCGJuT84Q9/aFq5RN3/teJIsumJJ55w8yA0a9bMHaqhCS+++KKbI6F79+6uq/qqVauSzTbn+yugo5viIJOG9GilmEQeu3btynhV/ENbNMmq5sVQEEPpoYceSru8fv36uTz0vdAksNlOlJ+4/+uvv27e91Tf6Z/85CemeW68YU9BDG3KdnugPAQQQAABBBBAAAEEUhEI9q4wlRpl8BjdrKl3g37N91I+98TQxIxajWT//v32ve99z7SMquZIOO6447zq25dffunmOIhsiPJCvTjGjBljo0aNcr/qy2DdunXuF9033njD/aqruTb0y279+vWj5JD7TW3atHHBF9VEgRj9Iv3BBx/YPffcYxqyEFTSsrUrV65MKHvN1TF48OCE9k1np5YtW7rDNTlrukm9WrwURCDGyzvWM+WfHqGJ56/2rqSVioKeWDZSKV4ggAACCCCAAAIIIFANBAo2kFHdghhqK/r1VT0ClP7yl7/YJZdc4l77/+MtxenfFuu15kPQnBn+eTPmzJljZWVl9t///tdeeOEF85ZYjZVHrrZrokv98qykZ63UoqEV48ePt/79+9tZZ52Vq6plvVy1ZaV4vXO0uoUm81TSdY128+utYqJ9FPDKZKL8zPp718p7zuS1Ii8EEEAAAQQQQAABBKqzQMEGMjQ0INc9MZJdJlHLqXrJH3zwtulZPTLSSZp7Q7019Ot+Jn7hT6cuyRyrnhia10FGN9xwgy1evDiZwxPeV8OQ8i3t3LnTVSle7xkFOrTMqpLmxNC8KJWTvhde0vwp8dLs2bMjSxarTV511VUxD6H8zPp7Q0f27dvnemkpuEdCAAEEEEAAAQQQQAABs4KfI0MXOVfDSbTUqZc++ugj72XMZ/8v6JqUM1qaMGFCtM2Rbffee6+de+65dtlll7kVKyIf/P+Fgjterw7/UrSV99P72rVru83ejXS0fbK1TXXVZJVKr7zyis2aNStbRee8HM8/XiCjcePGkZ4qkyZNilpvr/20aNHCTQIbdSffxttuu83Gjh3rHrqhripRfmb9/dc73jCUqq4LnyGAAAIIIIAAAgggUGgCBRvI8CbE69Spk1v9IxcXTssmesEMrRbx5ptvHjWJ5J49eyJV0xKb3pKwQ4cOtXHjxpnmtNAcFxoS0rVrV/c+ckCUF8pDq10sWLDAevfuba+99pqbC0OrtixcuNAFOBTMUG+RHj16RMnhu03t2rVzb/QrvoZ0aOiL6uI9/D1evjsquFcaLtGlSxdXgJZjLZabu0QDGYIZPXq081GwR9f3pZdesrfeesu1h8svv9y0KoqS5k+JN7REwTev106jRo2q7I3hMg3/h/Iz5+/1yJBtsbR1rx3xjAACCCCAAAIIIIBAlQLhce0hPUjBCEydOjUUvgAxH+EbzSMKDgcbQuEu5FH31/b58+dHPnv55ZePONZ7M2jQoMg+scoOBwK83WM+h3+BD4VXzoiZV6zyY2aYwAfhG2FXXjgIFHXvf//736HwyiVun3BwKOo+hbbx+uuvd+fbuXPnhE5t5MiRMa+Z2sOwYcMSymfmzJmRfG6++eaEjtFOlJ8Zf7V17/ur1yQEEEAAAQQQQAABBBA4LFCwPTLCNwB5kdSz4umnnzb1DKlVq1bcOmk1EfXC6NOnjzVt2tStWKIVTDS3hXp0dOvWLW4eWqpxxowZ9uMf/9i8X3U18ad6h+h4Dct44IEH4uajMfka4jJgwAArKSlxvTjiHhTwDpqn4cYbb3SlTJ482VavXh1wibnP3hsCpNVbtKJNvKThI4sWLbJevXqZhpDoOmo+DM2ZoZ46mjQ1kbRkyZLIblpNJ9FE+ZnxX79+fYS8bt26kde8QAABBBBAAAEEEECg2AVqqDeGELwhEMUOwvmnLqAhEFoNJZnUqlWrvAiQJFPnbO+rgMLFF1/silVwYsSIES4woTlVvEBVEHXSyjAbNmxww3mWLVsWRBFV5lmM5WvVIg0j0fAtDf/Ztm2bm8vEP0lrlWh8iAACCCCAAAIIIIBAEQgU7KolRXDt8u4Un3zySQsPQUiqXhUVFVanTp2kjim2nTU3ysCBA02+8+bNcw8ZTJs2zQYPHhwIx/bt210QQ5mrV1G2U7GWX1paaitXroxwqxfXlClTIu95gQACCCCAAAIIIIAAAkWyagkXGoHqLjB9+nTTIzxPRlYCP0uXLnVkGtaiSWOznYq5fE3C2qxZMysrK3PDyeJNypvta0N5CCCAAAIIIIAAAgjkWoAeGbm+AgVUvoY86EEKRkC9MvTIRvLmx+jfv39kGd5slOuVUazll5eXewQ8I4AAAggggAACCCCAQAwB5siIAcNmBBBAAAEEEEAAAQQQQAABBBDIPwFWLcm/a0KNEEAAAQQQQAABBBBAAAEEEEAghgCBjBgwbEYAAQQQQAABBBBAAAEEEEAAgfwTIJCRf9eEGiGAAAIIIIAAAggggAACCCCAQAwBAhkxYNiMAAIIIIAAAggggAACCCCAAAL5J0AgI/+uCTVCAAEEEEAAAQQQQAABBBBAAIEYAtUukHHo0CF76qmnrHv3Hta06SnWoEFD69TpBzZ+/Hj7+uuvY5wmmxFAAAEEEEAAAQQQQAABBBBAoBAEqtXyq59//rmVlvay5cv/aRf88BJrfdZ5dtxxx9uHH6y3N5e/Yo0anWwL5s+3tm3bFsK14RwQQAABBBBAAAEEEEAAAQQQQKCSwP8AAN90hMrahwgAAAAASUVORK5CYII=;" vertex="1" parent="1">
          <mxGeometry x="-160" y="160.00000000000006" width="384" height="376.85" as="geometry" />
        </mxCell>
        <mxCell id="iv-ONhpST4pGWa4uh-DX-13" value="" style="group" vertex="1" connectable="0" parent="1">
          <mxGeometry x="260" y="166.85" width="370" height="370" as="geometry" />
        </mxCell>
        <mxCell id="iv-ONhpST4pGWa4uh-DX-1" value="" style="endArrow=classic;html=1;rounded=0;" edge="1" parent="iv-ONhpST4pGWa4uh-DX-13">
          <mxGeometry width="50" height="50" relative="1" as="geometry">
            <mxPoint y="184.99999999999997" as="sourcePoint" />
            <mxPoint x="370" y="184.99999999999997" as="targetPoint" />
          </mxGeometry>
        </mxCell>
        <mxCell id="iv-ONhpST4pGWa4uh-DX-2" value="" style="endArrow=classic;html=1;rounded=0;" edge="1" parent="iv-ONhpST4pGWa4uh-DX-13">
          <mxGeometry width="50" height="50" relative="1" as="geometry">
            <mxPoint x="123.33333333333334" y="369.99999999999994" as="sourcePoint" />
            <mxPoint x="123.33333333333334" as="targetPoint" />
          </mxGeometry>
        </mxCell>
        <mxCell id="iv-ONhpST4pGWa4uh-DX-8" style="edgeStyle=orthogonalEdgeStyle;rounded=0;orthogonalLoop=1;jettySize=auto;html=1;exitX=1;exitY=0;exitDx=0;exitDy=0;curved=0;strokeColor=none;" edge="1" parent="iv-ONhpST4pGWa4uh-DX-13" source="iv-ONhpST4pGWa4uh-DX-3" target="iv-ONhpST4pGWa4uh-DX-4">
          <mxGeometry relative="1" as="geometry" />
        </mxCell>
        <mxCell id="iv-ONhpST4pGWa4uh-DX-3" value="" style="ellipse;whiteSpace=wrap;html=1;aspect=fixed;" vertex="1" parent="iv-ONhpST4pGWa4uh-DX-13">
          <mxGeometry x="107.91666666666667" y="277.49999999999994" width="26.428571428571423" height="26.428571428571423" as="geometry" />
        </mxCell>
        <mxCell id="iv-ONhpST4pGWa4uh-DX-4" value="" style="ellipse;whiteSpace=wrap;html=1;aspect=fixed;" vertex="1" parent="iv-ONhpST4pGWa4uh-DX-13">
          <mxGeometry x="231.25" y="171.78571428571425" width="26.428571428571423" height="26.428571428571423" as="geometry" />
        </mxCell>
        <mxCell id="iv-ONhpST4pGWa4uh-DX-5" value="P0, P1&lt;div&gt;(0, -1)&lt;/div&gt;" style="text;html=1;align=center;verticalAlign=middle;whiteSpace=wrap;rounded=0;" vertex="1" parent="iv-ONhpST4pGWa4uh-DX-13">
          <mxGeometry x="41.846666666666664" y="270.8928571428571" width="92.5" height="39.64285714285713" as="geometry" />
        </mxCell>
        <mxCell id="iv-ONhpST4pGWa4uh-DX-6" value="P2, P3&lt;div&gt;(1, 0)&lt;/div&gt;" style="text;html=1;align=center;verticalAlign=middle;whiteSpace=wrap;rounded=0;" vertex="1" parent="iv-ONhpST4pGWa4uh-DX-13">
          <mxGeometry x="198.2166666666667" y="128.6885714285714" width="92.5" height="39.64285714285713" as="geometry" />
        </mxCell>
        <mxCell id="iv-ONhpST4pGWa4uh-DX-10" value="" style="endArrow=classic;startArrow=classic;html=1;rounded=0;" edge="1" parent="iv-ONhpST4pGWa4uh-DX-13" source="iv-ONhpST4pGWa4uh-DX-3" target="iv-ONhpST4pGWa4uh-DX-4">
          <mxGeometry width="50" height="50" relative="1" as="geometry">
            <mxPoint x="154.16666666666669" y="264.2857142857142" as="sourcePoint" />
            <mxPoint x="215.83333333333334" y="211.4285714285714" as="targetPoint" />
          </mxGeometry>
        </mxCell>
        <mxCell id="iv-ONhpST4pGWa4uh-DX-11" value="Distance = &lt;svg xmlns=&quot;http://www.w3.org/2000/svg&quot; width=&quot;3.061ex&quot; height=&quot;2.398ex&quot; role=&quot;img&quot; viewBox=&quot;0 -1008.3 1353 1060&quot; xmlns:xlink=&quot;http://www.w3.org/1999/xlink&quot; style=&quot;vertical-align: -0.117ex; font-size: 18px;&quot;&gt;&lt;defs style=&quot;font-size: 18px;&quot;&gt;&lt;path id=&quot;MJX-1-TEX-N-221A&quot; d=&quot;M95 178Q89 178 81 186T72 200T103 230T169 280T207 309Q209 311 212 311H213Q219 311 227 294T281 177Q300 134 312 108L397 -77Q398 -77 501 136T707 565T814 786Q820 800 834 800Q841 800 846 794T853 782V776L620 293L385 -193Q381 -200 366 -200Q357 -200 354 -197Q352 -195 256 15L160 225L144 214Q129 202 113 190T95 178Z&quot; style=&quot;font-size: 18px;&quot;&gt;&lt;/path&gt;&lt;path id=&quot;MJX-1-TEX-N-32&quot; d=&quot;M109 429Q82 429 66 447T50 491Q50 562 103 614T235 666Q326 666 387 610T449 465Q449 422 429 383T381 315T301 241Q265 210 201 149L142 93L218 92Q375 92 385 97Q392 99 409 186V189H449V186Q448 183 436 95T421 3V0H50V19V31Q50 38 56 46T86 81Q115 113 136 137Q145 147 170 174T204 211T233 244T261 278T284 308T305 340T320 369T333 401T340 431T343 464Q343 527 309 573T212 619Q179 619 154 602T119 569T109 550Q109 549 114 549Q132 549 151 535T170 489Q170 464 154 447T109 429Z&quot; style=&quot;font-size: 18px;&quot;&gt;&lt;/path&gt;&lt;/defs&gt;&lt;g stroke=&quot;currentColor&quot; fill=&quot;currentColor&quot; stroke-width=&quot;0&quot; transform=&quot;scale(1,-1)&quot; style=&quot;font-size: 18px;&quot;&gt;&lt;g data-mml-node=&quot;math&quot; style=&quot;font-size: 18px;&quot;&gt;&lt;g data-mml-node=&quot;msqrt&quot; style=&quot;font-size: 18px;&quot;&gt;&lt;g transform=&quot;translate(853,0)&quot; style=&quot;font-size: 18px;&quot;&gt;&lt;g data-mml-node=&quot;mn&quot; style=&quot;font-size: 18px;&quot;&gt;&lt;use data-c=&quot;32&quot; xlink:href=&quot;#MJX-1-TEX-N-32&quot; style=&quot;font-size: 18px;&quot;&gt;&lt;/use&gt;&lt;/g&gt;&lt;/g&gt;&lt;g data-mml-node=&quot;mo&quot; transform=&quot;translate(0,148.3)&quot; style=&quot;font-size: 18px;&quot;&gt;&lt;use data-c=&quot;221A&quot; xlink:href=&quot;#MJX-1-TEX-N-221A&quot; style=&quot;font-size: 18px;&quot;&gt;&lt;/use&gt;&lt;/g&gt;&lt;rect width=&quot;500&quot; height=&quot;60&quot; x=&quot;853&quot; y=&quot;888.3&quot; style=&quot;font-size: 18px;&quot;&gt;&lt;/rect&gt;&lt;/g&gt;&lt;/g&gt;&lt;/g&gt;&lt;/svg&gt;" style="edgeLabel;html=1;align=center;verticalAlign=middle;resizable=0;points=[];rotation=0;fontSize=18;" vertex="1" connectable="0" parent="iv-ONhpST4pGWa4uh-DX-10">
          <mxGeometry x="0.0854" y="-1" relative="1" as="geometry">
            <mxPoint x="-3" y="5" as="offset" />
          </mxGeometry>
        </mxCell>
        <mxCell id="iv-ONhpST4pGWa4uh-DX-14" value="" style="ellipse;whiteSpace=wrap;html=1;aspect=fixed;fillColor=none;" vertex="1" parent="iv-ONhpST4pGWa4uh-DX-13">
          <mxGeometry x="65.78000000000003" y="235.35999999999996" width="110.71" height="110.71" as="geometry" />
        </mxCell>
        <mxCell id="iv-ONhpST4pGWa4uh-DX-18" value="" style="ellipse;whiteSpace=wrap;html=1;aspect=fixed;fillColor=none;" vertex="1" parent="iv-ONhpST4pGWa4uh-DX-13">
          <mxGeometry x="189.11" y="128.68999999999997" width="110.71" height="110.71" as="geometry" />
        </mxCell>
      </root>
    </mxGraphModel>
  </diagram>
</mxfile>
